<svg xmlns="http://www.w3.org/2000/svg" xmlns:xlink="http://www.w3.org/1999/xlink" width="500" zoomAndPan="magnify" viewBox="0 0 375 374.999991" height="500" preserveAspectRatio="xMidYMid meet" version="1.0"><defs><g/><clipPath id="1e25017331"><path d="M 5.109375 5.109375 L 375 5.109375 L 375 375 L 5.109375 375 Z M 5.109375 5.109375 " clip-rule="nonzero"/></clipPath><clipPath id="313be7136b"><path d="M 190.054688 5.109375 C 87.914062 5.109375 5.109375 87.914062 5.109375 190.054688 C 5.109375 292.195312 87.914062 375 190.054688 375 C 292.195312 375 375 292.195312 375 190.054688 C 375 87.914062 292.195312 5.109375 190.054688 5.109375 Z M 190.054688 5.109375 " clip-rule="nonzero"/></clipPath><clipPath id="0b79dbd606"><path d="M 125 165 L 332 165 L 332 232 L 125 232 Z M 125 165 " clip-rule="nonzero"/></clipPath><clipPath id="20ad70c9db"><path d="M 91.292969 248.277344 L 89.109375 162.804688 L 332.027344 156.59375 L 334.214844 242.066406 Z M 91.292969 248.277344 " clip-rule="nonzero"/></clipPath><clipPath id="fdf2b68d91"><path d="M 334.507812 242.058594 L 332.320312 156.585938 L 89.402344 162.796875 L 91.585938 248.269531 Z M 334.507812 242.058594 " clip-rule="nonzero"/></clipPath><clipPath id="4fe606ae4b"><path d="M 91 189 L 317 189 L 317 248 L 91 248 Z M 91 189 " clip-rule="nonzero"/></clipPath><clipPath id="cc25c9bcc0"><path d="M 91.292969 248.277344 L 89.109375 162.804688 L 332.027344 156.59375 L 334.214844 242.066406 Z M 91.292969 248.277344 " clip-rule="nonzero"/></clipPath><clipPath id="11428adacd"><path d="M 334.507812 242.058594 L 332.320312 156.585938 L 89.402344 162.796875 L 91.585938 248.269531 Z M 334.507812 242.058594 " clip-rule="nonzero"/></clipPath><clipPath id="ccbf176e67"><path d="M 89.097656 233.6875 L 229.347656 233.6875 L 229.347656 292.1875 L 89.097656 292.1875 Z M 89.097656 233.6875 " clip-rule="nonzero"/></clipPath></defs><g clip-path="url(#1e25017331)"><g clip-path="url(#313be7136b)"><path fill="#cbbda6" d="M 5.109375 5.109375 L 375 5.109375 L 375 375 L 5.109375 375 Z M 5.109375 5.109375 " fill-opacity="1" fill-rule="nonzero"/></g></g><g fill="#000000" fill-opacity="1"><g transform="translate(33.817419, 305.022655)"><g><path d="M 43.964844 -37.683594 L 38.105469 -23.867188 C 34.335938 -14.238281 22.609375 -5.863281 12.980469 -5.863281 C 11.304688 -5.863281 10.050781 -4.605469 10.050781 -2.929688 C 10.050781 -1.257812 11.304688 0.417969 12.980469 0.417969 L 52.757812 0.417969 C 54.433594 0.417969 55.691406 -1.257812 55.691406 -2.929688 C 55.691406 -4.605469 54.433594 -5.863281 52.757812 -5.863281 C 48.570312 -5.863281 45.640625 -7.117188 43.964844 -9.628906 C 41.871094 -12.5625 41.871094 -17.167969 43.964844 -21.355469 L 49.410156 -35.171875 C 71.601562 -82.070312 117.242188 -113.054688 168.746094 -115.988281 L 208.105469 -21.355469 C 210.199219 -17.167969 210.199219 -12.5625 208.105469 -9.628906 C 206.429688 -7.117188 203.5 -5.863281 199.3125 -5.863281 C 197.636719 -5.863281 196.382812 -4.605469 196.382812 -2.929688 C 196.382812 -1.257812 197.636719 0.417969 199.3125 0.417969 L 293.105469 0.417969 C 294.78125 0.417969 296.457031 -1.257812 296.457031 -2.929688 C 296.457031 -4.605469 294.78125 -5.863281 293.105469 -5.863281 C 283.476562 -5.863281 271.753906 -14.238281 267.984375 -23.867188 L 156.183594 -290.175781 L 155.765625 -291.011719 C 155.765625 -291.433594 155.347656 -291.851562 155.347656 -291.851562 C 155.347656 -291.851562 155.347656 -291.851562 154.929688 -291.851562 C 154.929688 -292.269531 154.507812 -292.269531 154.507812 -292.6875 C 154.507812 -292.6875 154.507812 -292.6875 154.089844 -292.6875 C 153.671875 -292.6875 153.671875 -292.6875 153.253906 -292.6875 C 153.253906 -292.6875 153.253906 -293.105469 153.253906 -293.105469 C 152.835938 -293.105469 152.414062 -292.6875 151.996094 -292.6875 C 151.996094 -292.6875 151.996094 -292.6875 151.578125 -292.6875 C 151.578125 -292.269531 151.160156 -292.269531 151.160156 -292.269531 C 151.160156 -292.269531 150.742188 -291.851562 150.742188 -291.851562 C 150.742188 -291.851562 150.320312 -291.433594 150.320312 -291.011719 L 146.136719 -280.964844 L 123.105469 -226.53125 Z M 126.035156 -217.738281 L 166.234375 -121.847656 C 125.617188 -118.917969 88.769531 -99.65625 63.644531 -69.089844 Z M 126.035156 -217.738281 "/></g></g></g><g clip-path="url(#0b79dbd606)"><g clip-path="url(#20ad70c9db)"><g clip-path="url(#fdf2b68d91)"><path fill="#545454" d="M 129.171875 214.238281 C 129.171875 214.238281 134.484375 212.890625 135.859375 212.035156 C 136.46875 211.816406 137.046875 211.71875 137.769531 211.488281 C 138.214844 211.359375 138.710938 211.226562 139.222656 211.074219 C 139.476562 211.003906 139.714844 210.914062 139.996094 210.851562 C 140.28125 210.78125 140.574219 210.71875 140.875 210.65625 C 152.675781 207.96875 166.03125 207.804688 177.902344 210.371094 C 189.800781 212.929688 200.492188 219.824219 211.953125 223.964844 C 240.957031 234.457031 278.023438 235.15625 305.082031 218.132812 C 312.101562 213.722656 320.378906 207.546875 325.621094 200.578125 C 327.855469 197.605469 329.382812 194.960938 330.296875 193.003906 C 330.535156 192.546875 330.714844 192.074219 330.871094 191.683594 C 331.027344 191.292969 331.15625 190.96875 331.253906 190.699219 C 331.457031 190.167969 331.5625 189.898438 331.5625 189.898438 C 332.683594 186.953125 331.472656 183.535156 328.855469 182.25 C 327.242188 181.460938 325.472656 181.664062 324.089844 182.636719 L 322.890625 183.476562 C 322.890625 183.476562 322.757812 183.574219 322.496094 183.765625 C 322.371094 183.851562 322.214844 183.964844 322.027344 184.097656 C 321.84375 184.222656 321.648438 184.375 321.363281 184.53125 C 320.347656 185.199219 318.722656 186.105469 316.464844 186.972656 C 309.578125 189.644531 302.523438 190.394531 295.289062 189.546875 C 295.382812 189.59375 295.542969 189.457031 295.644531 189.492188 C 278.597656 184.894531 262.460938 176.953125 245.65625 171.429688 C 209.003906 159.402344 168.382812 166.644531 137.460938 191.585938 C 136.660156 192.289062 135.90625 192.980469 135.195312 193.632812 C 134.484375 194.265625 133.804688 195.011719 133.175781 195.632812 C 132.863281 195.953125 132.558594 196.273438 132.261719 196.578125 C 131.976562 196.886719 131.691406 197.226562 131.421875 197.546875 C 130.886719 198.1875 130.386719 198.777344 129.929688 199.332031 C 128.933594 200.636719 128.046875 201.847656 127.515625 202.726562 C 126.765625 204.289062 126.363281 205.121094 126.363281 205.121094 C 124.957031 208.0625 125.933594 211.753906 128.558594 213.363281 C 130.222656 214.378906 127.578125 215.199219 129.117188 214.269531 L 129.171875 214.238281 " fill-opacity="1" fill-rule="nonzero"/></g></g></g><g clip-path="url(#4fe606ae4b)"><g clip-path="url(#cc25c9bcc0)"><g clip-path="url(#11428adacd)"><path fill="#000000" d="M 91.617188 245.257812 C 91.636719 246.105469 92.0625 246.929688 92.832031 247.425781 C 94.066406 248.222656 95.710938 247.867188 96.507812 246.632812 C 101.570312 238.785156 109.4375 230.203125 119.28125 221.789062 C 136.945312 206.6875 162.488281 198.023438 197.371094 195.308594 C 210.128906 194.3125 222.433594 197.695312 236.046875 201.882812 L 239.03125 202.808594 C 264.007812 210.542969 292.324219 219.296875 315.273438 199.820312 C 316.394531 198.871094 316.53125 197.195312 315.578125 196.066406 C 314.628906 194.953125 312.949219 194.808594 311.824219 195.769531 C 291.101562 213.347656 264.273438 205.042969 240.605469 197.71875 L 237.609375 196.792969 C 223.464844 192.441406 210.644531 188.925781 196.960938 189.992188 C 160.910156 192.808594 134.375 201.878906 115.820312 217.746094 C 108.6875 223.835938 98.773438 233.296875 92.035156 243.75 C 91.734375 244.214844 91.601562 244.734375 91.617188 245.257812 " fill-opacity="1" fill-rule="nonzero"/></g></g></g><g clip-path="url(#ccbf176e67)"><path fill="#000000" d="M 90.800781 286.171875 C 91.976562 283.550781 93.367188 280.855469 94.816406 278.257812 C 100.457031 287.410156 108.234375 291.171875 122.183594 291.171875 C 135.128906 291.171875 146.058594 286.230469 153.03125 282.410156 C 159.847656 286.386719 167.703125 288.710938 174.835938 288.296875 C 188.113281 287.550781 195.910156 277.921875 199.320312 272.390625 C 199.710938 277.863281 200.496094 282.054688 200.59375 282.566406 C 201.121094 285.5625 205.585938 285.855469 205.429688 282.824219 C 205.410156 282.292969 205.371094 281.625 205.3125 280.816406 C 206.136719 268.863281 211.050781 262.386719 212.933594 262.386719 C 214.148438 262.386719 214.734375 266.875 214.734375 269.769531 C 214.734375 271.03125 214.695312 272.191406 214.636719 273.273438 C 208.898438 277.429688 205.3125 283.414062 205.3125 287.550781 C 205.3125 291.410156 207.390625 292.175781 208.878906 292.175781 C 215.324219 292.175781 220.375 281.050781 220.511719 271.71875 C 223.492188 270.242188 226.527344 269.398438 228.9375 269.398438 C 229.289062 269.398438 229.347656 268.550781 228.722656 268.550781 C 225.78125 268.550781 223.019531 269.121094 220.492188 270.105469 C 220.238281 264.238281 218.164062 259.375 214.382812 259.375 C 209.917969 259.375 206.664062 265.597656 204.941406 272.191406 C 204.941406 270.441406 205 268.746094 205.117188 267.113281 C 207.761719 263.84375 218.691406 249.316406 218.691406 238.976562 C 218.691406 235.867188 217.066406 233.703125 214.5 233.703125 C 209.328125 233.703125 199.085938 246.007812 199.085938 266.421875 C 199.085938 267.347656 199.105469 268.273438 199.144531 269.160156 C 199.105469 269.21875 199.085938 269.257812 199.046875 269.296875 C 193.757812 278.53125 184.511719 286.40625 174.714844 286.40625 C 167.625 286.40625 160.90625 284.339844 155.226562 281.089844 C 165.253906 274.832031 171.328125 265.417969 170.9375 256.402344 C 170.722656 251.421875 168.3125 247.839844 164.394531 247.660156 C 163.21875 247.601562 161.90625 247.859375 160.496094 248.488281 C 157.207031 249.945312 154.542969 253.746094 153.050781 257.308594 C 151.464844 252.996094 149.175781 248.78125 144.472656 247.957031 C 138.832031 246.953125 135.285156 251.183594 135.285156 257.367188 C 135.285156 266.382812 141.945312 275.144531 150.878906 281.011719 C 144.335938 284.496094 133.699219 288.789062 123.21875 288.789062 C 110.566406 288.789062 100.320312 284.714844 98.402344 272.210938 C 102.671875 265.320312 106.648438 259.945312 107.078125 259.257812 C 107.765625 258.15625 106.628906 256.285156 105.042969 257.9375 C 104.355469 258.648438 101.027344 262.800781 97.539062 268.394531 C 96.660156 264.316406 95.953125 260.597656 95.308594 258.941406 C 95.050781 258.273438 94.40625 256.558594 92.625 256.558594 C 91.703125 256.558594 90.351562 257.683594 90.351562 259.453125 C 90.351562 263.371094 91.546875 269.691406 93.640625 275.265625 C 91.898438 278.648438 90.371094 282.253906 89.410156 285.757812 C 89.097656 286.703125 89.960938 288.023438 90.800781 286.171875 Z M 209.640625 287.429688 C 209.269531 287.429688 209.054688 287.117188 209.054688 286.585938 C 209.054688 282.46875 211.308594 278.769531 214.441406 275.875 C 213.382812 285.621094 209.957031 287.429688 209.640625 287.429688 Z M 215.285156 238.464844 C 215.675781 238.464844 215.714844 239.234375 215.714844 239.628906 C 215.714844 248.882812 208.507812 260.617188 205.292969 265.007812 C 206.878906 248.074219 213.714844 238.464844 215.285156 238.464844 Z M 138.300781 257.9375 C 138.242188 254.609375 139.398438 252.109375 141.378906 251.203125 C 142.21875 250.8125 143.023438 250.652344 143.789062 250.671875 C 149.09375 250.890625 152.230469 260.261719 152.71875 260.496094 C 153.109375 260.675781 153.5625 260.496094 153.738281 260.105469 C 154.875 258.117188 157.421875 252.621094 161.535156 251.066406 C 162.472656 250.710938 163.316406 250.59375 164.0625 250.652344 C 166.648438 250.871094 167.9375 253.410156 168.039062 256.816406 C 168.273438 264.945312 162.808594 273.847656 153.050781 279.792969 C 144.277344 274.042969 138.421875 265.480469 138.300781 257.9375 Z M 138.300781 257.9375 " fill-opacity="1" fill-rule="nonzero"/></g></svg>