<?xml version="1.0" standalone="no"?>
<!DOCTYPE svg PUBLIC "-//W3C//DTD SVG 20010904//EN"
 "http://www.w3.org/TR/2001/REC-SVG-20010904/DTD/svg10.dtd">
<svg version="1.0" xmlns="http://www.w3.org/2000/svg"
 width="1106.000000pt" height="1089.000000pt" viewBox="0 0 1106.000000 1089.000000"
 preserveAspectRatio="xMidYMid meet">
<metadata>
Created by potrace 1.16, written by Peter Selinger 2001-2019
</metadata>
<g transform="translate(0.000000,1089.000000) scale(0.100000,-0.100000)"
fill="#000000" stroke="none">
<path d="M5165 10869 c-16 -7 -35 -15 -40 -20 -6 -4 -39 -1 -75 6 -93 20 -129
18 -179 -11 -43 -24 -47 -24 -117 -13 -85 13 -129 7 -176 -25 -32 -21 -42 -23
-134 -19 l-99 5 -48 -35 -48 -34 -97 5 -97 4 -47 -46 c-51 -50 -56 -52 -103
-35 -56 21 -119 4 -177 -47 -33 -30 -56 -43 -67 -39 -75 29 -141 10 -202 -58
l-46 -51 -48 11 c-67 15 -109 0 -171 -64 -47 -49 -53 -52 -87 -46 -57 9 -119
-20 -168 -78 -39 -47 -43 -49 -92 -49 -70 0 -114 -24 -162 -89 -38 -51 -41
-53 -79 -48 -66 9 -131 -35 -177 -120 -15 -27 -23 -31 -73 -35 -70 -6 -100
-27 -144 -101 -31 -54 -35 -57 -82 -63 -68 -9 -104 -34 -141 -99 -34 -60 -45
-69 -101 -79 -43 -8 -103 -70 -113 -118 -8 -32 -55 -68 -92 -68 -35 0 -93 -59
-121 -122 -19 -45 -31 -60 -51 -65 -14 -3 -38 -12 -52 -19 -30 -15 -89 -98
-89 -124 0 -27 -40 -71 -79 -87 -60 -25 -89 -60 -102 -122 -14 -68 -20 -77
-64 -85 -54 -11 -89 -53 -103 -126 -11 -62 -41 -110 -68 -110 -19 0 -83 -77
-89 -107 -18 -88 -26 -104 -66 -129 -48 -30 -79 -78 -79 -122 0 -47 -23 -96
-58 -121 -49 -34 -74 -85 -78 -154 -4 -59 -6 -64 -53 -107 -40 -37 -50 -54
-60 -98 -6 -29 -11 -67 -11 -84 0 -22 -10 -39 -35 -62 -46 -43 -65 -92 -65
-171 0 -60 -3 -68 -34 -102 -49 -56 -56 -75 -56 -150 0 -61 -4 -74 -35 -123
-40 -63 -50 -101 -42 -174 5 -50 -2 -77 -30 -104 -25 -26 -44 -114 -36 -172 9
-69 7 -76 -24 -117 -35 -45 -42 -119 -18 -173 l18 -40 -29 -41 c-26 -38 -29
-50 -29 -118 0 -43 7 -90 14 -107 13 -29 13 -33 -13 -67 -23 -30 -28 -46 -28
-99 0 -37 7 -80 16 -103 16 -37 16 -41 -5 -89 -26 -62 -22 -147 10 -200 l21
-34 -21 -36 c-30 -51 -25 -166 10 -215 23 -32 23 -34 7 -67 -20 -43 -21 -145
-2 -182 8 -15 23 -35 35 -46 19 -18 19 -20 4 -50 -10 -19 -17 -57 -17 -97 -1
-62 2 -70 33 -109 33 -42 34 -44 23 -87 -22 -81 -8 -145 43 -202 32 -36 34
-40 24 -76 -12 -42 -5 -125 13 -159 6 -12 22 -33 36 -48 22 -24 25 -35 23 -93
-2 -75 18 -132 67 -182 29 -29 30 -35 25 -87 -8 -77 16 -139 67 -173 39 -25
39 -25 38 -92 -1 -104 12 -132 85 -178 36 -23 38 -27 33 -58 -12 -62 45 -169
107 -201 24 -13 27 -20 27 -66 0 -75 30 -130 91 -167 45 -28 49 -34 49 -68 0
-72 71 -183 116 -183 23 0 44 -31 44 -66 0 -70 55 -143 125 -167 37 -13 40
-17 46 -58 10 -81 62 -147 134 -172 31 -11 41 -20 46 -43 16 -77 86 -164 133
-164 32 0 52 -19 66 -62 18 -59 93 -135 147 -150 42 -12 47 -17 59 -57 7 -24
23 -54 36 -68 26 -29 93 -62 124 -63 26 0 48 -25 63 -72 16 -48 70 -95 118
-103 79 -13 83 -15 98 -53 30 -71 96 -122 159 -122 34 0 66 -21 66 -43 0 -22
63 -89 96 -103 19 -8 54 -14 78 -14 40 0 47 -4 60 -29 34 -65 145 -135 198
-124 25 5 34 -1 65 -37 40 -46 139 -100 185 -100 14 0 39 -11 55 -24 56 -47
137 -88 197 -98 34 -6 72 -19 86 -28 49 -34 126 -67 168 -73 24 -3 76 -21 115
-40 40 -20 101 -43 137 -52 36 -9 90 -24 120 -35 84 -28 427 -107 499 -115 35
-4 84 -16 109 -27 35 -16 81 -22 201 -29 86 -5 198 -14 250 -19 51 -6 184 -13
295 -17 110 -3 209 -10 218 -14 21 -11 248 6 300 23 29 8 47 8 77 0 41 -13
231 -2 336 19 28 5 106 16 175 23 87 10 137 20 165 35 30 16 57 21 117 21 62
0 92 5 140 26 43 18 86 27 142 30 61 3 87 9 106 24 55 44 104 63 155 62 69 -1
108 13 161 59 41 36 50 39 102 39 84 0 122 14 162 61 33 38 40 41 105 49 84 9
149 39 169 79 18 34 33 41 92 41 45 0 144 41 144 59 0 5 12 23 26 40 20 24 34
31 63 31 56 0 137 44 162 90 25 44 46 56 108 63 51 6 108 47 133 97 24 47 31
52 88 61 65 10 105 39 135 100 27 51 65 79 111 79 29 0 93 60 129 120 13 23
34 40 63 50 63 23 126 80 142 129 16 49 32 64 87 80 49 13 94 63 112 121 12
42 52 80 83 80 29 0 72 48 93 105 28 74 44 94 90 116 52 25 83 65 98 131 9 36
20 57 41 72 76 56 113 102 127 162 12 49 20 62 52 84 48 32 93 98 101 147 11
62 25 87 62 111 48 31 74 77 74 132 1 53 13 78 59 116 43 36 71 96 71 157 0
41 5 53 39 90 52 57 73 101 73 155 0 52 11 78 43 104 35 27 66 110 64 171 -2
46 3 60 34 106 42 60 62 122 52 160 -11 45 -7 61 25 108 36 56 54 117 45 152
-13 47 -7 87 18 123 36 55 53 123 39 162 -17 47 -15 68 13 118 32 58 42 127
24 170 -17 41 -13 73 12 108 28 37 37 132 15 164 -21 33 -20 77 3 123 33 65
36 116 10 169 -22 46 -22 48 -5 95 26 72 25 146 -4 195 -24 41 -24 42 -7 94
26 81 23 156 -10 198 -25 34 -26 37 -15 92 19 89 15 131 -14 174 -24 35 -26
44 -20 98 10 83 -1 142 -35 184 -28 35 -28 37 -22 135 l6 99 -48 45 -48 44 11
39 c26 85 9 151 -48 192 -29 20 -29 23 -28 99 1 82 -12 120 -52 156 -31 27
-52 80 -44 110 3 14 1 47 -6 75 -10 40 -21 58 -55 85 -40 33 -43 39 -47 99 -7
80 -23 113 -75 151 -47 34 -59 58 -67 132 -7 69 -27 106 -78 140 -40 27 -43
33 -49 84 -7 66 -24 94 -95 154 -44 38 -54 52 -54 77 0 45 -55 125 -101 149
-44 22 -64 49 -73 99 -10 55 -40 96 -100 134 -46 30 -57 42 -66 78 -7 24 -21
58 -32 76 -22 36 -129 114 -150 109 -7 -2 -10 -2 -6 0 8 5 -18 70 -44 106 -11
16 -46 41 -77 55 -48 23 -59 34 -81 79 -32 66 -74 110 -114 118 -48 11 -76 33
-95 78 -31 71 -99 117 -171 117 -23 0 -29 6 -39 41 -20 65 -84 121 -154 132
-36 6 -37 5 -26 -16 9 -17 6 -16 -15 6 -15 16 -34 45 -44 65 -18 38 -101 109
-111 95 -3 -4 -14 -9 -24 -9 -13 -2 -15 1 -7 11 8 10 6 13 -7 11 -10 0 -21 -5
-25 -11 -5 -6 -8 -5 -8 3 0 7 -4 11 -8 8 -14 -8 -29 8 -45 46 -11 25 -32 48
-63 68 -57 35 -73 38 -44 8 14 -16 17 -24 8 -29 -14 -9 -39 3 -58 26 -11 13
-10 15 4 9 12 -4 15 -2 10 9 -7 18 -44 29 -59 17 -14 -12 -36 8 -58 51 -21 41
-62 66 -82 49 -6 -5 -15 -7 -19 -3 -4 4 -4 0 0 -10 4 -11 1 -17 -9 -17 -8 0
-17 8 -19 18 -3 10 -30 31 -62 48 -31 16 -56 34 -56 40 0 17 -45 54 -66 54
-10 0 -25 -9 -32 -20 -13 -22 -32 -27 -32 -9 0 6 -9 22 -20 36 -11 14 -20 23
-20 19 0 -4 -10 -1 -22 6 -24 13 -30 15 -52 17 -8 0 -21 13 -28 28 -7 15 -28
33 -46 40 -31 13 -32 13 -22 -6 15 -28 12 -35 -7 -20 -9 8 -14 9 -10 3 6 -10
-12 -24 -29 -24 -11 0 -2 24 13 35 15 11 14 12 -11 8 -20 -4 -27 -2 -22 5 4 8
2 10 -7 6 -8 -3 -17 2 -20 10 -4 9 -18 16 -32 16 -14 0 -25 5 -25 10 0 6 -9
10 -20 10 -10 0 -24 9 -30 19 -10 20 -77 48 -87 37 -4 -3 -1 -6 5 -6 6 0 9 -7
5 -17 -5 -12 -3 -14 8 -8 11 6 11 5 3 -4 -16 -18 -49 -9 -48 12 1 10 -8 20
-22 23 -13 3 -24 10 -24 15 0 5 -9 9 -19 9 -10 0 -45 13 -76 30 -74 39 -104
45 -98 19 4 -14 0 -19 -17 -19 -15 0 -20 5 -17 14 6 16 -10 25 -130 65 -100
34 -107 35 -99 23 3 -5 -10 -14 -29 -20 -29 -8 -35 -8 -35 5 0 8 5 11 10 8 6
-3 10 -3 10 2 0 12 -75 40 -153 58 -51 12 -72 13 -88 4 -17 -9 -30 -6 -68 14
-25 14 -74 31 -109 38 -61 11 -90 8 -160 -18 -8 -4 -13 -2 -9 3 3 6 3 14 -1
20 -14 20 -108 48 -157 47 -27 -1 -81 5 -118 13 -73 16 -172 20 -205 10 -12
-4 -58 0 -103 9 -103 19 -152 19 -191 -1 -24 -12 -36 -14 -55 -5 -36 16 -183
23 -218 10z m762 -148 c888 -99 1707 -396 2418 -879 620 -420 1087 -882 1469
-1451 352 -525 629 -1143 771 -1721 56 -228 135 -683 135 -779 0 -20 5 -43 10
-51 12 -18 6 132 -8 220 -5 30 -10 86 -11 124 -1 38 -6 77 -11 86 -18 33 -42
162 -37 198 3 25 -2 53 -18 87 -12 28 -25 79 -29 115 -4 36 -9 80 -13 99 l-6
34 22 -22 c26 -26 66 -42 84 -35 21 7 47 -40 47 -83 0 -21 -9 -53 -20 -70 -24
-40 -16 -68 35 -118 31 -32 35 -41 35 -89 0 -42 -5 -57 -23 -74 -13 -12 -26
-19 -30 -16 -12 13 -18 -22 -7 -47 10 -22 10 -21 5 9 -5 38 10 35 19 -4 4 -14
22 -38 40 -55 47 -41 61 -78 46 -123 -6 -20 -21 -42 -32 -50 -15 -11 -18 -20
-13 -33 5 -10 7 -24 6 -31 -1 -7 16 -34 39 -58 36 -39 41 -50 37 -80 -3 -19
-13 -46 -23 -60 -54 -76 -55 -89 -9 -134 19 -19 37 -48 41 -66 7 -38 -15 -87
-51 -110 -27 -18 -26 -47 2 -93 14 -22 14 -24 -1 -18 -11 4 -15 3 -11 -4 4 -6
13 -8 20 -5 7 2 21 -4 30 -14 23 -25 13 -95 -17 -127 -21 -23 -45 -32 -33 -13
3 6 2 10 -3 10 -5 0 -9 -13 -8 -30 1 -16 4 -30 8 -30 3 0 4 -9 1 -20 -3 -12 2
-29 12 -40 12 -14 14 -20 5 -20 -10 0 -10 -3 0 -15 11 -13 10 -35 -3 -105 -4
-22 -17 -40 -28 -40 -6 0 -7 5 -3 12 4 6 3 8 -4 5 -5 -4 -9 -18 -7 -32 1 -14
-2 -28 -6 -31 -5 -3 -6 -17 -2 -32 5 -23 4 -25 -9 -14 -13 10 -15 9 -11 -11 5
-25 49 -52 56 -33 9 23 19 -25 13 -59 -7 -34 -55 -102 -56 -77 0 17 -29 15
-36 -3 -11 -28 -24 -15 -24 23 0 20 -5 53 -10 73 -8 28 -7 45 6 75 10 24 16
64 15 104 -1 36 4 90 9 120 6 30 12 124 13 208 2 133 4 155 20 166 17 13 25
32 8 21 -19 -11 -35 70 -32 164 1 52 4 98 7 103 7 11 -15 116 -26 123 -4 3 -5
-127 -3 -288 7 -371 -11 -630 -67 -958 -98 -574 -282 -1115 -552 -1624 -50
-93 -96 -177 -103 -185 -7 -8 -21 -31 -30 -50 -58 -115 -299 -453 -464 -650
-113 -135 -312 -353 -342 -374 -12 -8 -56 -48 -98 -88 -271 -264 -606 -511
-961 -710 -58 -33 -126 -73 -152 -89 -26 -17 -83 -45 -128 -64 -45 -19 -96
-43 -115 -54 -47 -27 -323 -144 -425 -179 -47 -16 -110 -39 -140 -50 -244 -89
-711 -199 -1007 -237 -281 -35 -492 -47 -768 -42 -266 5 -526 19 -555 31 -8 3
-60 10 -115 16 -55 5 -131 17 -170 24 -38 8 -115 24 -170 35 -55 10 -130 26
-166 35 -36 8 -79 17 -95 20 -16 3 -63 17 -104 30 -41 14 -118 38 -170 55
-328 101 -805 319 -1143 523 -728 439 -1341 1040 -1773 1738 -483 779 -746
1625 -805 2585 -13 216 -6 622 14 811 8 67 12 137 11 157 -2 21 1 37 5 37 5 0
12 28 15 62 20 177 123 624 189 828 104 316 187 523 304 755 69 138 241 439
280 491 13 17 23 36 23 42 0 6 11 22 24 36 13 14 36 45 52 68 34 50 133 182
213 283 74 95 184 219 300 340 53 56 101 110 107 120 6 11 21 25 33 31 12 6
58 46 102 88 44 42 83 76 86 76 3 0 42 31 87 69 44 37 124 100 176 139 52 39
106 80 120 90 80 61 430 282 447 282 3 0 17 8 31 19 15 10 86 49 157 86 628
329 1372 538 2075 585 210 14 755 3 957 -19z m4686 -3707 c43 -13 65 -121 26
-131 -12 -4 -22 -17 -26 -35 -3 -15 -9 -30 -12 -33 -19 -11 -70 127 -71 193 0
21 3 23 33 17 17 -4 40 -9 50 -11z"/>
<path d="M5013 10519 c-141 -8 -445 -44 -503 -59 -19 -5 -89 -18 -155 -29
-121 -21 -367 -80 -421 -102 -16 -7 -36 -13 -44 -14 -61 -9 -410 -138 -595
-220 -174 -77 -513 -257 -641 -341 -32 -21 -67 -43 -76 -49 -153 -91 -497
-366 -687 -550 -134 -130 -345 -359 -435 -470 -31 -38 -71 -88 -89 -110 -77
-95 -319 -463 -409 -624 -76 -135 -196 -392 -280 -599 -83 -206 -214 -647
-255 -862 -70 -365 -91 -565 -98 -925 -9 -485 57 -969 200 -1470 60 -208 142
-443 214 -614 71 -165 229 -477 305 -599 28 -45 65 -105 81 -132 87 -144 264
-394 350 -495 24 -27 58 -68 76 -90 68 -81 85 -100 134 -154 217 -239 558
-545 781 -701 262 -183 554 -359 749 -450 50 -23 123 -58 164 -77 160 -75 435
-178 631 -236 472 -142 924 -207 1428 -207 810 0 1560 170 2255 512 65 32 120
58 123 58 9 0 311 178 399 235 319 208 539 388 821 669 277 277 459 499 656
801 401 611 685 1365 782 2070 31 229 37 294 45 479 21 511 -35 1035 -165
1526 -37 142 -164 529 -189 577 -8 15 -15 31 -15 35 0 5 -13 36 -29 70 -16 35
-48 106 -72 158 -85 187 -221 441 -327 610 -58 92 -175 264 -189 278 -7 8 -18
23 -25 35 -10 20 -60 86 -147 197 -97 123 -398 437 -531 554 -129 114 -336
281 -450 363 -82 59 -348 232 -440 285 -98 57 -390 203 -475 239 -49 20 -146
60 -215 89 -289 121 -688 223 -1155 295 -300 47 -741 65 -1082 44z m857 -113
c488 -55 880 -147 1300 -303 179 -67 458 -195 497 -229 18 -15 24 -37 33 -117
12 -100 9 -147 -15 -227 -32 -110 -74 -172 -197 -292 -85 -84 -213 -188 -231
-188 -3 0 -25 -13 -49 -29 -24 -16 -83 -50 -133 -77 -49 -26 -123 -67 -163
-91 -41 -24 -81 -43 -89 -43 -9 0 -50 22 -92 49 -100 63 -366 189 -377 178 -2
-2 56 -33 129 -69 73 -37 157 -86 187 -111 30 -24 85 -65 122 -90 69 -48 86
-61 170 -134 27 -24 53 -43 58 -43 16 0 154 -144 211 -220 31 -41 67 -86 80
-100 72 -78 218 -332 211 -367 -2 -7 2 -13 8 -13 5 0 10 -11 10 -25 0 -13 11
-49 24 -78 15 -36 21 -59 15 -69 -6 -11 -4 -18 6 -22 12 -4 12 -11 3 -37 -8
-23 -8 -33 1 -38 7 -5 11 -12 10 -17 -3 -18 13 -54 22 -48 5 3 9 -9 9 -25 0
-17 5 -31 11 -31 6 0 9 -7 6 -15 -4 -8 -2 -17 3 -20 6 -4 10 -15 10 -25 0 -10
9 -34 19 -52 24 -40 69 -178 76 -234 8 -66 8 -138 -2 -164 -6 -14 -8 -61 -6
-105 l3 -80 -20 25 c-24 31 -29 10 -15 -65 3 -16 7 -48 10 -70 2 -22 6 -56 9
-75 2 -20 -2 -60 -10 -89 -12 -48 -15 -80 -13 -151 2 -76 14 -106 88 -218 81
-123 118 -198 125 -254 3 -18 5 -33 6 -33 8 0 7 -220 -1 -255 -5 -25 -12 -70
-14 -100 -7 -74 -41 -183 -71 -228 -30 -45 -115 -123 -126 -116 -9 6 0 25 55
112 21 34 45 82 52 105 7 23 21 58 30 78 12 24 15 46 11 64 -8 31 -17 27 -21
-7 -4 -34 -36 -108 -47 -108 -5 0 -7 -4 -3 -9 3 -5 0 -13 -6 -16 -5 -4 -8 -13
-5 -21 3 -8 1 -14 -4 -14 -6 0 -10 -6 -10 -14 0 -8 -10 -27 -23 -43 -13 -15
-27 -36 -30 -46 -4 -10 -11 -15 -17 -12 -6 3 -10 -4 -10 -17 0 -20 -49 -88
-63 -88 -3 0 -20 -14 -37 -31 -17 -17 -34 -29 -37 -25 -3 3 5 16 19 29 14 13
29 34 33 45 3 12 11 22 16 22 5 0 9 5 9 12 0 6 11 26 25 44 14 18 25 37 25 43
0 5 9 16 20 24 11 8 17 17 13 20 -3 4 -1 7 5 7 7 0 12 9 12 20 0 27 -18 25
-22 -2 -2 -17 -10 -23 -30 -25 -16 -1 -28 0 -28 2 0 3 11 30 25 61 37 83 47
130 46 214 -1 132 -42 334 -83 413 -30 55 -167 207 -187 207 -5 0 -12 9 -16
19 -7 24 -24 30 -59 24 -23 -5 -27 -10 -23 -29 2 -13 0 -21 -4 -18 -14 8 -10
36 8 56 15 17 14 18 -16 18 -26 0 -46 14 -113 79 -45 44 -86 77 -90 75 -21
-13 -3 -55 27 -66 5 -1 8 -9 7 -17 -2 -7 1 -10 6 -7 5 3 14 -7 20 -22 40 -108
55 -141 63 -136 5 3 9 -9 9 -26 0 -17 4 -29 9 -26 5 4 12 -24 15 -61 3 -38 7
-81 9 -97 2 -16 -4 -58 -14 -93 -10 -36 -18 -68 -17 -72 1 -3 -2 -14 -6 -23
-5 -10 -5 -26 -2 -35 6 -14 10 -12 22 13 32 60 53 142 59 231 5 56 13 100 22
110 8 10 12 12 8 6 -3 -7 -1 -13 5 -13 6 0 16 -13 21 -30 6 -16 15 -30 20 -30
5 0 9 -5 9 -11 0 -6 7 -17 15 -25 8 -9 15 -12 15 -8 0 4 14 -14 31 -41 36 -57
71 -154 61 -170 -11 -17 -12 -45 -2 -45 6 0 10 -8 10 -17 0 -12 6 -8 16 12 9
18 14 44 11 65 -5 40 -63 184 -81 203 -7 7 -15 19 -19 27 -3 8 -31 49 -61 91
l-54 76 39 -4 c32 -3 48 -14 87 -55 80 -86 123 -165 146 -273 27 -122 27 -444
1 -494 -8 -17 -13 -31 -9 -31 4 0 1 -7 -6 -15 -6 -8 -9 -19 -5 -25 4 -6 1 -17
-5 -25 -6 -8 -9 -18 -6 -23 2 -4 -6 -16 -19 -26 -14 -10 -22 -22 -20 -26 3 -4
-2 -10 -10 -14 -8 -3 -15 -12 -15 -20 0 -8 -13 -25 -28 -38 -15 -13 -31 -31
-35 -41 -3 -9 -14 -17 -22 -17 -9 0 -13 -4 -10 -10 3 -5 -1 -10 -9 -10 -9 0
-16 -5 -16 -11 0 -6 -6 -9 -13 -6 -7 2 -26 -6 -42 -19 -27 -21 -28 -24 -10
-30 11 -4 23 -12 26 -17 7 -10 -8 -64 -22 -83 -5 -6 -10 -23 -11 -37 -1 -14
-6 -23 -10 -21 -8 5 -28 -37 -32 -66 -1 -8 -8 -28 -14 -43 -7 -16 -12 -40 -12
-55 -1 -15 -7 -38 -15 -52 -8 -14 -14 -46 -15 -72 0 -48 -14 -68 -33 -49 -8 8
-8 30 2 84 35 197 34 229 -9 300 l-19 31 5 -35 c4 -23 1 -40 -8 -50 -7 -8 -15
-30 -16 -49 -2 -19 -10 -59 -18 -88 -8 -29 -14 -58 -13 -65 3 -17 -21 -99 -33
-115 -6 -7 -8 -15 -5 -19 4 -3 1 -15 -6 -27 -20 -36 -34 -104 -25 -120 13 -23
19 -86 9 -86 -5 0 -12 7 -15 16 -11 29 -25 5 -14 -26 5 -17 7 -37 4 -45 -3 -8
-2 -15 3 -15 5 0 8 -6 8 -12 -1 -25 16 -78 25 -78 5 0 6 -9 3 -20 -9 -28 13
-26 24 3 7 19 2 91 -10 122 -2 6 8 23 23 38 25 27 27 27 33 8 3 -12 8 -33 10
-49 2 -15 4 -27 5 -27 2 0 5 -14 14 -52 2 -11 -2 -29 -9 -40 -13 -17 -14 -17
-30 2 -16 20 -16 19 -12 -7 2 -15 1 -25 -4 -23 -4 3 -10 1 -14 -5 -4 -6 -10
-8 -14 -6 -15 10 -31 -11 -37 -48 -9 -62 -13 -78 -19 -84 -2 -3 0 -11 6 -19 9
-9 8 -13 0 -13 -9 0 -9 -5 -1 -21 6 -11 10 -35 9 -52 -3 -23 1 -31 10 -29 9 2
12 -4 9 -15 -6 -21 12 -41 30 -35 17 5 15 -23 -4 -38 -13 -11 -20 -8 -47 22
-18 19 -39 38 -49 41 -24 8 -31 73 -23 222 5 97 4 135 -5 140 -6 4 -13 5 -14
4 -5 -6 -16 -97 -21 -174 -2 -41 -9 -71 -16 -74 -8 -2 -8 -5 1 -11 7 -4 13
-19 13 -34 0 -14 2 -26 6 -26 4 0 8 -14 9 -32 2 -17 8 -38 14 -45 7 -9 7 -17
-1 -27 -9 -11 -9 -15 1 -20 7 -3 3 -3 -9 0 -17 4 -23 1 -23 -10 0 -9 -7 -16
-16 -16 -9 0 -12 -5 -8 -12 5 -7 3 -8 -5 -3 -17 10 -51 84 -51 112 0 12 -5 23
-12 25 -16 6 -21 98 -11 202 5 49 5 114 1 145 -5 31 -10 70 -12 86 -3 27 -32
94 -71 165 -16 30 -49 111 -51 125 -1 5 -2 20 -3 33 0 12 -7 22 -14 22 -13 0
-13 5 -2 155 4 50 4 86 -1 82 -5 -5 -9 -14 -9 -20 -2 -39 -19 -87 -31 -87 -8
0 -20 24 -30 58 -23 78 -29 50 -10 -44 20 -93 20 -95 1 -88 -8 4 -15 11 -15
16 0 5 -9 21 -20 35 -16 21 -17 29 -8 47 11 20 10 20 -8 6 -10 -8 -20 -15 -22
-16 -2 -1 2 -12 8 -24 6 -11 9 -26 7 -33 -5 -12 -32 41 -29 56 1 4 -3 7 -8 7
-12 0 -12 -3 -1 -32 14 -37 12 -42 -12 -43 -13 0 -22 -6 -22 -15 0 -11 8 -14
30 -12 26 4 28 2 16 -12 -7 -9 -19 -16 -25 -16 -6 0 -4 5 4 11 13 9 13 10 0 7
-10 -3 -13 -17 -11 -51 1 -29 -2 -47 -8 -47 -6 0 -11 -5 -11 -11 0 -5 4 -8 9
-5 10 7 23 -46 13 -54 -10 -7 -10 -90 -1 -85 4 3 5 -3 2 -13 -3 -12 4 -23 21
-32 34 -18 33 -30 -1 -30 -25 -1 -26 -2 -10 -14 9 -7 17 -18 17 -24 0 -6 -8
-16 -17 -21 -17 -10 -17 -10 0 -11 14 0 16 -4 7 -19 -14 -27 -13 -31 8 -24 14
5 15 3 5 -8 -18 -19 -16 -34 2 -19 9 7 19 10 23 6 4 -4 -1 -13 -10 -20 -10 -7
-15 -15 -12 -18 6 -7 -17 -60 -31 -71 -6 -5 -3 -7 7 -3 26 8 48 -37 26 -51 -7
-4 -9 2 -6 15 5 19 3 20 -13 11 -11 -5 -17 -15 -13 -21 4 -5 0 -15 -7 -20 -10
-7 -5 -8 15 -3 23 5 27 3 23 -9 -4 -9 -2 -16 3 -16 6 0 10 6 10 14 0 7 9 16
19 19 18 4 18 2 8 -17 -7 -11 -16 -24 -22 -28 -6 -5 -6 -8 2 -8 7 0 16 7 21
15 7 13 14 14 36 5 16 -6 38 -7 50 -4 18 6 19 5 8 -9 -8 -9 -20 -13 -28 -10
-8 3 -14 -1 -14 -8 0 -10 -3 -10 -12 -1 -7 7 -17 12 -23 12 -5 0 -3 -4 4 -9
13 -8 12 -14 -3 -44 -11 -18 -16 -40 -13 -48 4 -10 6 -9 6 4 1 9 6 17 11 17
18 0 11 -20 -15 -44 -28 -26 -34 -59 -10 -50 8 4 15 12 15 19 0 6 12 25 26 41
24 27 26 23 8 -21 -4 -10 2 -18 17 -24 19 -8 20 -10 5 -10 -12 -1 -16 -6 -12
-17 3 -8 2 -12 -4 -9 -6 3 -10 1 -10 -5 0 -6 -4 -8 -10 -5 -5 3 -10 -1 -10
-10 0 -11 5 -15 14 -12 8 3 17 0 20 -8 3 -8 -1 -15 -9 -17 -11 -2 -10 -8 6
-28 14 -18 17 -20 12 -6 -5 15 -3 18 10 13 12 -5 17 -1 17 13 0 10 5 22 10 25
6 4 10 -7 10 -25 0 -26 2 -29 14 -18 7 7 11 20 9 28 -3 9 0 8 7 -3 6 -10 9
-25 6 -33 -3 -8 -1 -14 4 -14 6 0 10 -5 10 -11 0 -6 -7 -8 -17 -4 -15 5 -16 4
-5 -7 19 -18 47 18 31 39 -9 10 -5 13 21 13 29 0 32 2 26 24 -4 16 -1 26 9 30
8 3 15 11 15 18 0 11 -2 11 -8 0 -7 -9 -13 -8 -27 8 -14 16 -15 22 -5 35 9 11
9 15 1 15 -8 0 -10 8 -6 20 4 13 2 20 -7 21 -7 0 -5 4 6 8 17 7 17 8 2 23 -20
21 -21 32 0 24 8 -3 12 -2 9 4 -3 6 -2 10 3 10 5 0 9 13 9 30 0 24 -6 31 -33
40 -25 8 -31 15 -27 30 3 11 0 20 -6 20 -6 0 -10 -3 -9 -8 5 -24 -20 -47 -52
-49 -32 -3 -33 -2 -14 10 12 6 19 18 17 25 -3 6 0 12 6 12 6 0 11 -5 11 -11 0
-5 4 -7 10 -4 5 3 9 21 7 38 -1 21 2 31 11 30 6 -2 12 2 12 7 0 15 -28 12 -37
-4 -7 -12 -10 -12 -21 0 -11 12 -9 14 8 14 11 0 20 7 20 15 0 8 -5 15 -11 15
-6 0 -4 7 5 15 19 19 30 19 22 0 -3 -9 0 -15 8 -15 11 0 12 8 6 35 -5 21 -4
35 2 35 5 0 7 4 4 9 -3 4 1 16 8 27 16 21 10 44 -11 44 -9 0 -11 5 -6 13 13
22 12 37 -5 37 -12 0 -13 3 -5 11 14 14 42 -9 35 -29 -2 -8 2 -10 15 -5 10 3
15 3 11 -2 -4 -4 -1 -14 7 -22 8 -8 15 -24 15 -37 0 -12 6 -28 13 -35 8 -8 12
-61 13 -184 2 -224 9 -293 30 -314 17 -18 40 -72 36 -86 -1 -5 2 -6 8 -2 6 3
24 -7 41 -24 35 -36 64 -39 81 -11 7 11 17 20 22 20 6 0 22 12 38 27 15 14 30
24 34 21 9 -10 -15 -48 -30 -48 -21 0 -76 -68 -76 -93 0 -12 4 -29 10 -37 5
-9 5 -19 -2 -27 -6 -8 -8 -16 -5 -20 4 -3 2 -12 -4 -19 -6 -7 -6 -14 -1 -18 6
-3 16 1 23 10 10 13 10 17 -2 24 -10 7 -11 12 -2 21 17 17 31 3 26 -25 -4 -20
1 -27 36 -42 27 -12 41 -24 41 -37 0 -38 19 -57 59 -57 45 0 101 18 101 32 0
6 11 7 25 4 16 -4 25 -2 25 5 0 6 7 9 15 5 10 -3 15 1 15 12 1 28 44 74 63 66
9 -3 17 -12 17 -19 0 -6 14 -26 30 -43 17 -18 30 -39 30 -47 0 -8 5 -15 10
-15 6 0 10 -7 10 -15 0 -8 9 -24 20 -35 23 -23 27 -70 6 -70 -8 0 -18 5 -21
10 -8 13 -85 53 -91 47 -7 -7 36 -57 49 -57 7 0 25 -7 41 -15 16 -9 40 -16 53
-17 18 -2 23 -7 19 -22 -5 -20 18 -51 33 -42 5 3 12 -1 15 -10 5 -13 9 -14 21
-4 8 7 15 19 15 28 0 22 -67 142 -91 161 -10 9 -39 49 -64 90 l-46 75 23 20
c13 12 52 34 88 50 36 16 90 40 120 54 62 28 180 37 187 15 3 -7 11 -13 19
-13 8 0 14 -3 14 -7 0 -5 29 -21 65 -38 35 -16 64 -34 65 -38 1 -21 -43 -99
-58 -103 -9 -3 -26 -10 -37 -16 -18 -9 -17 -8 3 14 l23 25 -22 6 c-15 4 -23 1
-26 -14 -7 -25 -23 -25 -23 1 0 11 -5 20 -11 20 -6 0 -8 -7 -5 -16 6 -15 0
-16 -46 -11 -98 12 -228 20 -228 15 0 -3 37 -11 83 -18 113 -17 119 -18 147
-25 14 -3 34 -7 45 -9 11 -2 27 -7 36 -11 10 -3 20 -2 24 4 3 6 11 11 17 11 7
0 7 -5 -1 -14 -9 -11 -8 -14 6 -12 10 0 17 -4 16 -10 -1 -6 8 -9 21 -7 16 3
23 0 23 -11 0 -8 -3 -13 -7 -11 -3 2 -13 -5 -20 -15 -10 -14 -17 -16 -27 -8
-10 8 -13 5 -13 -16 0 -26 -13 -35 -25 -16 -3 6 -15 10 -25 10 -14 0 -18 -5
-13 -16 5 -13 8 -13 15 -2 7 9 8 8 4 -5 -3 -10 -6 -27 -6 -37 0 -31 -41 -30
-76 2 -17 16 -45 30 -64 33 -18 2 -38 9 -43 14 -6 6 -20 11 -32 11 -11 0 -40
16 -64 35 -55 44 -66 44 -41 2 31 -52 59 -73 145 -107 55 -23 93 -46 120 -74
22 -22 46 -40 53 -38 19 5 15 -64 -9 -129 -22 -61 -36 -70 -63 -43 -15 14 -14
18 6 46 28 41 37 128 14 147 -9 7 -16 12 -17 10 0 -2 -2 -22 -4 -43 -3 -22
-13 -49 -24 -59 -19 -19 -19 -19 -57 23 -21 24 -43 48 -49 55 -5 7 -18 15 -27
18 -21 7 -29 -21 -12 -48 7 -11 15 -30 19 -42 6 -21 3 -23 -23 -20 -29 3 -53
18 -123 74 -48 39 -52 40 -44 11 11 -42 -44 56 -62 107 -9 28 -30 68 -47 90
-17 22 -32 42 -33 44 -2 2 -6 2 -9 -2 -3 -3 12 -44 35 -90 23 -46 41 -89 41
-95 0 -6 11 -36 25 -67 52 -113 91 -349 64 -382 -8 -9 -8 -13 0 -13 18 0 13
-37 -6 -44 -14 -6 -15 -9 -4 -15 7 -5 14 -22 15 -38 2 -16 6 -35 10 -41 11
-18 -14 -153 -37 -200 -11 -23 -27 -42 -34 -42 -8 0 -11 -4 -8 -10 9 -15 -10
-12 -50 7 -33 16 -36 20 -31 48 4 16 10 31 14 33 4 1 6 20 4 42 -5 50 5 93 19
84 7 -4 9 1 4 15 -4 13 -2 21 5 21 6 0 9 4 5 9 -3 6 -8 47 -11 93 -6 107 -8
116 -23 131 -10 9 -11 9 -6 -4 3 -9 0 -23 -7 -30 -18 -20 -20 -36 -8 -59 7
-14 7 -20 0 -20 -5 0 -10 -11 -10 -25 0 -14 -4 -25 -10 -25 -5 0 -10 -13 -10
-29 0 -17 -4 -33 -10 -36 -6 -3 -10 -17 -10 -31 0 -13 -5 -24 -10 -24 -7 0 -8
-13 -4 -36 5 -29 4 -36 -7 -32 -8 3 -13 16 -11 29 1 13 2 45 2 70 0 26 5 60
11 75 30 78 -5 464 -42 464 -11 0 -12 5 7 -55 19 -62 23 -400 6 -431 -11 -18
-11 -17 -12 6 0 14 -8 34 -17 45 -12 16 -14 16 -10 3 3 -10 2 -20 -3 -23 -6
-4 -10 1 -10 9 0 8 -4 17 -9 20 -5 4 -7 -4 -3 -16 3 -15 2 -19 -7 -14 -6 4
-18 2 -26 -4 -11 -10 -15 -10 -15 -1 0 7 -5 9 -10 6 -6 -4 -8 -11 -5 -16 9
-13 -9 -11 -23 3 -9 9 -12 9 -12 -1 0 -8 -6 -11 -15 -7 -8 3 -14 0 -12 -6 1
-6 -4 -13 -10 -15 -7 -3 -14 4 -14 14 -1 14 -2 15 -6 2 -3 -11 -12 -15 -28
-11 -14 2 -25 0 -25 -5 0 -5 -7 -10 -15 -10 -8 0 -15 4 -15 9 0 4 -5 8 -11 8
-6 0 -9 -7 -5 -15 6 -16 -22 -35 -42 -28 -10 4 -10 8 -1 19 9 11 8 14 -4 14
-8 0 -18 -7 -21 -16 -9 -23 -7 -36 3 -29 5 3 12 1 16 -5 3 -5 0 -10 -7 -9 -20
2 -64 17 -52 18 7 1 15 8 18 17 5 13 4 14 -7 6 -7 -6 -22 -9 -34 -6 -11 3 -24
0 -28 -7 -6 -9 -2 -11 14 -6 15 3 21 1 18 -6 -2 -7 -11 -11 -20 -9 -19 3 -32
-14 -17 -23 6 -4 18 -1 26 6 11 9 18 9 26 1 8 -8 4 -14 -16 -22 -15 -5 -31
-10 -35 -10 -4 0 -18 -9 -31 -20 -18 -15 -27 -17 -42 -9 -14 8 -18 8 -14 0 7
-11 -45 -41 -109 -61 -22 -7 -43 -18 -47 -24 -5 -7 -8 -6 -8 3 0 11 -3 11 -16
0 -17 -14 -94 -19 -94 -6 0 4 -9 7 -20 7 -11 0 -19 -5 -18 -11 4 -14 -59 -47
-104 -54 -21 -3 -44 -12 -52 -20 -18 -18 -101 -30 -90 -13 5 7 3 8 -6 3 -7 -4
-30 -8 -52 -9 -22 -2 -43 -8 -48 -15 -4 -8 -14 -11 -21 -9 -8 3 -22 -4 -31
-15 -11 -12 -25 -18 -38 -14 -14 3 -20 1 -17 -6 5 -16 -145 -47 -155 -32 -5 6
-8 5 -8 -4 0 -7 -6 -11 -15 -7 -8 3 -15 1 -15 -4 0 -6 -19 -10 -42 -10 -24 -1
-60 -7 -81 -14 -21 -8 -46 -12 -56 -9 -10 2 -41 0 -69 -5 -33 -6 -54 -6 -61 1
-7 7 -15 6 -26 -3 -8 -7 -15 -8 -15 -3 0 5 -19 7 -42 4 -24 -2 -170 -4 -325
-3 -235 0 -288 3 -314 16 -17 9 -35 13 -40 10 -14 -8 -133 28 -145 44 -8 11
-15 12 -31 4 -14 -8 -23 -8 -30 -1 -6 6 -32 12 -57 13 -51 1 -54 3 -29 22 10
7 14 16 10 20 -4 5 -12 2 -17 -6 -6 -9 -10 -10 -10 -3 0 12 -24 12 -36 0 -11
-10 -24 -9 -24 3 0 6 7 10 15 10 8 0 15 5 15 10 0 6 8 11 18 11 9 1 4 5 -13 8
-16 4 -38 3 -48 -2 -10 -4 -26 -6 -34 -3 -13 5 -13 4 -4 -7 9 -12 6 -14 -21
-11 -18 2 -38 11 -44 19 -6 8 -23 15 -37 15 -14 0 -29 4 -32 10 -3 6 -17 10
-31 10 -13 0 -24 6 -24 13 0 8 -3 8 -9 -2 -6 -9 -16 -11 -27 -6 -20 8 -127 32
-184 40 -19 3 -54 12 -78 20 -23 8 -49 15 -57 15 -24 0 -18 13 26 55 22 22 49
55 61 73 11 18 55 68 97 110 42 42 87 97 100 122 l23 45 -32 -37 c-17 -21 -36
-38 -40 -38 -5 0 -58 -33 -117 -74 -260 -178 -611 -373 -745 -414 l-59 -19 40
-26 c50 -33 55 -47 7 -17 l-35 21 5 -33 c4 -24 0 -41 -18 -66 -13 -17 -63 -87
-112 -155 -49 -67 -107 -149 -129 -182 -53 -80 -49 -77 -85 -64 -23 8 -32 17
-32 34 0 19 -7 24 -47 30 -183 27 -288 185 -204 304 12 16 21 31 21 33 0 2
-64 -2 -142 -8 -79 -6 -146 -10 -150 -7 -5 2 -8 -4 -8 -14 -1 -15 -2 -16 -10
-3 -5 9 -10 28 -12 44 l-3 28 80 2 c145 3 250 73 320 212 40 80 42 184 6 258
-29 58 -72 109 -125 148 -60 43 -62 34 -8 -30 99 -116 129 -229 92 -345 -30
-92 -72 -145 -145 -182 -53 -26 -71 -30 -153 -31 -51 -1 -96 -4 -99 -8 -4 -4
-7 -25 -6 -46 2 -45 -2 -47 -36 -24 -29 21 -51 72 -51 119 0 31 -32 91 -61
115 -14 12 -34 59 -49 119 -16 62 -14 112 6 165 5 13 4 17 -4 12 -23 -14 -35
-114 -22 -185 15 -79 30 -111 81 -173 31 -37 39 -55 39 -88 0 -22 7 -54 15
-71 18 -34 16 -36 -55 -41 -45 -4 -46 -4 -124 76 -184 187 -418 482 -578 726
-694 1061 -947 2318 -727 3617 59 352 168 746 290 1045 58 144 213 462 289
593 217 376 450 677 774 1001 412 411 815 700 1321 945 548 265 1112 421 1730
478 150 14 774 5 935 -13z m2260 -1073 c0 -10 -14 -83 -31 -163 -47 -221 -79
-422 -73 -452 5 -27 -8 -39 -21 -18 -4 6 -31 26 -61 45 -55 35 -55 36 -34 53
11 9 27 39 35 66 l15 48 -33 30 c-45 43 -179 128 -200 128 -24 0 -56 -17 -89
-47 l-27 -26 -45 19 c-44 18 -62 44 -31 44 14 0 143 64 250 125 121 69 311
165 328 165 10 0 17 -7 17 -17z m407 -308 l28 -35 0 -178 0 -177 60 3 c73 4
206 30 220 43 18 18 32 9 74 -47 42 -56 43 -73 3 -74 -12 0 -125 -110 -290
-283 l-93 -98 -45 44 c-43 43 -47 57 -15 57 22 1 261 235 261 256 0 18 -6 18
-198 -2 -61 -7 -63 -6 -69 17 l-7 24 -7 -25 c-4 -16 -7 4 -8 53 -1 45 3 77 9
77 14 0 12 53 -2 69 -10 11 -10 13 0 7 15 -9 16 22 2 44 -8 12 -34 -10 -137
-115 l-126 -129 -46 26 c-41 22 -64 56 -35 51 14 -2 82 63 219 210 102 109
136 155 149 200 8 26 22 21 53 -18z m603 -637 c0 -7 15 -32 33 -55 17 -23 57
-77 87 -120 30 -43 59 -81 64 -84 12 -9 0 -26 -23 -32 -29 -7 -56 17 -69 62
-13 43 -56 101 -75 101 -18 0 -147 -91 -147 -103 0 -6 18 -41 40 -78 22 -37
40 -72 40 -78 0 -6 -19 -11 -44 -11 -43 0 -45 1 -62 45 -21 55 -41 69 -76 51
-48 -25 -138 -97 -138 -110 0 -19 56 -93 85 -112 36 -23 50 -51 34 -70 -17
-21 -47 -17 -60 9 -7 12 -15 24 -18 27 -9 7 -77 97 -121 159 -19 27 -39 47
-44 44 -5 -3 -7 0 -4 7 2 7 19 17 38 24 19 7 73 42 120 79 47 37 127 96 178
133 51 36 102 78 114 95 22 30 48 39 48 17z m330 -463 c0 -9 21 -52 47 -97 71
-121 75 -219 14 -271 -39 -33 -96 -40 -172 -23 -40 10 -68 12 -79 6 -10 -5
-32 -47 -50 -92 -17 -46 -36 -93 -41 -106 -5 -13 -9 -41 -9 -62 0 -33 -4 -40
-19 -40 -40 0 -63 116 -37 185 6 16 6 17 -3 5 -14 -19 -14 -11 0 29 9 25 14
30 21 19 7 -9 8 -7 3 8 -3 12 5 44 21 78 14 32 23 60 20 64 -10 9 -92 -38
-123 -70 -15 -16 -32 -28 -38 -28 -6 0 -30 26 -53 57 -46 62 -44 77 10 79 60
3 383 180 442 243 33 34 46 39 46 16z m289 -584 c30 -84 33 -79 -44 -96 -36
-8 -404 -172 -425 -190 -34 -28 -39 -26 -64 30 -14 30 -31 55 -37 55 -25 0 0
25 32 31 19 4 63 19 99 33 281 115 344 143 373 168 17 15 35 27 38 28 4 0 16
-26 28 -59z m29 -332 c63 -39 101 -72 128 -113 29 -44 73 -180 77 -240 2 -38
0 -41 -23 -41 -23 0 -26 5 -32 53 -9 78 -63 179 -115 216 -37 25 -52 30 -105
30 -81 0 -130 -17 -175 -62 -64 -66 -88 -151 -68 -241 5 -25 10 -30 17 -20 6
10 7 7 3 -9 -5 -18 1 -36 25 -68 34 -48 34 -74 -1 -74 -27 0 -66 41 -104 111
-28 50 -30 61 -30 161 0 58 -3 104 -7 102 -4 -3 -5 2 -2 10 3 9 9 14 14 11 9
-6 32 44 25 55 -8 13 72 98 109 117 54 28 79 33 154 29 52 -3 82 -11 110 -27z
m-153 -739 c55 -16 150 -44 210 -63 61 -19 139 -40 174 -48 35 -7 66 -20 69
-27 6 -16 -31 -53 -98 -97 -25 -16 -49 -35 -55 -41 -17 -18 -78 -60 -113 -78
-30 -15 -72 -45 -152 -106 -14 -11 -37 -29 -52 -40 -38 -29 -46 -25 -54 25 -3
25 -10 48 -15 51 -15 9 -10 20 9 21 26 2 110 52 126 75 14 19 15 19 26 1 9
-15 10 -13 5 12 -3 17 -12 71 -19 121 -7 49 -16 95 -20 102 -8 14 -128 52
-162 52 -19 0 -26 7 -31 30 -3 17 -10 33 -14 36 -5 3 -9 12 -9 20 0 12 5 12
38 -2 20 -9 82 -29 137 -44z m-921 -820 c0 -14 -3 -56 -7 -95 -3 -43 -2 -60 3
-45 5 17 8 -4 8 -65 -1 -71 -2 -82 -9 -50 -7 38 -7 37 -6 -15 2 -53 1 -55 -23
-52 -14 2 -26 5 -26 5 -1 1 -4 80 -6 175 l-4 173 36 -3 c30 -3 35 -6 34 -28z
m154 24 c24 -5 37 -19 68 -75 21 -39 53 -88 72 -109 30 -35 35 -38 48 -25 14
14 19 93 11 185 -2 22 2 25 33 25 29 0 35 -3 32 -20 -11 -84 -22 -210 -22
-262 0 -56 -2 -63 -20 -63 -13 0 -36 22 -65 62 -100 134 -135 159 -135 94 0
-19 -3 -42 -7 -52 -4 -11 -2 -15 4 -11 14 9 10 -80 -5 -95 -20 -20 -42 -1 -43
39 -3 200 -6 271 -13 291 -9 24 -6 25 42 16z m-837 -460 c63 -19 79 -30 79
-55 0 -27 -14 -30 -50 -13 -58 29 -139 0 -169 -60 -9 -20 -10 -31 -2 -39 14
-14 15 -71 1 -62 -17 11 -11 -9 15 -48 15 -22 37 -39 53 -43 15 -3 33 -7 40
-10 7 -2 23 1 37 6 22 9 25 15 25 64 0 30 5 58 10 61 17 11 49 -5 56 -27 5
-16 8 -18 15 -7 6 9 9 -7 9 -43 0 -60 -19 -83 -21 -25 -1 19 -3 24 -6 12 -2
-11 -6 -30 -9 -43 -6 -28 -57 -52 -112 -52 -48 0 -105 36 -149 94 -40 52 -44
109 -13 180 10 25 16 46 13 46 -14 0 44 53 72 66 39 17 41 17 106 -2z m474
-20 c54 -25 105 -117 105 -187 -1 -124 -106 -208 -222 -177 -50 14 -123 81
-139 127 -21 64 8 170 59 216 41 37 141 48 197 21z m318 -10 c80 -11 157 -96
157 -174 0 -60 -14 -95 -56 -137 -42 -41 -46 -43 -101 -42 -100 1 -95 -9 -95
180 0 90 1 167 1 172 1 9 33 9 94 1z m448 -4 c10 -6 19 -17 19 -25 0 -7 4 -15
9 -17 6 -1 12 -35 15 -73 3 -39 8 -79 12 -90 7 -17 8 -17 15 3 5 12 13 22 19
22 6 0 8 -4 5 -10 -3 -5 -1 -10 5 -10 7 0 10 6 7 14 -6 15 39 165 53 180 15
15 41 -14 34 -37 -4 -14 -3 -17 6 -12 10 6 11 1 6 -19 -4 -17 -2 -26 5 -26 8
0 10 -12 6 -33 -3 -18 1 -43 8 -57 l13 -23 7 24 c4 13 13 31 20 39 7 8 21 44
31 80 20 72 29 83 56 67 24 -15 23 -32 -7 -122 -15 -44 -23 -86 -20 -98 5 -17
4 -18 -4 -8 -8 12 -11 9 -16 -15 -15 -74 -29 -104 -46 -104 -10 0 -20 8 -22
18 -49 184 -57 189 -102 65 -25 -68 -34 -83 -51 -83 -14 0 -25 9 -32 28 -19
50 -102 313 -102 323 0 12 27 11 51 -1z m672 -7 c-13 -34 -38 -52 -78 -55
l-40 -3 2 -45 c2 -40 1 -41 -6 -15 l-9 30 -1 -30 c0 -17 4 -36 11 -43 14 -14
52 -16 43 -2 -4 6 5 10 20 10 24 0 26 -3 23 -32 -3 -32 -5 -33 -42 -30 -46 4
-56 -7 -56 -64 0 -51 12 -57 82 -44 28 6 54 8 57 5 3 -3 -7 -17 -21 -32 -25
-24 -30 -25 -92 -18 -52 5 -66 10 -66 23 0 9 -5 24 -11 32 -8 11 -9 7 -4 -17
4 -21 3 -33 -4 -33 -8 0 -11 59 -11 184 l0 185 53 4 c138 9 157 8 150 -10z
m-1655 -469 c15 -3 22 -11 20 -22 -2 -12 -15 -18 -46 -20 -23 -2 -42 -7 -42
-12 0 -4 -3 -17 -6 -27 -5 -15 -4 -15 5 -3 8 11 10 -21 10 -120 -1 -88 -4
-124 -9 -102 -11 45 -18 50 -17 11 2 -25 -3 -34 -17 -37 -10 -2 -22 2 -27 10
-5 7 -9 75 -9 151 l0 137 -50 0 c-49 0 -55 5 -45 32 4 11 28 13 108 10 56 -1
112 -5 125 -8z m244 -15 c42 -11 78 -50 78 -86 0 -13 -9 -42 -21 -65 -17 -33
-18 -42 -7 -49 11 -7 10 -11 -2 -18 -15 -11 -14 -13 57 -91 48 -52 42 -63 -20
-36 -18 7 -53 37 -78 66 -28 32 -51 50 -57 46 -15 -9 -16 -62 -2 -71 6 -3 10
-11 10 -17 0 -7 -6 -6 -15 2 -11 9 -15 10 -15 1 0 -7 -10 -11 -22 -9 -23 3
-23 5 -24 168 0 91 1 169 4 173 4 9 47 4 114 -14z m274 5 c19 -5 20 -12 19
-112 l-2 -107 6 90 c4 50 9 88 10 85 2 -3 4 -56 5 -118 1 -93 -1 -110 -11 -95
-18 23 -16 8 3 -28 13 -27 19 -30 47 -24 43 9 76 32 86 58 4 12 7 73 7 135 -1
63 2 116 7 119 4 3 19 2 33 -1 22 -6 24 -12 24 -59 0 -37 3 -48 10 -37 7 10 9
-17 8 -85 l-2 -100 -5 75 -6 75 -8 -47 c-4 -26 -7 -71 -6 -101 2 -56 -5 -79
-24 -76 -7 2 -42 -1 -78 -5 -77 -9 -96 -2 -136 50 -26 35 -27 41 -30 175 -2
145 -2 145 43 133z m862 0 l60 -7 -10 -28 c-8 -25 -14 -27 -50 -26 l-41 2 2
-110 c2 -60 -1 -106 -5 -102 -4 4 -7 29 -5 55 2 32 -1 44 -8 37 -6 -6 -12 -46
-13 -90 -3 -78 -4 -80 -28 -80 l-25 0 0 142 c0 89 -4 146 -11 153 -7 7 -24 8
-52 1 -47 -10 -53 -1 -26 37 13 19 24 22 83 22 37 0 95 -3 129 -6z m-346 -27
c13 -21 3 -32 -33 -35 -42 -4 -58 -17 -57 -45 1 -24 55 -87 74 -87 18 0 54
-54 54 -80 0 -24 -27 -81 -44 -92 -6 -4 -30 -8 -53 -8 -30 0 -49 7 -67 24 -26
23 -36 66 -16 66 6 0 10 -3 10 -8 0 -20 38 -30 79 -20 50 13 52 29 9 65 -35
30 -95 90 -115 116 -22 28 -13 66 26 111 13 15 25 17 71 12 30 -4 58 -12 62
-19z m-1388 -531 c20 -8 39 -26 47 -44 8 -20 18 -28 28 -24 11 4 13 1 7 -13
-4 -11 -4 -17 -1 -13 13 13 43 -32 61 -88 18 -62 22 -112 10 -132 -4 -7 -5
-16 -1 -22 7 -12 -35 -39 -71 -46 -24 -4 -26 -3 -14 11 10 12 10 15 -4 15 -9
0 -16 7 -16 15 0 23 -41 95 -51 89 -5 -3 -9 2 -9 10 0 9 4 16 9 16 4 0 8 18 8
39 0 26 -4 38 -12 35 -8 -3 -10 4 -7 24 4 28 2 29 -24 24 -23 -4 -26 -2 -21
12 5 12 3 16 -5 13 -7 -2 -12 -11 -12 -20 1 -13 -2 -14 -16 -7 -25 13 -30 13
-30 -5 0 -8 -7 -15 -15 -15 -8 0 -15 -4 -15 -10 0 -5 7 -10 15 -10 12 0 13 -4
4 -19 -14 -21 -5 -56 11 -46 6 4 8 16 4 28 -3 12 -3 19 1 15 5 -4 15 -2 23 5
13 11 14 9 1 -11 -10 -17 -11 -24 -2 -30 13 -8 2 -90 -14 -101 -5 -3 -12 -14
-16 -23 -3 -9 -28 -23 -54 -32 -62 -19 -140 -54 -148 -67 -4 -5 -23 -20 -43
-33 -21 -13 -49 -35 -64 -49 l-28 -26 -15 29 c-8 16 -15 51 -15 77 0 44 5 53
55 110 31 34 85 83 121 110 41 30 60 49 50 51 -28 6 -80 -27 -156 -98 -41 -38
-82 -70 -90 -70 -8 0 -21 9 -28 20 -11 19 -7 27 40 83 29 34 58 66 64 72 6 5
24 27 39 48 35 48 60 60 166 86 147 35 184 37 233 17z m-689 -216 c-4 -6 7
-15 24 -21 29 -10 31 -14 29 -54 -2 -24 -6 -41 -10 -39 -3 2 -12 -9 -20 -26
-7 -16 -18 -30 -24 -30 -6 0 -17 -6 -23 -14 -7 -8 -35 -20 -64 -26 -29 -7 -67
-18 -84 -26 -43 -17 -42 -2 4 38 81 72 86 78 73 93 -7 8 -9 15 -5 15 4 0 2 7
-5 15 -13 15 -7 45 9 45 5 0 11 -10 14 -22 5 -18 8 -19 22 -8 10 8 13 21 9 34
-5 17 -4 19 7 9 18 -17 32 -16 26 1 -5 12 2 20 21 25 2 1 0 -4 -3 -9z m105
-206 c0 -8 -4 -14 -10 -14 -5 0 -10 -6 -10 -13 0 -12 -68 -47 -93 -47 -6 0
-21 -7 -31 -15 -27 -20 -112 -20 -120 0 -7 20 25 40 130 79 86 33 134 36 134
10z m1629 -30 c2 -46 2 -46 -21 -30 -29 20 -72 21 -92 0 -14 -14 -14 -18 -1
-44 8 -16 24 -31 35 -35 11 -3 37 -21 57 -38 38 -32 38 -33 30 -80 -13 -66
-52 -99 -110 -91 -57 9 -84 27 -92 65 -12 52 28 65 50 17 6 -12 17 -24 25 -26
13 -5 13 -3 0 13 -14 17 -14 18 8 6 31 -17 84 -5 80 17 -2 10 -32 36 -68 60
-36 23 -73 52 -82 65 -28 35 -23 84 11 118 27 26 36 29 98 29 l69 0 3 -46z
m-1369 -595 c3 -4 14 -19 25 -34 44 -60 68 -85 93 -97 15 -7 28 -22 30 -33 3
-18 1 -17 -17 5 -24 29 -28 15 -5 -18 8 -12 19 -20 24 -17 14 9 41 -7 36 -21
-3 -8 -2 -14 2 -14 18 0 30 -60 20 -102 -11 -47 -28 -88 -37 -88 -3 0 -6 43
-6 95 0 62 -3 95 -10 95 -6 0 -21 17 -32 38 -12 20 -47 64 -77 97 -47 50 -56
56 -56 38 0 -13 -4 -23 -10 -23 -5 0 -9 17 -8 38 1 20 -2 46 -7 57 -8 19 -7
19 11 5 10 -8 21 -18 24 -21z m31 -113 c4 -15 14 -33 23 -39 14 -12 47 -115
47 -150 0 -9 3 -16 7 -13 12 7 14 -115 2 -129 -7 -8 -9 -19 -6 -24 8 -13 -20
-81 -33 -81 -6 0 -4 15 5 36 18 43 16 155 -3 162 -9 2 -12 -6 -9 -26 3 -30
-18 -104 -38 -133 -8 -12 -11 21 -12 140 0 86 -6 178 -12 205 -13 53 -8 90 11
83 6 -2 14 -16 18 -31z m979 -192 c22 -12 23 -13 5 -14 -16 0 -13 -6 19 -33
38 -33 39 -35 44 -115 3 -61 8 -82 20 -87 8 -3 18 -2 21 2 3 4 74 8 158 8 151
0 152 0 139 -20 -25 -38 -109 -94 -146 -97 -19 -2 -75 1 -123 6 -132 13 -135
-1 -28 -112 28 -29 51 -54 51 -56 0 -5 -34 -40 -52 -54 -15 -12 -37 7 -198
171 -109 111 -198 194 -225 208 -25 13 -45 27 -45 31 0 8 116 114 149 136 13
9 47 24 75 34 53 18 91 16 136 -8z m-537 -412 c15 -10 24 -22 20 -27 -5 -4 -1
-5 7 -3 20 7 70 -19 70 -36 0 -13 44 -32 63 -27 5 1 5 -4 1 -10 -5 -9 -2 -10
9 -6 10 4 16 2 14 -5 -1 -6 4 -13 12 -16 9 -3 11 0 6 8 -5 8 -3 11 4 9 7 -3
12 -9 12 -14 0 -6 17 -20 37 -32 40 -24 57 -29 47 -13 -3 6 1 7 10 3 13 -4 14
-8 4 -14 -8 -5 18 -22 74 -50 48 -24 87 -49 87 -56 0 -19 -30 -43 -53 -43 -12
0 -46 12 -76 25 l-55 26 -50 -35 c-28 -20 -76 -58 -106 -85 -44 -40 -53 -52
-42 -62 6 -7 12 -20 12 -28 0 -14 -2 -14 -11 -1 -9 12 -10 11 -6 -5 3 -11 11
-35 19 -53 12 -32 12 -35 -15 -58 -36 -31 -47 -30 -47 4 0 59 -95 511 -120
569 -21 50 20 70 73 35z m-493 -319 c1 -62 31 -121 197 -380 40 -64 48 -62
141 23 39 35 75 64 81 64 6 0 11 -11 11 -25 0 -14 5 -25 10 -25 6 0 10 -12 9
-27 0 -25 -1 -26 -9 -8 -7 16 -9 17 -9 3 -1 -24 -104 -99 -209 -152 -51 -26
-51 -26 -57 -5 -6 18 -60 119 -100 187 -5 10 -36 64 -68 120 -56 98 -131 187
-149 176 -15 -9 -8 13 8 27 29 24 108 67 127 68 14 1 17 -8 17 -46z m-4168
-52 c-7 -4 -17 -39 -22 -77 -9 -71 -30 -387 -30 -459 0 -63 -11 -73 -55 -52
-28 13 -35 22 -30 35 3 9 9 38 12 65 5 37 2 52 -12 67 -23 25 -179 110 -203
110 -9 0 -39 -18 -65 -39 -51 -42 -66 -43 -111 -8 l-28 23 49 32 c26 18 68 48
93 66 25 18 97 68 160 111 63 44 133 92 154 107 23 16 52 28 70 28 21 0 27 -3
18 -9z m3770 -121 c-4 -18 18 -119 35 -160 8 -19 13 -37 13 -39 -1 -2 3 -7 8
-10 5 -3 40 -64 77 -136 85 -163 81 -158 108 -135 12 10 52 43 88 74 71 60 89
67 89 37 0 -11 5 -23 10 -26 6 -3 9 -18 9 -33 -1 -18 -3 -21 -6 -9 -4 14 -8
12 -26 -15 -19 -28 -120 -89 -187 -113 -8 -3 -30 -14 -48 -25 -31 -19 -33 -19
-38 -2 -17 50 -39 101 -109 247 -108 226 -106 224 -143 256 -18 16 -30 34 -26
40 9 15 127 70 139 65 6 -2 9 -9 7 -16z m-3364 -29 c37 -16 80 -33 95 -37 18
-4 25 -9 17 -14 -9 -5 -6 -12 8 -22 41 -28 72 -98 72 -162 0 -56 -2 -61 -39
-97 -22 -20 -53 -40 -70 -44 -17 -3 -42 -16 -56 -27 -24 -19 -26 -26 -21 -63
4 -23 18 -73 32 -111 40 -108 39 -104 14 -104 -50 0 -103 101 -135 258 -13 64
-34 41 -100 -110 -13 -31 -21 -38 -44 -38 -15 0 -35 6 -44 13 -15 11 -15 15
-2 42 16 33 135 338 166 425 11 30 18 67 15 81 -9 48 3 49 92 10z m3036 -146
c32 -9 66 -20 75 -26 14 -9 14 -10 -1 -5 -10 3 -18 4 -18 3 0 -2 26 -31 59
-65 32 -35 71 -88 86 -119 24 -49 27 -65 23 -123 -12 -161 -118 -266 -289
-287 -73 -9 -148 18 -212 77 -95 87 -126 201 -92 344 21 90 60 142 131 177 86
41 147 47 238 24z m-2579 -19 c39 -14 125 -37 193 -52 118 -27 122 -28 122
-54 0 -26 -32 -70 -51 -70 -5 0 -32 12 -59 26 -29 15 -57 23 -68 20 -24 -8
-45 -63 -76 -197 -36 -156 -67 -274 -75 -288 -5 -8 -20 -10 -43 -6 -58 11 -64
18 -41 56 11 19 28 59 36 89 40 138 87 327 87 347 0 22 4 21 -143 49 -25 5
-28 9 -22 32 10 40 33 72 53 72 9 0 49 -11 87 -24z m687 -135 c20 -1 39 -4 42
-9 6 -10 -18 -64 -38 -84 -15 -16 -20 -15 -73 3 -31 10 -67 19 -79 19 -30 0
-51 -40 -59 -111 -3 -36 -2 -47 4 -34 8 18 9 17 12 -10 5 -34 25 -42 106 -44
28 -1 55 -5 58 -11 3 -5 -1 -10 -10 -10 -12 0 -15 -5 -11 -16 3 -8 1 -25 -5
-36 -9 -16 -17 -19 -42 -13 -92 19 -115 18 -130 -7 -20 -31 -40 -159 -26 -173
6 -6 9 -3 7 10 -4 31 12 116 21 110 5 -2 4 -26 -1 -51 -12 -55 -2 -67 52 -59
103 14 195 17 184 6 -6 -6 -30 -15 -55 -20 -40 -8 -41 -9 -11 -10 38 -1 40
-11 10 -45 l-23 -26 -125 15 c-183 23 -206 32 -167 69 20 18 27 44 46 166 12
80 29 186 37 236 13 82 13 93 -2 123 -12 24 -13 35 -5 40 6 4 64 -1 129 -10
64 -10 134 -18 154 -18z m1198 -1 c0 -5 7 -7 15 -3 9 3 15 1 13 -4 -2 -5 21
-29 51 -54 64 -52 118 -149 127 -226 12 -97 -56 -223 -148 -277 -45 -26 -134
-46 -203 -46 l-41 0 -13 93 c-20 147 -76 413 -98 466 -8 18 -12 36 -9 38 18
18 306 30 306 13z m-827 -36 c26 -3 54 -12 62 -20 8 -8 17 -15 20 -14 3 0 5
-3 6 -7 1 -5 9 -20 19 -34 34 -46 44 -129 24 -179 -8 -19 -30 -51 -48 -70 -18
-19 -36 -43 -39 -52 -7 -19 44 -90 120 -169 53 -55 45 -67 -31 -45 -58 17 -85
42 -163 146 -27 36 -53 64 -58 63 -13 -3 -19 -74 -7 -82 6 -3 11 -22 12 -41 3
-50 1 -57 -10 -40 -7 11 -10 8 -10 -16 0 -37 -15 -45 -65 -37 -31 5 -36 9 -31
27 2 12 6 136 7 276 3 182 0 261 -8 276 -7 12 -9 24 -5 28 6 7 98 2 205 -10z"/>
<path d="M5175 10230 c-39 -7 -39 -7 -7 -9 35 -1 40 -13 20 -56 -12 -26 -12
-26 -100 -19 -49 4 -88 3 -88 -2 0 -5 -3 -20 -5 -34 -5 -21 -4 -22 4 -5 7 17
10 15 16 -18 4 -21 5 -60 3 -88 l-5 -49 94 0 c92 0 94 -1 88 -21 -4 -12 -8
-27 -9 -33 -4 -30 -19 -36 -91 -36 -55 0 -74 -4 -79 -15 -7 -20 5 -145 14
-145 4 0 7 -7 6 -16 0 -9 5 -19 12 -21 9 -4 12 17 12 81 0 46 3 87 8 89 4 3
32 1 62 -4 69 -11 95 4 111 63 18 68 9 74 -107 70 l-99 -4 3 79 c2 43 7 81 11
85 4 5 33 1 65 -7 32 -9 67 -13 78 -10 23 8 60 79 56 108 -3 25 -16 27 -73 17z"/>
<path d="M5668 10228 c7 -7 12 -30 12 -51 0 -36 -2 -39 -22 -34 -95 23 -135
16 -164 -28 -13 -21 -14 -28 -3 -41 7 -8 13 -26 14 -39 1 -27 12 -37 95 -91
30 -20 62 -44 70 -53 100 -108 -3 -286 -163 -283 -83 2 -93 11 -100 97 -3 28
-4 22 -5 -21 -2 -76 11 -91 94 -102 147 -20 264 51 280 169 9 71 -25 124 -111
176 -116 70 -153 121 -125 174 11 20 17 21 90 15 72 -7 80 -6 89 13 26 48 6
111 -36 111 -21 0 -24 -3 -15 -12z"/>
<path d="M4700 10180 c-23 -7 -23 -8 -3 -9 12 -1 24 -7 26 -13 4 -10 8 -9 16
2 8 12 11 5 11 -27 0 -47 -19 -61 -21 -15 l-1 27 -7 -25 c-6 -23 -12 -25 -66
-26 -33 0 -72 -3 -87 -7 -31 -8 -35 -28 -18 -100 5 -23 19 -95 31 -160 12 -65
23 -116 26 -113 3 2 -9 80 -26 172 -18 91 -30 169 -27 171 7 7 13 -20 51 -222
19 -104 37 -201 40 -213 4 -15 2 -21 -5 -17 -5 3 -13 24 -16 46 -4 22 -11 42
-16 45 -6 4 -8 -1 -4 -12 10 -35 26 -109 26 -126 0 -19 -47 -48 -78 -48 -17 0
-20 10 -26 71 -4 39 -10 69 -12 66 -3 -3 -2 -42 2 -86 7 -91 2 -87 100 -70 75
13 92 28 75 66 -16 35 -100 484 -94 500 6 16 32 16 93 2 41 -9 46 -8 63 12 13
16 17 36 15 68 -3 50 -17 58 -68 41z"/>
<path d="M6690 10050 c56 -35 79 -61 118 -130 35 -62 37 -70 36 -150 -1 -73
-6 -94 -32 -145 -55 -111 -149 -174 -259 -175 -196 0 -353 178 -323 366 9 53
40 125 68 157 8 9 13 20 10 22 -3 3 -20 -17 -38 -45 -135 -210 -10 -492 238
-540 249 -47 470 252 364 493 -32 72 -110 138 -192 161 -20 6 -17 3 10 -14z"/>
<path d="M6488 9991 c-76 -30 -108 -59 -141 -128 -25 -55 -29 -73 -24 -118 6
-62 36 -125 73 -154 33 -26 116 -51 163 -50 26 1 29 3 11 6 -104 16 -147 39
-175 93 -21 42 -27 106 -15 164 14 66 72 139 126 156 77 26 166 -7 200 -72 9
-17 22 -62 30 -102 l14 -71 -5 73 c-3 40 -11 88 -19 106 -20 47 -73 93 -122
105 -55 14 -60 14 -116 -8z"/>
<path d="M3883 9989 c-17 -6 -22 -21 -32 -104 -7 -53 -11 -99 -8 -101 3 -3 8
23 12 58 9 82 25 138 40 138 7 0 32 -24 56 -52 24 -29 75 -87 114 -129 38 -41
102 -113 140 -158 39 -46 87 -98 108 -116 l38 -33 -23 -16 c-12 -9 -37 -16
-54 -16 -26 0 -39 9 -78 60 -57 72 -66 73 -187 29 -122 -44 -125 -47 -133
-121 -10 -92 -15 -104 -42 -117 -42 -19 -54 -14 -55 22 l-1 32 -8 -30 c-12
-48 -11 -75 4 -81 8 -3 47 8 87 24 l74 29 0 79 c0 43 3 84 8 91 10 16 174 74
191 67 18 -7 80 -81 89 -106 8 -22 23 -22 100 -2 106 27 117 44 52 83 -18 10
-68 61 -111 112 -121 143 -323 356 -342 361 -10 3 -27 2 -39 -3z"/>
<path d="M7198 9865 c51 -24 108 -50 128 -57 19 -7 42 -20 51 -30 14 -16 14
-20 -1 -43 -20 -30 -45 -27 -86 10 -35 32 -68 47 -88 41 -23 -8 -78 -136 -62
-146 6 -4 11 -11 9 -16 -1 -5 28 -24 66 -42 l67 -33 -18 -22 c-39 -47 -43 -48
-93 -22 -79 43 -75 46 -156 -142 -16 -38 -22 -43 -51 -43 -39 0 -64 9 -64 22
0 6 14 39 31 75 17 35 29 67 26 69 -2 3 -10 -10 -18 -28 -7 -18 -23 -50 -36
-70 -35 -56 -30 -71 30 -101 95 -49 107 -40 157 113 17 52 33 96 35 98 2 2 24
-10 49 -27 24 -17 52 -31 60 -31 23 0 96 69 96 91 0 12 -11 23 -27 30 -72 27
-113 52 -113 69 0 10 5 41 12 69 14 64 30 65 93 11 25 -22 53 -40 61 -40 8 0
33 17 56 38 48 46 46 64 -9 82 -21 7 -91 37 -155 67 -65 29 -123 53 -130 53
-7 -1 29 -21 80 -45z"/>
<path d="M3544 9820 c-9 -53 -18 -62 -96 -94 -46 -19 -68 -34 -68 -45 0 -15
187 -395 220 -448 17 -26 10 -36 -42 -57 l-37 -16 -9 33 c-5 17 -57 124 -115
237 -120 234 -116 231 -208 166 -55 -40 -64 -43 -73 -20 -10 25 -7 42 10 58
17 17 8 21 -15 7 -18 -12 -6 -120 15 -128 8 -3 33 12 59 36 52 48 91 69 105
55 5 -5 54 -98 109 -207 68 -133 101 -209 101 -231 0 -58 20 -62 99 -21 76 40
86 58 50 91 -12 10 -67 110 -122 222 -82 163 -99 206 -91 220 6 9 42 26 79 37
38 12 73 28 78 36 6 9 7 36 3 62 -6 37 -11 47 -26 47 -15 0 -21 -9 -26 -40z"/>
<path d="M4926 9644 c-4 -42 -3 -80 1 -85 10 -10 278 8 320 22 26 8 35 18 43
50 23 85 -11 103 -42 22 l-19 -51 -62 -6 c-34 -3 -101 -8 -149 -11 l-87 -5 6
70 c3 38 4 70 1 70 -3 0 -8 -34 -12 -76z"/>
<path d="M2755 9413 c-20 -30 -25 -50 -25 -96 0 -124 79 -192 237 -203 112 -7
140 -13 158 -30 13 -14 15 -14 15 0 0 33 -48 54 -138 61 -133 9 -165 20 -217
76 -42 45 -45 52 -45 101 0 41 6 62 25 91 14 20 23 37 21 37 -3 0 -17 -17 -31
-37z"/>
<path d="M3103 9246 c90 -24 128 -89 112 -187 -13 -74 -112 -158 -187 -159
-32 0 -63 39 -55 70 3 13 0 20 -9 20 -42 0 14 -123 58 -128 65 -8 182 51 218
110 72 117 35 238 -83 273 -28 8 -62 15 -76 14 -18 0 -10 -5 22 -13z"/>
<path d="M4632 8990 c-124 -52 -175 -92 -276 -214 -46 -56 -136 -149 -201
-206 -131 -117 -229 -230 -300 -347 -27 -43 -90 -141 -140 -218 -138 -210
-235 -380 -261 -454 -12 -36 -26 -102 -29 -146 -3 -44 -20 -128 -37 -186 l-31
-107 -92 -101 c-88 -97 -187 -242 -272 -399 -40 -73 -98 -162 -151 -232 -19
-25 -50 -76 -68 -115 -55 -112 -45 -235 22 -282 38 -27 66 -32 198 -37 140 -6
162 -19 159 -94 -1 -28 -16 -92 -33 -144 -40 -121 -45 -163 -26 -217 l16 -43
-30 -34 c-40 -46 -46 -77 -26 -134 9 -26 20 -79 23 -119 3 -40 9 -67 13 -60 6
8 11 5 19 -10 29 -54 40 13 20 126 -8 47 -18 71 -37 88 -18 17 -23 27 -15 37
5 7 17 34 27 60 19 53 39 74 58 61 22 -14 100 -32 171 -39 l67 -7 1 -36 c0
-20 3 -54 8 -76 6 -36 8 -37 13 -15 4 14 10 54 13 90 l7 66 -38 1 c-72 2 -149
15 -164 28 -8 7 -28 15 -43 19 -16 4 -40 19 -53 33 -22 23 -24 34 -20 75 3 27
15 83 27 126 26 98 26 168 -1 226 -11 25 -20 47 -20 50 0 4 23 6 50 6 57 0
112 -24 149 -64 32 -34 83 -35 115 -3 30 30 50 115 41 173 -5 36 -16 56 -52
92 -26 26 -44 39 -40 30 4 -11 -1 -23 -16 -33 -12 -9 -21 -26 -22 -42 0 -16
-5 -35 -10 -43 -5 -8 -10 -22 -10 -30 0 -20 -45 -18 -151 4 -76 16 -85 16
-138 1 -32 -9 -60 -15 -62 -12 -3 3 -21 1 -42 -4 -23 -5 -41 -4 -49 3 -10 8
-13 6 -13 -8 0 -12 -3 -15 -8 -8 -4 7 -18 14 -32 15 -21 3 -25 9 -23 34 5 105
8 135 14 135 4 0 10 11 13 24 3 13 34 71 67 128 34 56 76 130 94 163 60 112
105 190 144 250 30 47 187 232 217 257 12 10 25 30 28 45 23 99 51 173 68 179
16 5 17 8 6 21 -10 13 -10 17 0 20 6 3 12 13 12 24 0 11 7 22 15 25 8 4 13 10
10 14 -3 5 -1 11 5 15 6 4 10 -4 10 -19 0 -14 5 -28 10 -31 8 -5 7 -11 -1 -21
-6 -8 -8 -14 -3 -14 5 0 0 -7 -10 -15 -19 -14 -19 -15 -1 -35 10 -11 23 -20
30 -20 19 0 48 -37 39 -51 -5 -8 -2 -11 7 -7 11 4 14 -5 13 -46 0 -28 4 -54
10 -58 8 -6 7 -8 -1 -8 -6 0 -15 5 -18 11 -5 6 -13 2 -23 -12 -12 -17 -13 -24
-3 -27 8 -3 9 -8 1 -17 -6 -7 -10 -17 -9 -21 4 -22 -2 -34 -16 -34 -8 0 -15
-4 -15 -10 0 -5 -12 -13 -26 -16 -14 -4 -22 -9 -16 -13 14 -9 10 -41 -6 -41
-8 0 -12 6 -8 15 3 8 1 15 -4 15 -10 0 -14 -14 -11 -39 2 -7 -2 -11 -7 -7 -5
3 -9 0 -10 -7 -6 -55 -10 -75 -16 -85 -4 -7 -1 -15 8 -18 11 -4 13 -12 6 -29
-10 -26 6 -47 20 -25 5 8 11 1 19 -21 13 -39 15 -81 2 -61 -6 10 -10 9 -14 -8
-4 -17 -2 -20 12 -15 10 3 24 -1 31 -10 11 -13 10 -18 -6 -30 -10 -8 -14 -15
-7 -15 6 0 15 -10 18 -21 4 -12 10 -17 14 -12 3 6 16 13 28 17 15 5 24 18 29
41 3 19 10 32 15 29 5 -3 9 2 9 10 0 19 -14 21 -32 4 -13 -13 -58 -22 -58 -13
0 2 9 21 20 41 16 28 18 39 9 50 -7 8 -9 17 -5 21 3 3 6 1 6 -5 0 -7 5 -12 10
-12 6 0 10 5 10 11 0 21 54 98 76 107 16 8 55 67 59 92 1 3 5 15 9 28 9 28 2
39 -16 25 -16 -13 -78 -5 -78 10 0 5 -8 16 -17 24 -16 13 -16 14 -1 9 9 -3 19
2 22 10 9 22 7 26 -5 19 -6 -4 -5 2 3 14 9 16 10 27 2 49 -11 28 -4 57 16 72
3 3 9 13 13 23 7 18 46 38 59 31 4 -3 19 -26 33 -52 16 -30 46 -62 82 -87 55
-40 82 -64 157 -144 52 -55 121 -101 152 -101 l25 0 -28 26 c-29 27 -28 27 20
55 9 5 17 16 17 24 0 18 20 20 21 3 0 -7 5 -2 11 12 9 21 12 22 15 7 3 -11 11
-16 19 -13 8 3 14 1 14 -4 0 -16 14 -11 27 9 10 16 8 18 -12 15 -14 -1 -22 3
-20 9 2 7 6 23 9 37 3 17 13 26 27 27 l21 2 -21 -23 c-25 -26 -30 -56 -5 -32
8 9 20 13 26 10 7 -5 8 4 4 27 -4 19 -7 42 -7 52 0 13 -5 17 -15 13 -9 -3 -18
-6 -20 -6 -3 0 -2 -4 1 -10 3 -6 2 -10 -3 -10 -19 0 -21 14 -6 31 15 16 15 19
2 24 -10 4 -13 15 -10 32 3 18 1 24 -7 19 -7 -5 -11 1 -11 16 0 17 3 19 9 10
6 -10 10 -7 15 12 3 14 13 26 22 26 8 0 12 -4 9 -10 -11 -18 -14 -70 -4 -70 6
0 8 -4 5 -9 -4 -5 0 -12 6 -14 10 -4 10 -6 1 -6 -15 -1 -18 -21 -4 -21 18 0
22 39 7 62 -17 28 -5 71 18 62 8 -3 17 0 22 7 4 7 3 10 -3 6 -6 -4 -24 -1 -40
5 -28 10 -30 14 -22 41 5 16 6 34 3 38 -3 5 0 9 6 9 7 0 10 7 6 15 -3 8 -2 14
2 14 21 -3 24 3 6 15 -15 12 -17 17 -6 27 10 11 12 10 12 -4 0 -9 7 -17 16
-17 10 0 14 -6 11 -15 -4 -8 -2 -17 2 -20 5 -2 11 6 13 20 3 15 1 25 -6 25 -6
0 -12 12 -13 27 -1 27 -1 27 14 8 14 -19 15 -17 8 25 -5 25 -8 56 -7 70 l0 24
-19 -24 c-10 -14 -19 -19 -19 -12 0 16 24 42 39 42 6 0 11 8 11 18 0 14 -2 15
-10 2 -9 -13 -11 -13 -20 0 -13 20 -12 39 1 20 8 -12 9 -10 4 7 -5 17 -1 22
17 25 17 2 24 11 26 31 2 15 8 27 13 27 5 0 9 12 8 28 -1 25 -2 23 -15 -17 -3
-11 -7 -11 -19 -1 -9 8 -15 8 -15 2 0 -6 4 -12 9 -14 11 -4 -5 -48 -19 -48 -5
0 -10 5 -10 10 0 6 4 10 10 10 5 0 7 7 3 17 -5 14 -8 13 -15 -6 -4 -13 -6 -27
-3 -32 3 -4 -6 -11 -20 -15 -13 -3 -22 -10 -19 -15 7 -12 -20 -39 -40 -39 -14
0 -76 -81 -76 -101 0 -5 -7 -9 -15 -9 -9 0 -15 -9 -15 -21 0 -12 -8 -23 -20
-26 -20 -5 -29 -33 -10 -33 6 0 10 6 10 13 0 8 4 7 10 -3 13 -20 13 -33 0 -25
-6 4 -13 -7 -16 -25 -4 -17 -15 -35 -26 -41 -22 -12 -15 -31 10 -22 16 5 16 4
1 -11 -19 -21 -14 -67 7 -59 16 6 20 -22 4 -32 -17 -11 -11 -25 8 -18 16 7 16
6 0 -11 -23 -22 -23 -26 3 -26 13 0 18 4 13 12 -4 6 -3 8 3 5 12 -8 4 -77 -10
-77 -7 0 -7 -4 1 -12 10 -10 15 -10 21 0 6 11 10 10 15 -4 3 -9 4 -19 1 -22
-3 -3 -5 1 -5 9 0 11 -2 11 -10 -1 -10 -16 -32 -20 -40 -8 -3 3 -17 8 -30 10
-14 2 -29 6 -35 10 -5 3 -24 9 -42 12 -17 4 -37 14 -43 22 -7 7 -16 12 -20 9
-5 -3 -19 8 -33 25 -16 18 -27 25 -30 17 -5 -16 -31 10 -39 41 -10 36 13 36
75 2 43 -23 57 -27 57 -16 0 8 -9 18 -20 21 -11 3 -20 10 -20 15 0 5 -18 20
-40 33 -40 24 -43 37 -8 37 24 0 23 17 -1 25 -10 3 -29 14 -41 25 -13 11 -31
20 -42 20 -11 0 -18 7 -18 18 0 24 -64 42 -163 45 l-78 2 5 30 c7 40 14 123 9
108 -3 -7 -9 -13 -15 -13 -10 0 -1 61 11 70 8 6 24 40 25 55 1 6 13 28 27 50
24 37 79 148 79 159 0 2 22 40 49 83 28 43 76 121 107 173 32 52 66 104 76
116 10 11 18 23 18 27 0 12 126 173 155 197 56 47 209 185 235 212 14 15 56
65 92 111 63 81 143 146 205 168 48 16 149 68 133 68 -8 -1 -57 -18 -108 -39z"/>
<path d="M5536 9012 c-16 -7 -11 -10 25 -20 24 -6 65 -13 92 -16 60 -7 163
-55 220 -103 57 -49 101 -74 154 -88 37 -10 41 -10 31 2 -6 8 -25 20 -42 27
-17 7 -49 30 -71 51 -69 64 -112 90 -218 134 -37 15 -166 23 -191 13z"/>
<path d="M5574 8961 c3 -4 31 -16 63 -26 69 -22 113 -46 176 -98 86 -71 134
-103 172 -113 86 -23 99 -11 25 24 -27 13 -91 55 -142 94 -72 55 -110 76 -178
99 -86 29 -126 36 -116 20z"/>
<path d="M2385 8853 c130 -73 179 -243 116 -404 -15 -40 -40 -74 -88 -122 -37
-37 -72 -67 -78 -67 -5 0 -21 16 -35 36 -30 42 -322 310 -367 337 -18 10 -33
23 -33 27 0 9 1 10 80 96 44 48 40 45 -23 -16 -85 -82 -93 -105 -42 -129 43
-20 64 -37 223 -184 79 -73 155 -151 169 -174 14 -24 32 -43 41 -43 9 0 56 40
104 89 113 114 132 154 132 276 1 79 -3 98 -28 148 -36 75 -103 126 -196 151
-14 4 -3 -6 25 -21z"/>
<path d="M2157 8799 c-58 -9 -127 -51 -127 -78 0 -28 321 -331 351 -331 4 0
-39 44 -95 98 -171 164 -218 219 -207 241 17 30 65 44 127 37 100 -12 176 -62
210 -141 7 -16 13 -23 14 -15 0 33 -61 119 -105 149 -56 38 -105 49 -168 40z"/>
<path d="M5435 8655 c-16 -8 -23 -13 -14 -11 33 9 171 -23 210 -48 36 -24 131
-146 149 -192 8 -21 74 -65 118 -79 33 -10 120 4 101 16 -8 5 -27 9 -44 9 -16
0 -41 7 -55 15 -14 8 -36 20 -50 27 -52 27 -78 50 -84 74 -4 13 -11 24 -17 24
-6 0 -7 4 -4 10 10 15 -62 102 -111 134 -54 35 -151 46 -199 21z"/>
<path d="M5520 8599 c0 -5 14 -18 32 -27 50 -27 105 -86 143 -154 54 -99 111
-146 170 -139 5 1 -7 12 -27 26 -20 13 -53 53 -74 87 -45 77 -111 165 -127
171 -96 39 -117 45 -117 36z"/>
<path d="M6560 8540 c0 -6 10 -21 23 -33 62 -59 106 -97 152 -131 93 -70 185
-171 185 -204 0 -5 8 -17 19 -26 18 -16 18 -16 13 11 -3 15 -8 30 -12 33 -3 3
-25 32 -47 65 -48 70 -83 108 -176 189 -113 99 -157 126 -157 96z"/>
<path d="M6777 8512 c9 -15 31 -43 48 -62 45 -50 124 -188 125 -218 0 -19 31
-83 50 -103 30 -32 50 -63 50 -76 0 -7 13 -19 29 -28 16 -8 31 -18 33 -22 1
-5 26 -19 55 -32 28 -13 71 -42 95 -66 56 -54 118 -100 118 -88 0 17 -102 107
-160 142 -69 42 -211 211 -246 294 -33 79 -79 151 -137 219 -54 63 -89 86 -60
40z"/>
<path d="M5560 8404 c16 -26 30 -55 30 -63 0 -37 51 -120 107 -177 61 -62 111
-85 180 -83 24 1 23 2 -12 11 -22 6 -63 26 -92 45 -52 34 -118 101 -110 110 3
2 20 0 38 -6 19 -5 26 -10 17 -10 -34 -2 -27 -20 23 -51 70 -45 159 -65 219
-49 60 16 72 29 29 30 -18 1 -37 1 -41 0 -4 0 -38 9 -75 21 -37 12 -70 22 -73
23 -18 4 -70 37 -70 45 0 5 -7 7 -15 4 -8 -4 -15 -1 -15 5 0 6 -13 11 -29 11
-33 0 -35 2 -45 44 -6 23 -4 27 8 23 10 -4 13 -1 10 8 -3 8 -12 11 -19 9 -8
-3 -26 13 -44 40 -42 61 -59 69 -21 10z"/>
<path d="M1558 8274 c-16 -16 -7 -51 15 -62 55 -26 404 -301 432 -339 16 -23
36 -44 42 -47 15 -6 40 20 141 149 103 131 104 134 86 172 -22 44 -67 85 -87
78 -15 -6 -38 -56 -36 -79 0 -6 6 4 13 23 7 19 17 36 22 38 12 4 49 -63 47
-87 -2 -21 -90 -146 -147 -208 l-40 -43 -45 45 c-45 42 -299 241 -386 301 -24
17 -45 38 -47 48 -2 11 -6 15 -10 11z"/>
<path d="M5550 8117 c0 -37 29 -106 60 -141 42 -48 170 -98 170 -66 0 6 -10
10 -22 10 -30 0 -99 43 -124 77 -38 52 -38 57 3 25 48 -39 130 -72 179 -72 43
0 37 15 -14 30 -76 23 -118 46 -163 90 -25 25 -49 52 -52 60 -4 11 -6 10 -7
-5 -1 -20 -1 -20 -15 -1 -14 19 -15 19 -15 -7z"/>
<path d="M6152 8059 c-68 -14 -48 -24 68 -33 67 -5 131 -30 163 -63 10 -10 56
-60 103 -110 96 -103 88 -99 244 -107 l95 -5 -55 16 c-199 56 -187 50 -258
120 -90 87 -138 126 -191 153 -52 26 -124 39 -169 29z"/>
<path d="M1343 7802 c-6 -4 -22 -32 -36 -63 -30 -67 -41 -76 -61 -48 -11 16
-12 28 -5 48 9 24 8 25 -6 7 -22 -28 -19 -47 13 -86 38 -45 55 -36 82 45 12
37 27 68 34 71 6 2 91 -41 188 -96 125 -72 189 -115 222 -150 58 -61 67 -58
125 38 45 75 50 92 23 92 -10 0 -24 -15 -34 -37 -9 -21 -29 -53 -45 -71 l-28
-33 -45 43 c-44 42 -102 78 -311 194 -106 59 -99 57 -116 46z"/>
<path d="M6023 7663 c-25 -5 -31 -21 -10 -28 6 -2 55 -6 107 -9 173 -9 288
-68 375 -189 66 -92 117 -137 156 -137 9 0 45 -13 80 -29 71 -33 159 -50 159
-32 0 6 -10 11 -22 11 -13 1 -34 7 -47 14 -14 8 -30 12 -37 9 -7 -2 -15 0 -19
6 -3 6 -15 11 -26 11 -10 0 -19 5 -19 11 0 6 -9 8 -20 4 -12 -4 -20 -2 -20 5
0 6 -4 9 -9 6 -12 -8 -33 19 -23 30 4 4 0 3 -9 -4 -13 -10 -23 -6 -56 23 -23
19 -53 55 -67 79 -26 45 -140 156 -160 156 -6 0 -24 7 -40 15 -38 20 -95 33
-177 40 -35 3 -71 7 -79 9 -8 2 -25 1 -37 -1z"/>
<path d="M7203 7628 c2 -7 10 -12 17 -10 7 2 9 -5 5 -19 -6 -18 -4 -20 15 -14
15 5 20 4 16 -4 -5 -7 -1 -9 8 -5 12 5 16 0 16 -20 0 -19 4 -24 16 -19 11 4
15 2 12 -8 -2 -7 9 -27 26 -44 17 -17 38 -44 46 -61 8 -16 29 -46 47 -67 17
-22 29 -45 26 -53 -3 -8 0 -14 6 -14 6 0 11 -9 11 -20 0 -11 3 -19 8 -19 21 4
32 -3 32 -18 0 -9 11 -31 25 -49 14 -18 26 -41 28 -51 2 -10 8 -27 14 -39 14
-25 14 -82 0 -91 -6 -3 -7 -1 -3 5 6 11 -19 42 -35 42 -13 0 -12 -4 12 -44 21
-37 33 -44 44 -26 12 19 37 -4 66 -61 16 -33 33 -59 38 -59 29 0 -151 428
-211 504 -71 89 -190 211 -222 228 -11 6 -27 19 -34 30 -15 20 -36 25 -29 6z"/>
<path d="M6836 7464 c68 -53 94 -79 94 -94 0 -16 -19 -12 -49 10 -15 10 -54
29 -86 41 -32 12 -72 30 -89 40 -41 24 -62 13 -45 -25 12 -26 84 -77 130 -91
13 -4 29 -12 36 -17 7 -5 17 -7 23 -3 6 4 19 0 28 -8 9 -7 26 -17 36 -21 15
-5 17 -4 7 7 -6 8 -46 29 -89 48 -42 18 -93 44 -112 58 -19 14 -37 26 -39 28
-2 2 -1 6 2 10 4 3 15 -1 25 -10 10 -9 62 -34 114 -56 88 -36 97 -37 112 -23
15 15 16 15 16 -1 0 -10 4 -15 10 -12 5 3 23 -8 40 -25 31 -32 38 -30 17 6
-32 56 -104 119 -184 162 -64 33 -63 27 3 -24z"/>
<path d="M1085 7449 c-17 -33 -8 -59 22 -59 8 0 60 -20 116 -44 311 -134 365
-159 399 -183 29 -20 41 -23 52 -14 20 17 68 130 62 147 -8 20 -46 18 -46 -3
0 -23 -17 -84 -29 -102 -7 -10 -25 -5 -92 27 -114 54 -434 192 -447 192 -21 0
-34 28 -22 49 6 12 8 21 6 21 -3 0 -13 -14 -21 -31z"/>
<path d="M5353 7425 c13 -49 16 -62 22 -100 8 -56 24 -113 33 -117 4 -2 27
-28 52 -58 46 -57 79 -87 93 -82 4 1 7 -2 7 -8 0 -6 5 -10 10 -10 6 0 -10 25
-34 55 -62 75 -91 128 -115 210 -11 39 -33 84 -47 100 -20 23 -25 25 -21 10z"/>
<path d="M7094 7396 c-4 -18 1 -39 21 -72 15 -25 24 -51 21 -59 -3 -8 6 -17
24 -23 16 -6 33 -19 39 -30 12 -23 115 -67 131 -57 6 4 19 0 28 -8 9 -8 28
-18 42 -22 25 -8 25 -7 6 13 -10 12 -49 30 -86 42 -37 12 -78 31 -90 43 -26
27 -92 128 -87 134 2 2 23 -22 47 -52 46 -62 68 -68 28 -8 -23 35 -42 56 -97
107 -20 18 -20 18 -27 -8z"/>
<path d="M5170 7260 c0 -5 15 -17 33 -25 49 -23 96 -59 97 -72 0 -20 -28 -15
-40 7 -6 11 -15 18 -20 15 -5 -3 5 -20 21 -37 16 -18 32 -42 35 -53 10 -30 86
-123 107 -128 17 -5 17 -4 1 21 -9 15 -25 36 -34 47 -23 26 -62 96 -57 101 2
3 12 -7 21 -21 45 -69 128 -143 194 -173 61 -28 79 -31 204 -36 144 -6 211
-17 259 -42 16 -8 29 -16 29 -17 0 -2 -45 -2 -100 -2 -55 1 -100 -1 -100 -6 0
-12 70 -19 135 -14 88 8 86 8 135 -5 25 -6 63 -9 85 -5 22 3 45 6 52 7 16 2 6
17 -29 46 -16 13 -28 34 -28 47 0 13 -10 29 -25 39 -23 15 -25 15 -25 1 0 -9
-4 -14 -9 -10 -17 10 -21 -12 -6 -25 22 -18 18 -32 -5 -20 -14 8 -20 8 -20 0
0 -6 -5 -8 -12 -3 -7 4 -17 8 -23 9 -5 2 -35 8 -65 15 -32 8 -121 14 -215 14
-135 0 -164 3 -185 18 -13 9 -34 17 -45 17 -31 0 -110 75 -171 160 -72 103
-116 140 -168 140 -14 0 -26 -4 -26 -10z"/>
<path d="M6136 7257 c3 -9 19 -19 35 -22 16 -4 47 -23 68 -44 40 -39 133 -170
154 -218 27 -62 100 -154 156 -197 99 -77 156 -101 228 -98 34 1 73 6 88 12
15 6 56 11 92 11 58 1 69 -2 111 -32 26 -19 67 -55 92 -81 42 -44 70 -60 70
-40 0 4 -15 23 -33 43 -17 19 -41 48 -52 63 -25 34 -100 82 -141 90 -21 5 -55
-1 -107 -19 -83 -28 -121 -31 -164 -13 -15 6 -37 13 -48 15 -33 6 -122 72
-178 132 -28 32 -70 93 -93 137 -44 86 -110 184 -125 184 -5 0 -9 6 -9 13 0
17 -59 61 -85 64 -11 1 -30 5 -43 9 -18 5 -21 3 -16 -9z"/>
<path d="M5961 7191 c-9 -6 4 -15 45 -30 105 -39 214 -108 214 -134 0 -6 -10
-1 -23 11 -13 12 -27 19 -30 15 -4 -3 -7 -1 -7 5 0 7 -5 12 -11 12 -6 0 -1
-12 10 -27 12 -14 18 -29 15 -32 -4 -3 -9 0 -11 6 -7 19 -164 65 -206 61 -52
-4 -35 -24 38 -42 33 -9 104 -38 158 -66 97 -49 98 -50 107 -27 5 12 9 16 9 9
2 -31 145 -182 202 -213 40 -21 30 -1 -20 41 -28 24 -60 61 -71 84 -11 22 -38
61 -60 86 -22 25 -50 59 -61 75 -37 52 -154 131 -239 162 -42 15 -41 15 -59 4z"/>
<path d="M1588 7018 c-8 -13 -18 -33 -22 -46 -8 -25 -44 -46 -96 -56 -19 -4
-46 -11 -60 -16 -14 -4 -56 -17 -95 -28 -191 -55 -245 -73 -245 -82 0 -9 39
-40 52 -40 3 0 8 10 10 22 3 19 23 27 178 70 96 26 196 53 223 60 43 11 49 16
73 64 24 49 25 74 5 74 -5 0 -15 -10 -23 -22z"/>
<path d="M5220 7038 c0 -15 41 -86 68 -115 15 -16 64 -47 109 -68 73 -34 81
-40 69 -54 -31 -37 -22 -60 25 -61 11 0 20 31 12 43 -4 7 -9 2 -13 -13 l-6
-25 -13 25 c-8 14 -10 22 -6 18 5 -4 15 -2 23 5 12 9 16 9 19 -1 3 -6 9 -9 15
-6 20 13 78 -8 114 -41 21 -19 42 -35 48 -35 5 0 18 -7 28 -16 15 -14 20 -15
34 -4 8 8 13 22 11 32 -6 21 -3 22 24 7 16 -8 27 -6 51 9 l31 20 -63 30 c-47
23 -68 29 -81 22 -28 -16 -73 -12 -124 10 -26 11 -54 20 -64 20 -9 0 -43 14
-75 30 -31 17 -61 28 -66 25 -5 -3 -10 0 -12 7 -2 6 -15 13 -28 15 -34 5 -55
24 -38 34 9 6 7 10 -7 15 -11 4 -34 23 -52 43 -18 20 -32 33 -33 29z"/>
<path d="M835 6776 c-24 -82 -20 -90 45 -97 30 -3 116 -24 190 -46 74 -23 155
-47 180 -53 25 -6 76 -25 113 -42 80 -37 86 -34 111 51 19 67 20 81 3 81 -15
0 -37 -41 -37 -68 0 -9 -9 -28 -19 -42 l-19 -25 -39 22 c-41 23 -448 153 -479
153 -41 0 -49 15 -37 67 16 67 8 67 -12 -1z"/>
<path d="M7120 6782 c0 -5 9 -18 20 -30 11 -11 30 -39 42 -62 13 -23 28 -50
34 -61 6 -11 15 -21 20 -22 5 -1 8 -5 7 -9 -2 -5 2 -8 7 -8 6 0 10 -7 10 -15
0 -8 4 -15 9 -15 11 0 46 -81 63 -144 12 -45 35 -65 58 -51 5 3 10 -1 10 -9 0
-20 29 -21 36 -2 3 8 12 12 19 10 10 -4 12 8 9 53 -2 37 1 60 9 65 8 5 6 8 -5
8 -10 0 -18 8 -18 18 0 14 -4 12 -20 -8 -22 -28 -25 -47 -10 -52 6 -2 -2 -16
-17 -32 l-27 -29 -9 29 c-5 16 -12 38 -17 49 -5 11 -16 43 -26 70 -23 64 -93
173 -141 219 -36 34 -63 46 -63 28z"/>
<path d="M5602 6629 c17 -36 20 -62 20 -194 0 -154 12 -235 34 -235 7 0 15 -6
18 -12 3 -7 3 -2 1 12 -2 14 -7 84 -11 155 -4 72 -9 148 -11 170 -2 22 -4 48
-4 58 0 9 -6 17 -12 17 -7 0 -13 9 -14 20 -2 18 -25 50 -36 50 -3 0 4 -19 15
-41z"/>
<path d="M4608 6620 c-7 -11 -20 -20 -28 -20 -13 0 -13 -1 0 -10 22 -14 5 -23
-20 -10 -15 8 -20 8 -16 1 8 -13 -16 -41 -35 -41 -9 0 -8 -4 1 -15 10 -12 9
-15 -5 -15 -11 0 -15 -5 -11 -15 3 -8 1 -15 -4 -15 -5 0 -17 -18 -26 -40 -20
-46 -81 -88 -71 -49 4 15 1 19 -10 17 -9 -2 -17 -15 -19 -31 -1 -16 -8 -35
-15 -43 -7 -8 -14 -29 -16 -46 -2 -16 -12 -41 -23 -55 -23 -30 -27 -51 -5 -33
12 10 15 10 15 -3 0 -8 -7 -17 -15 -21 -8 -3 -15 -15 -15 -27 0 -19 2 -20 18
-8 15 13 16 12 3 -3 -12 -16 -9 -22 12 -19 17 3 5 -15 -18 -26 -25 -11 -33 -5
-15 13 6 6 3 15 -9 26 -18 15 -20 14 -38 -11 -29 -39 -35 -52 -26 -50 4 1 16
-1 26 -6 10 -4 21 -5 24 -1 4 3 -1 6 -10 6 -11 0 -14 5 -10 16 6 15 8 15 20
-1 11 -16 10 -22 -6 -39 -21 -23 -35 -103 -19 -112 5 -3 2 -14 -8 -25 -21 -23
-12 -57 10 -37 8 7 10 15 5 16 -16 6 -10 22 8 22 13 0 14 3 5 12 -19 19 -14
30 8 18 24 -13 26 -36 3 -58 -16 -16 -16 -17 0 -20 9 -2 17 -8 17 -13 0 -6 5
-7 11 -4 6 4 8 13 5 21 -3 8 1 14 8 14 21 0 25 -23 7 -37 -10 -8 -11 -12 -4
-13 6 0 15 5 18 10 12 20 25 -1 14 -22 -8 -15 -8 -23 2 -32 6 -6 10 -6 7 -1
-8 15 10 57 21 50 12 -7 52 25 46 36 -3 4 1 12 9 18 11 9 12 6 8 -16 -3 -16
-10 -32 -16 -36 -7 -5 -3 -7 9 -5 13 3 26 -5 36 -20 l17 -24 7 31 c4 17 11 29
16 25 5 -3 9 6 9 20 0 14 5 28 11 31 6 4 8 13 5 21 -3 8 0 11 9 8 7 -3 19 4
25 16 8 15 17 19 33 14 20 -6 20 -6 4 10 -20 20 -21 32 -5 42 8 5 9 2 5 -10
-6 -14 -3 -16 13 -11 11 4 20 2 20 -4 0 -6 7 -8 15 -5 17 7 21 34 5 34 -5 0
-10 -5 -10 -11 0 -5 -4 -8 -9 -5 -5 3 -7 15 -4 27 4 15 8 17 14 8 14 -24 23 0
22 61 -1 38 3 58 9 54 6 -4 4 4 -4 17 -9 14 -14 45 -13 72 1 33 -3 47 -12 47
-16 0 -16 -1 2 50 19 55 19 70 -2 71 -16 0 -16 1 1 8 15 6 19 20 21 84 1 46
-1 77 -7 77 -6 0 -7 11 -4 24 4 18 2 23 -12 22 -9 0 -21 -5 -25 -11 -5 -6 -7
0 -4 13 6 27 1 28 -15 2z"/>
<path d="M6960 6442 c0 -5 11 -18 25 -28 65 -48 162 -210 184 -309 19 -85 -1
-266 -35 -305 -7 -8 -16 -28 -20 -44 -10 -41 -69 -136 -106 -169 -24 -23 -28
-31 -18 -40 7 -7 10 -7 7 -1 -3 5 10 18 29 29 19 10 34 21 34 25 0 4 17 29 38
56 58 74 78 115 96 192 26 117 22 216 -15 314 -18 45 -42 97 -54 113 -12 17
-31 48 -44 70 -19 34 -45 58 -108 98 -7 4 -13 4 -13 -1z"/>
<path d="M1381 6355 c-12 -25 -21 -49 -21 -55 0 -5 -11 -12 -23 -15 -23 -6
-24 -10 -24 -104 -1 -105 -10 -136 -57 -182 -46 -46 -119 -54 -261 -29 -66 12
-156 27 -200 34 l-80 12 -5 44 -5 45 -8 -34 c-4 -18 -7 -46 -7 -62 0 -28 1
-29 53 -29 29 0 116 -11 193 -25 148 -27 255 -32 301 -14 94 35 149 162 120
276 -7 28 -5 33 20 45 22 10 30 24 39 63 18 85 -1 102 -35 30z"/>
<path d="M5313 6325 c-16 -17 -17 -35 -3 -35 17 0 11 -20 -14 -43 -18 -17 -23
-30 -20 -54 3 -26 -5 -40 -41 -81 -25 -27 -56 -53 -70 -56 -14 -4 -25 -11 -25
-17 0 -6 5 -7 10 -4 15 9 12 -4 -4 -21 -10 -10 -31 -13 -65 -10 -39 2 -49 0
-41 -9 5 -6 7 -15 3 -18 -3 -4 1 -7 10 -7 8 0 17 -5 19 -11 6 -18 114 -13 148
7 16 10 30 21 30 25 0 3 15 21 33 40 18 19 36 42 40 52 7 20 27 23 27 4 0 -7
-6 -37 -14 -67 -8 -29 -12 -59 -9 -66 6 -17 -23 -72 -47 -87 -11 -6 -20 -15
-20 -19 0 -16 37 -7 72 17 45 30 57 69 62 189 2 46 7 89 11 96 4 6 7 28 7 48
0 32 2 34 13 19 14 -20 35 -23 35 -4 -1 33 -45 61 -103 65 -13 2 -17 9 -15 28
3 31 -11 40 -29 19z"/>
<path d="M6901 6313 c0 -5 4 -17 8 -28 5 -11 4 -25 -1 -32 -8 -9 -6 -13 5 -13
15 0 23 -29 31 -110 2 -19 7 -46 10 -60 11 -44 9 -164 -4 -210 -6 -25 -22 -66
-35 -91 -27 -54 -42 -115 -27 -105 11 7 63 93 102 171 22 44 25 62 24 153 -1
102 -25 218 -49 234 -5 4 -6 8 -2 8 4 0 -6 20 -23 45 -30 43 -41 54 -39 38z"/>
<path d="M6825 6193 c0 -33 -3 -38 -22 -36 -20 2 -21 1 -6 -28 12 -24 12 -33
3 -45 -11 -12 -10 -13 6 -7 16 6 17 4 7 -8 -7 -9 -12 -38 -11 -65 0 -27 -2
-56 -5 -64 -3 -8 -8 -34 -10 -58 -3 -24 -12 -51 -21 -61 -9 -9 -19 -32 -22
-49 -4 -18 -10 -32 -14 -32 -7 0 -22 -33 -31 -68 -1 -4 -9 -12 -18 -19 -9 -6
-13 -14 -10 -17 10 -11 66 38 103 90 20 29 36 55 36 57 0 3 14 35 30 71 27 58
30 72 26 138 -3 40 -10 89 -16 108 -5 19 -10 56 -10 82 0 27 -3 48 -7 48 -5 0
-8 -17 -8 -37z"/>
<path d="M5558 6123 c7 -2 12 -21 11 -41 0 -20 -3 -31 -6 -24 -8 19 -52 15
-49 -5 2 -9 8 -19 14 -21 7 -2 12 -10 12 -18 0 -8 5 -14 11 -14 5 0 8 -4 4 -9
-3 -5 -1 -13 5 -16 6 -4 20 -27 32 -52 25 -52 88 -104 118 -96 11 3 20 10 20
15 0 5 -5 6 -11 3 -15 -10 -87 43 -104 78 -12 24 -13 32 -3 39 17 10 26 10 33
-2 8 -13 86 -55 103 -55 16 0 32 -24 32 -49 0 -10 -16 -41 -35 -68 -28 -39
-31 -47 -15 -38 12 6 28 27 36 46 8 19 19 34 24 34 12 0 9 38 -3 58 -14 22 25
13 90 -20 61 -31 62 -32 43 -50 -10 -10 -24 -18 -29 -18 -6 0 -8 -7 -5 -15 4
-8 2 -15 -4 -15 -5 0 -13 -7 -16 -16 -3 -8 -2 -12 4 -9 23 14 7 -7 -39 -53
-28 -28 -48 -52 -45 -55 3 -2 -14 -14 -38 -26 -24 -11 -38 -21 -33 -22 17 -1
-39 -22 -70 -26 -16 -2 -44 -8 -60 -12 -17 -4 -39 -7 -50 -6 -45 5 -96 18
-101 26 -3 5 12 38 34 72 21 34 49 91 62 127 12 36 26 69 31 75 12 12 11 55
-1 55 -10 0 -50 -80 -50 -100 0 -6 -11 -32 -25 -58 -14 -26 -25 -52 -25 -58 0
-25 -162 -173 -182 -167 -4 2 -23 -4 -43 -13 -30 -12 -40 -13 -53 -2 -13 11
-15 10 -9 -5 5 -14 3 -16 -11 -9 -9 5 -35 9 -57 9 -47 0 -115 20 -115 34 0 6
-5 7 -10 4 -6 -4 -24 7 -41 24 -34 35 -44 38 -53 16 -3 -9 0 -15 10 -15 8 0
25 -9 37 -21 48 -46 88 -71 112 -71 14 0 27 -4 30 -7 5 -9 181 -4 197 5 7 4 8
3 4 -4 -5 -8 3 -12 23 -12 24 0 29 -3 24 -16 -4 -12 -2 -15 8 -12 16 5 39 -15
39 -34 0 -10 -2 -10 -9 1 -5 7 -14 10 -20 7 -6 -4 -9 -11 -6 -16 3 -5 1 -11
-5 -15 -5 -3 -10 -12 -10 -18 0 -7 8 -3 16 8 8 11 20 19 25 17 5 -1 12 6 16
15 9 24 63 87 63 73 0 -6 6 -8 13 -5 6 4 -1 -5 -18 -19 -16 -14 -24 -26 -17
-26 7 0 10 -5 7 -10 -4 -6 -11 -8 -16 -4 -5 3 -14 -9 -21 -26 -7 -20 -13 -28
-18 -20 -5 8 -9 7 -13 -4 -3 -8 -1 -16 6 -19 6 -2 -2 -12 -18 -23 -36 -22 -46
-35 -38 -48 3 -5 11 -2 18 7 7 10 17 17 24 17 14 0 -20 -34 -43 -43 -10 -4
-14 -12 -10 -18 4 -7 1 -10 -7 -7 -8 3 -13 10 -12 15 1 5 -7 9 -17 9 -18 0
-18 -2 -5 -23 15 -22 21 -52 9 -40 -8 8 -64 -20 -64 -32 0 -5 -6 -9 -12 -8
-34 1 -48 -4 -48 -18 0 -8 -6 -15 -12 -16 -7 0 -4 -4 7 -9 17 -7 16 -9 -10
-10 -16 -1 -24 -4 -17 -7 9 -4 5 -11 -15 -23 -18 -11 -32 -14 -40 -8 -7 6 -14
4 -19 -3 -4 -7 -2 -15 4 -17 7 -2 12 -11 11 -20 0 -9 -3 -12 -5 -5 -4 8 -14 9
-34 3 -20 -6 -30 -5 -34 3 -3 8 -8 7 -15 -3 -8 -12 -6 -16 12 -22 12 -3 16 -6
9 -7 -7 -1 -11 -5 -7 -10 3 -5 -4 -12 -15 -16 -11 -4 -32 -17 -47 -31 -23 -21
-24 -24 -7 -24 16 0 17 -2 4 -10 -12 -8 -10 -10 10 -11 14 -1 33 -1 43 0 9 1
17 -4 17 -13 0 -13 4 -14 25 -4 19 8 35 8 62 0 50 -15 54 -7 8 13 -21 8 -35
18 -31 22 4 4 22 -1 40 -11 26 -14 38 -16 53 -7 16 9 16 10 -6 11 -20 0 -21 2
-11 15 7 8 21 15 31 15 10 0 26 11 35 24 12 20 22 24 48 21 23 -3 33 0 33 9 0
8 -9 12 -21 10 -12 -3 -15 -2 -8 2 6 3 10 10 6 15 -3 5 7 4 21 -1 24 -9 26 -8
20 9 -4 14 0 23 15 31 11 6 20 21 20 34 0 14 10 30 26 41 20 13 23 19 13 31
-9 11 -9 14 1 14 10 0 10 3 0 15 -11 13 -8 14 19 9 26 -5 30 -4 25 9 -3 10 2
21 15 29 12 7 21 19 21 26 0 7 6 15 14 18 8 3 12 13 9 24 -3 12 3 23 15 31 11
7 18 19 15 26 -3 7 2 24 10 36 9 14 12 29 7 38 -7 12 -2 14 28 11 94 -8 125 2
254 85 36 24 71 43 76 43 4 0 19 11 32 25 12 13 27 22 31 19 5 -3 9 5 9 16 0
15 5 20 14 17 8 -3 20 0 26 8 13 16 70 -2 70 -23 0 -18 25 -42 44 -42 18 0 21
-16 5 -25 -7 -5 -8 -30 -4 -72 5 -52 12 -72 40 -109 19 -25 35 -50 35 -56 0
-11 109 -118 121 -118 10 0 39 -29 39 -40 0 -15 -42 -2 -79 24 -38 28 -62 24
-35 -5 18 -20 6 -27 -13 -8 -8 8 -13 8 -17 0 -4 -6 -2 -11 4 -11 7 0 20 -10
31 -22 16 -20 18 -20 19 -5 0 17 30 25 30 8 0 -5 14 -14 30 -21 29 -12 44 -38
15 -27 -8 4 -17 2 -20 -3 -11 -17 -43 -11 -67 13 -13 13 -29 22 -36 19 -7 -2
-12 1 -12 6 0 6 -8 13 -17 17 -10 3 -33 26 -52 51 -35 46 -53 54 -30 12 7 -12
12 -26 11 -31 -1 -4 6 -15 16 -25 9 -9 26 -28 37 -42 12 -14 30 -30 40 -36 11
-7 19 -19 17 -27 -2 -11 3 -14 18 -10 11 3 20 1 20 -4 0 -6 21 -18 48 -27 26
-10 54 -20 62 -23 15 -6 42 -12 68 -15 6 -1 12 -12 12 -24 0 -13 4 -26 10 -29
6 -3 7 1 4 9 -4 12 0 16 16 16 24 0 113 -87 104 -102 -3 -4 2 -8 11 -8 26 0
15 110 -15 147 l-23 28 7 -34 6 -35 -22 21 c-13 11 -33 26 -46 33 -13 6 -21
17 -19 24 3 7 -3 20 -14 29 -26 23 -24 34 9 42 l27 7 -28 24 c-30 25 -47 31
-47 14 0 -5 -9 -10 -20 -10 -11 0 -20 4 -20 10 0 5 6 7 14 4 30 -12 27 19 -5
47 l-34 30 32 -16 c49 -23 63 -20 54 12 -6 23 -13 28 -42 29 -19 0 -43 4 -53
9 -16 7 -18 5 -13 -8 12 -33 -11 -16 -75 51 -50 53 -70 84 -90 138 -14 38 -22
74 -18 79 5 6 8 14 8 20 0 5 7 14 16 20 12 7 19 6 25 -4 10 -15 66 -18 124 -7
27 5 37 4 37 -6 1 -8 5 -7 14 5 7 9 17 17 21 17 5 0 29 9 54 21 151 69 180 85
180 100 1 14 -5 15 -36 9 -21 -4 -47 -11 -57 -15 -14 -6 -17 -5 -11 4 6 10 3
11 -14 2 -11 -7 -21 -9 -21 -6 0 3 -10 -1 -22 -9 -16 -11 -25 -13 -35 -4 -9 7
-17 7 -28 -2 -12 -10 -15 -10 -15 1 0 9 -3 10 -8 3 -15 -23 -114 -22 -237 1
-11 2 -33 4 -48 4 -20 1 -41 14 -68 42 -21 22 -39 44 -39 49 0 12 49 21 68 12
9 -4 31 -8 47 -7 17 1 33 -3 37 -8 10 -15 114 -20 156 -7 48 16 102 51 102 68
0 7 4 11 9 7 10 -6 50 32 52 49 1 6 3 30 4 54 3 36 1 41 -11 31 -16 -13 -36
-78 -28 -91 3 -5 -3 -12 -15 -15 -12 -3 -21 -12 -21 -19 0 -12 -19 -19 -42
-15 -5 0 -8 -5 -8 -13 0 -11 -9 -13 -35 -9 -23 4 -35 2 -35 -6 0 -6 -13 -11
-30 -11 -16 0 -30 4 -30 8 0 4 -14 9 -32 10 -39 3 -47 10 -22 17 51 16 131 60
161 88 41 38 94 141 98 191 5 54 -18 45 -49 -19 -15 -30 -32 -57 -37 -60 -5
-4 -7 -10 -4 -15 7 -12 -94 -100 -135 -118 -23 -9 -51 -12 -85 -8 -81 10 -197
42 -235 65 -19 11 -42 24 -50 27 -8 4 -33 15 -55 25 -23 10 -74 49 -115 88
-41 39 -79 71 -85 70 -5 0 -4 -3 3 -6z"/>
<path d="M6705 5583 c-33 -14 -69 -26 -80 -28 -11 -1 -28 -6 -37 -10 -9 -4
-22 -4 -27 0 -6 3 -28 1 -48 -4 -21 -5 -51 -12 -68 -14 -40 -7 -68 -18 -77
-31 -13 -19 -8 -36 10 -36 10 0 23 -5 30 -12 7 -7 12 -8 12 -2 0 5 12 9 28 9
15 -1 32 1 37 4 6 3 21 7 35 9 32 4 168 61 176 73 3 5 23 18 45 29 21 11 39
25 39 30 0 13 -6 12 -75 -17z"/>
<path d="M7572 5509 c-1 -23 -6 -47 -11 -53 -5 -6 -11 -25 -13 -41 -2 -17 -6
-32 -9 -35 -4 -3 -18 -29 -33 -57 -14 -29 -31 -53 -36 -53 -6 0 -10 -6 -10
-14 0 -7 -27 -32 -60 -55 -33 -23 -61 -49 -61 -57 -1 -8 -2 -18 -3 -24 0 -5
-10 -16 -21 -25 -20 -16 -19 -16 4 -9 26 7 171 146 215 206 25 33 49 95 62
153 12 59 13 71 8 87 -10 34 -31 19 -32 -23z"/>
<path d="M7324 5480 c-42 -43 -95 -80 -119 -84 -9 -1 -22 -12 -31 -24 -8 -12
-25 -22 -36 -22 -12 0 -30 -8 -41 -17 -15 -13 -18 -14 -12 -3 7 12 6 13 -6 4
-15 -12 -68 -28 -81 -26 -5 1 -8 -5 -8 -14 0 -8 -4 -13 -9 -10 -5 3 -22 -1
-37 -9 -16 -8 -39 -15 -51 -15 -16 0 -21 -4 -17 -15 4 -8 12 -15 19 -15 6 0
20 -9 30 -20 15 -17 27 -19 71 -16 29 3 69 14 91 24 45 24 283 264 283 287 0
21 -2 20 -46 -25z"/>
<path d="M6826 5494 c-9 -8 -16 -12 -16 -8 0 5 -5 3 -12 -4 -7 -7 -25 -12 -41
-12 -15 0 -26 -4 -23 -9 4 -5 -4 -7 -15 -4 -13 4 -26 0 -33 -9 -6 -8 -22 -14
-36 -14 -85 0 -110 -4 -110 -20 0 -10 -5 -14 -16 -10 -9 3 -12 2 -9 -5 4 -5
15 -7 25 -4 18 6 58 -11 71 -29 4 -5 14 -6 22 -3 9 3 17 1 19 -5 3 -8 11 -7
27 2 15 7 21 8 17 1 -13 -21 39 -11 60 12 12 12 54 42 93 67 69 44 91 68 51
57 -11 -3 -23 -1 -26 4 -8 14 -31 11 -48 -7z"/>
<path d="M7028 5453 c-18 -15 -35 -30 -38 -33 -13 -13 -57 -33 -104 -47 -28
-8 -79 -28 -112 -45 -107 -52 -104 -90 10 -186 9 -7 18 -25 22 -40 7 -33 36
-92 45 -92 4 0 6 -16 5 -35 -1 -20 3 -34 9 -32 5 2 10 29 9 59 -1 41 -10 74
-38 132 -41 86 -43 133 -6 121 13 -4 30 1 46 14 15 12 32 21 38 22 9 1 43 36
154 163 30 36 4 35 -40 -1z"/>
<path d="M6500 5293 c0 -8 70 -89 140 -161 30 -32 57 -66 58 -77 2 -11 7 -22
11 -25 9 -6 25 -42 23 -52 -1 -5 2 -8 7 -8 4 0 7 -12 7 -27 -1 -16 5 -37 14
-47 9 -11 10 -16 3 -12 -16 9 -16 2 2 -56 8 -27 10 -48 5 -48 -5 0 -7 -21 -5
-47 1 -27 1 -52 -2 -56 -8 -13 -9 -106 -2 -101 4 2 6 -2 5 -9 -1 -13 17 -95
36 -162 6 -22 20 -49 30 -61 19 -22 24 -39 8 -29 -6 3 -7 -1 -4 -10 5 -11 10
-13 17 -6 10 10 29 -2 40 -29 4 -8 4 0 1 18 -3 18 -12 46 -21 63 -18 35 -21
124 -9 269 4 58 4 101 -1 97 -4 -5 -8 -12 -8 -15 -2 -15 -18 -60 -38 -102 -21
-43 -22 -44 -25 -17 -2 15 4 69 12 119 20 114 20 220 2 283 -13 42 -77 146
-113 183 -7 7 -13 18 -13 23 0 6 -4 7 -10 4 -5 -3 -10 1 -10 10 0 12 -6 15
-20 10 -11 -3 -20 -2 -20 3 0 6 -24 26 -54 46 -55 36 -66 41 -66 29z"/>
<path d="M3033 5012 c-22 -37 -45 -82 -52 -101 -23 -71 -5 -187 37 -234 32
-36 96 -59 233 -88 158 -32 170 -37 344 -155 147 -99 207 -129 351 -173 110
-34 162 -63 181 -101 7 -14 13 -68 14 -125 1 -83 3 -92 9 -55 11 59 2 185 -15
226 -15 36 -72 70 -155 93 -80 22 -145 44 -155 52 -6 4 -33 15 -60 24 -66 23
-113 54 -184 123 -34 32 -62 54 -64 48 -2 -5 -16 3 -33 20 -16 16 -38 34 -49
40 -11 6 -22 19 -24 29 -3 18 23 45 43 45 6 0 4 -5 -4 -10 -9 -6 -10 -10 -3
-10 13 0 26 17 29 38 2 8 -6 11 -21 8 -18 -3 -22 -1 -18 10 3 8 1 14 -5 14 -6
0 -12 -5 -14 -10 -2 -7 -15 -7 -38 0 -19 5 -44 10 -55 10 -17 0 -17 -2 -5 -10
11 -7 6 -8 -17 -4 -18 4 -33 2 -33 -3 0 -5 -17 -8 -37 -8 -21 0 -46 -4 -56 -8
-20 -9 -87 9 -87 24 0 5 -7 9 -15 9 -8 0 -15 6 -15 14 0 7 -6 19 -14 25 -32
27 -30 143 3 226 5 11 14 33 20 49 20 50 7 38 -36 -32z"/>
<path d="M4461 4841 c-7 -5 -12 -12 -12 -17 0 -5 -13 -7 -30 -5 -21 2 -29 -1
-25 -8 4 -6 2 -11 -3 -11 -6 0 -11 -7 -11 -15 0 -8 -7 -15 -16 -15 -14 0 -14
1 0 16 16 16 22 44 9 44 -5 0 -18 -20 -30 -44 -17 -33 -19 -46 -10 -55 7 -7 8
-12 2 -11 -5 2 -13 1 -17 0 -5 -1 -12 -3 -18 -4 -5 0 -10 -4 -10 -8 0 -5 0
-15 0 -24 0 -18 35 -11 63 15 18 15 18 15 1 -16 -12 -19 -24 -29 -34 -26 -12
4 -12 3 -1 -5 8 -6 10 -16 6 -23 -4 -8 3 -3 16 11 26 27 109 55 109 37 0 -6 6
-2 14 8 8 11 12 25 9 32 -3 7 0 13 6 13 6 0 11 -9 11 -19 0 -11 5 -23 11 -27
7 -4 9 1 7 14 -2 11 5 29 15 40 21 23 16 41 -11 37 -9 -1 -11 0 -4 2 6 3 12 9
12 14 0 6 -4 7 -10 4 -13 -8 -13 1 1 27 8 15 8 19 0 13 -7 -4 -17 -2 -24 4 -7
5 -19 6 -26 2z"/>
<path d="M1817 3945 c9 -59 9 -81 3 -325 l-5 -185 53 -9 c105 -18 226 34 259
112 19 46 11 100 -24 162 l-27 47 22 28 c39 49 22 153 -29 189 -37 26 -42 19
-14 -21 14 -22 25 -52 25 -71 0 -32 -31 -105 -49 -117 -5 -3 1 -17 15 -30 77
-77 62 -200 -29 -244 -44 -21 -139 -29 -164 -13 -9 6 -13 72 -15 247 -2 168
-7 246 -15 260 -11 17 -11 12 -6 -30z"/>
<path d="M3948 3979 c-9 -5 -26 -26 -39 -47 -12 -20 -32 -53 -44 -72 -12 -19
-39 -64 -61 -100 l-39 -65 0 -120 0 -120 -25 0 -25 0 -5 125 c-5 123 -6 126
-44 195 -22 39 -55 95 -74 125 -19 30 -35 60 -35 67 0 7 -4 10 -9 7 -15 -10
-8 -27 56 -133 103 -172 99 -158 95 -295 l-4 -121 42 -3 c75 -5 76 -3 77 154
l1 139 78 123 c75 119 92 162 55 141z"/>
<path d="M2903 3947 c47 -65 52 -83 39 -145 -9 -43 -19 -63 -42 -82 -17 -14
-30 -31 -30 -38 0 -27 43 -94 98 -153 31 -34 57 -67 57 -73 0 -14 -43 -15 -74
-2 -13 6 -52 54 -87 108 -72 111 -94 123 -94 51 0 -31 3 -43 9 -34 7 11 9 11
14 0 4 -10 6 -9 6 4 2 38 30 13 76 -68 47 -85 61 -95 126 -95 80 0 94 19 44
62 -40 35 -135 171 -135 194 0 7 13 25 28 41 40 40 52 65 52 113 0 62 -41 125
-93 143 -15 6 -14 2 6 -26z"/>
<path d="M3463 3944 c-2 -40 -14 -46 -71 -33 -82 19 -80 24 -77 -231 l3 -220
-24 -6 c-42 -11 -53 0 -43 43 5 21 8 47 8 58 -1 11 -7 -9 -15 -45 -8 -35 -12
-70 -9 -77 3 -8 23 -13 54 -13 57 0 86 21 76 54 -3 12 -9 112 -12 224 -6 196
-5 202 14 202 10 0 28 -7 39 -15 35 -26 63 -19 80 21 8 20 13 43 10 50 -9 24
-31 15 -33 -12z"/>
<path d="M4139 3846 c-12 -12 4 -180 26 -266 8 -30 23 -104 35 -165 12 -60 25
-126 29 -145 4 -22 13 -36 25 -38 15 -3 16 -1 6 17 -7 14 -7 21 0 21 5 0 10 7
10 16 0 8 -4 13 -8 10 -5 -3 -14 32 -21 76 -7 45 -21 99 -32 119 -12 25 -17
48 -13 67 4 17 0 41 -9 58 -14 28 -35 133 -40 202 -1 19 -5 31 -8 28z"/>
<path d="M6849 3274 c-5 -15 -12 -31 -15 -36 -3 -5 0 -7 8 -6 8 2 13 -7 14
-24 1 -22 -2 -26 -12 -17 -11 9 -14 8 -14 -4 0 -23 11 -47 19 -42 6 3 7 -22 1
-45 0 -3 -7 6 -15 20 -13 22 -14 23 -15 5 -1 -20 -1 -20 -15 -1 -11 14 -12 23
-4 32 6 7 9 19 6 26 -3 8 -10 1 -16 -16 -7 -16 -9 -36 -6 -45 4 -9 -3 -23 -17
-34 -13 -10 -18 -16 -12 -13 8 4 11 -5 9 -27 -1 -17 3 -35 9 -39 7 -5 5 -8 -6
-8 -10 0 -18 -4 -18 -10 0 -5 10 -9 23 -7 17 1 24 -5 32 -30 10 -37 17 -40 35
-18 11 13 10 14 -5 9 -13 -5 -16 -4 -11 4 4 7 15 12 26 12 13 0 17 5 13 20 -3
11 0 20 6 20 6 0 11 -7 11 -15 0 -8 5 -15 11 -15 5 0 8 -4 4 -9 -10 -17 13
-22 28 -6 18 17 47 20 47 4 0 -6 -8 -13 -18 -16 -18 -4 -28 -43 -11 -43 5 0 9
7 9 15 0 8 5 16 10 16 6 1 14 2 19 3 5 0 13 5 18 10 5 5 3 6 -4 2 -8 -4 -13
-1 -13 8 0 9 6 16 13 16 8 0 7 3 -3 10 -8 5 -31 6 -51 4 -24 -4 -40 -1 -45 7
-5 9 -2 10 10 6 23 -9 63 1 70 18 3 10 -1 12 -12 9 -14 -5 -13 -3 2 10 11 9
23 16 28 16 4 0 8 5 8 11 0 6 -7 8 -16 5 -13 -5 -14 -3 -7 6 6 7 13 23 15 35
5 19 3 21 -19 12 -36 -14 -36 -13 -3 36 29 42 30 61 2 33 -9 -9 -12 -9 -12 0
0 8 -7 9 -26 2 -14 -6 -29 -10 -34 -10 -14 0 -21 32 -9 47 7 7 8 17 4 21 -4 4
-10 1 -12 -5 -3 -7 -9 -13 -15 -13 -10 0 -8 17 7 53 4 10 3 17 -4 17 -6 0 -16
-12 -22 -26z"/>
<path d="M4920 3195 c0 -9 -10 -15 -22 -16 -22 -1 -22 -1 2 -8 27 -8 16 -20
-14 -15 -10 1 -28 -1 -40 -6 -21 -9 -21 -9 2 -9 14 -1 21 -5 17 -12 -4 -6 -9
-8 -12 -5 -9 9 -31 -20 -30 -40 1 -10 -6 -20 -15 -22 -12 -2 -16 1 -13 11 4 8
0 14 -9 14 -8 0 -12 -6 -9 -14 4 -10 -3 -12 -28 -7 -23 4 -30 3 -20 -4 9 -7
10 -12 2 -16 -6 -4 -11 -12 -11 -17 0 -6 5 -7 10 -4 6 3 10 1 10 -4 0 -6 -7
-11 -15 -11 -23 0 -51 -33 -47 -55 2 -15 1 -17 -6 -6 -7 10 -11 10 -17 1 -4
-7 -1 -16 6 -22 10 -7 8 -8 -8 -3 -12 3 -25 1 -29 -6 -4 -7 -3 -9 4 -5 16 10
27 -15 11 -25 -12 -8 -12 -11 1 -20 12 -9 13 -10 0 -7 -34 10 -80 -62 -47 -75
6 -3 -4 -6 -23 -7 -19 -1 -29 -4 -22 -7 6 -2 12 -11 12 -19 0 -9 -5 -12 -10
-9 -6 4 -2 -9 7 -28 10 -19 21 -33 26 -30 4 2 7 -4 7 -13 0 -14 -3 -15 -12 -6
-17 17 -38 15 -38 -3 0 -8 -5 -15 -11 -15 -6 0 -9 -8 -7 -17 2 -10 8 -18 13
-18 6 0 15 -4 22 -8 7 -5 17 3 25 20 10 20 21 28 40 28 18 -1 24 3 20 14 -4
10 -1 13 11 8 11 -4 15 -1 12 13 -2 13 1 17 10 14 8 -3 11 -13 9 -22 -5 -13
-2 -13 10 2 9 11 16 29 16 40 0 10 3 16 7 13 3 -4 12 -2 20 4 7 6 13 8 13 3 1
-5 7 2 15 16 11 19 14 21 15 8 0 -10 5 -18 10 -18 6 0 10 8 11 18 0 14 2 14 8
-3 6 -14 3 -24 -8 -32 -9 -7 -11 -13 -5 -13 13 0 32 20 33 35 3 24 13 45 23
45 5 0 8 -6 5 -13 -6 -17 39 -11 50 6 3 6 1 7 -5 3 -20 -12 -33 3 -20 24 7 10
15 17 20 14 13 -8 59 28 54 42 -3 8 -1 14 4 14 10 0 14 -15 10 -35 -1 -5 2 -6
7 -2 4 5 8 14 8 20 0 7 11 12 24 12 27 0 39 19 20 31 -8 4 -9 3 -5 -4 4 -7 2
-12 -3 -12 -20 0 -11 23 19 51 16 16 25 29 20 29 -6 0 -10 7 -10 15 0 9 -10
20 -22 26 l-23 10 22 -5 c32 -6 47 18 48 76 1 48 -14 82 -16 36 -1 -21 -1 -21
-7 -3 -8 23 -37 27 -37 5 0 -8 -8 -16 -17 -18 -22 -4 -24 16 -3 24 23 9 18 24
-8 24 -28 0 -50 -19 -38 -34 5 -7 1 -18 -10 -30 -17 -18 -18 -17 -12 5 4 15 3
20 -5 15 -17 -10 -15 3 3 21 8 8 12 19 9 25 -4 7 -2 8 4 4 7 -4 12 -1 12 7 0
8 -7 17 -15 21 -9 3 -15 0 -15 -9z"/>
<path d="M2170 2586 c-85 -22 -156 -80 -184 -148 -19 -44 -20 -142 -3 -180 13
-30 94 -118 108 -118 19 0 7 34 -27 75 -29 36 -37 55 -41 102 -7 77 10 135 53
183 70 77 188 92 261 33 53 -42 76 -77 84 -125 l6 -43 2 43 c2 82 -58 157
-144 181 -48 13 -58 13 -115 -3z"/>
<path d="M2760 2246 c0 -27 -11 -47 -49 -91 -64 -73 -198 -272 -206 -306 -10
-43 11 -104 41 -118 32 -14 42 -8 23 15 -7 9 4 5 25 -10 46 -31 99 -42 131
-28 38 17 245 318 245 356 0 2 -24 -2 -52 -10 -68 -17 -268 -53 -268 -47 0 11
101 151 125 173 44 41 48 56 23 80 -30 28 -38 25 -38 -14z"/>
<path d="M7931 9190 c-29 -16 -59 -34 -66 -40 -21 -18 -5 -49 41 -81 36 -24
47 -28 64 -19 11 6 22 23 25 38 3 15 10 46 15 70 17 71 3 77 -79 32z"/>
<path d="M9404 7764 c-27 -14 -56 -31 -64 -38 -8 -6 -28 -18 -44 -26 -16 -8
-31 -20 -33 -27 -8 -19 36 -50 89 -63 38 -10 51 -9 77 4 37 20 47 37 54 99 3
34 0 52 -10 62 -18 19 -11 20 -69 -11z"/>
<path d="M8377 4924 c-33 -18 -73 -94 -55 -105 7 -4 8 -20 5 -39 -6 -26 -2
-37 22 -61 37 -36 86 -39 136 -6 57 37 71 100 37 167 -28 57 -88 75 -145 44z"/>
<path d="M8795 4920 c-3 -5 -4 -14 0 -19 3 -5 1 -12 -5 -16 -13 -8 -13 -105 0
-105 6 0 10 -7 10 -16 0 -8 -4 -12 -10 -9 -5 3 -10 1 -10 -4 0 -6 4 -11 10
-11 6 0 8 -15 4 -35 -4 -27 -2 -35 10 -35 9 0 16 4 16 8 0 4 10 8 22 9 72 6
94 160 31 219 -27 25 -67 32 -78 14z"/>
<path d="M8448 2485 c-43 -24 -35 -50 35 -121 50 -51 67 -62 85 -58 46 13 55
130 12 169 -26 24 -98 29 -132 10z"/>
<path d="M8114 2015 c-4 -8 -1 -22 5 -29 7 -8 11 -36 10 -63 -2 -51 4 -73 22
-73 6 0 7 5 4 10 -3 6 -1 10 5 10 6 0 31 13 54 30 24 16 46 26 50 23 3 -4 6 0
6 9 0 20 -25 41 -87 72 -61 30 -62 31 -69 11z"/>
<path d="M3247 1624 c-81 -55 -85 -75 -24 -104 28 -14 34 -15 20 -4 -39 28
-25 35 22 12 24 -12 47 -19 50 -16 10 10 16 146 7 152 -4 3 -38 -15 -75 -40z"/>
<path d="M3816 1521 c-19 -21 -75 -157 -76 -183 0 -10 5 -18 10 -18 6 0 10 3
10 8 0 4 22 7 50 7 44 0 54 4 87 37 50 50 50 89 0 135 -42 38 -57 41 -81 14z"/>
<path d="M6694 1410 c-36 -14 -101 -97 -113 -145 -15 -59 -13 -91 7 -146 19
-52 50 -91 103 -132 43 -33 54 -34 38 -5 -10 19 -9 20 7 14 80 -31 132 -18
200 49 53 52 54 54 54 111 0 33 -4 75 -10 94 -12 45 -94 139 -137 156 -36 15
-116 18 -149 4z"/>
<path d="M6022 1271 c-24 -14 -25 -83 -3 -186 11 -55 22 -111 24 -125 3 -18 5
-16 6 10 0 19 -8 81 -19 138 -21 110 -25 153 -10 116 7 -18 24 -100 62 -299
16 -87 23 -98 52 -83 13 7 45 32 71 56 l49 43 0 82 c1 70 -3 89 -26 133 -30
58 -56 78 -136 105 -30 10 -56 19 -56 19 -1 0 -7 -4 -14 -9z"/>
<path d="M5250 1214 c-12 -30 -13 -221 -2 -228 4 -2 6 46 4 107 -2 85 0 108 8
94 6 -10 10 -32 9 -50 -1 -18 -1 -53 0 -79 1 -40 4 -48 20 -48 11 0 30 13 44
29 14 17 28 27 31 23 4 -3 4 1 0 11 -3 9 -2 17 2 17 5 0 10 18 12 41 2 35 -2
45 -32 75 -42 42 -82 46 -96 8z"/>
</g>
</svg>
