<?xml version="1.0" standalone="no"?>
<!DOCTYPE svg PUBLIC "-//W3C//DTD SVG 20010904//EN"
 "http://www.w3.org/TR/2001/REC-SVG-20010904/DTD/svg10.dtd">
<svg version="1.0" xmlns="http://www.w3.org/2000/svg"
 width="1064.000000pt" height="1069.000000pt" viewBox="0 0 1064.000000 1069.000000"
 preserveAspectRatio="xMidYMid meet">
<metadata>
Created by potrace 1.16, written by Peter Selinger 2001-2019
</metadata>
<g transform="translate(0.000000,1069.000000) scale(0.100000,-0.100000)"
fill="#000000" stroke="none">
<path d="M5260 10655 c-30 -19 -59 -35 -65 -35 -5 0 -32 14 -60 30 -69 41
-111 40 -165 -5 -23 -19 -44 -35 -47 -35 -2 0 -36 14 -75 31 -81 35 -97 34
-155 -16 -46 -39 -62 -42 -123 -20 -23 8 -60 15 -82 15 -33 0 -46 -7 -79 -40
-22 -22 -44 -40 -49 -40 -5 0 -33 9 -62 21 -67 26 -107 19 -159 -28 -34 -31
-43 -34 -76 -29 -21 3 -62 9 -91 12 l-54 7 -49 -54 -50 -53 -45 12 c-97 26
-155 8 -189 -59 -17 -32 -42 -37 -104 -18 -53 16 -102 -7 -143 -66 l-33 -47
-77 7 c-88 8 -105 0 -160 -76 l-30 -42 -63 5 c-34 3 -71 1 -81 -4 -10 -6 -45
-37 -76 -70 -40 -42 -62 -58 -74 -54 -25 9 -89 -11 -123 -40 -16 -13 -35 -40
-41 -58 -12 -36 -30 -46 -89 -46 -48 0 -119 -37 -141 -72 -10 -16 -20 -47 -24
-67 -7 -48 -19 -57 -82 -64 -104 -12 -154 -48 -154 -112 0 -31 -35 -55 -80
-55 -57 0 -124 -48 -142 -102 -15 -44 -28 -52 -120 -72 -20 -5 -35 -21 -60
-68 -31 -58 -36 -63 -76 -71 -50 -10 -117 -68 -126 -110 -3 -15 -8 -38 -11
-51 -3 -17 -18 -28 -52 -41 -91 -34 -116 -63 -129 -144 -8 -49 -13 -53 -87
-81 -58 -22 -87 -54 -87 -98 0 -45 -23 -82 -71 -113 -65 -41 -87 -71 -94 -127
-11 -76 -14 -81 -74 -111 -63 -32 -77 -53 -87 -131 -7 -52 -17 -69 -61 -97
-35 -23 -64 -88 -70 -155 -6 -56 -7 -59 -47 -81 -55 -30 -86 -91 -86 -168 0
-55 -2 -59 -39 -88 -47 -38 -72 -96 -76 -176 -2 -33 -3 -62 -4 -65 -1 -3 -14
-14 -31 -23 -35 -21 -60 -93 -60 -175 0 -50 -4 -59 -39 -97 -44 -47 -59 -104
-47 -176 6 -37 3 -45 -27 -78 -41 -45 -62 -133 -47 -196 7 -31 6 -45 -5 -60
-8 -11 -23 -31 -32 -44 -14 -19 -18 -46 -19 -120 0 -77 -4 -104 -21 -136 -29
-57 -38 -124 -23 -183 12 -46 12 -53 -13 -103 -32 -63 -35 -123 -10 -192 14
-39 15 -51 5 -65 -46 -64 -53 -129 -20 -197 20 -41 21 -49 9 -88 -25 -79 -25
-151 -1 -201 22 -43 22 -46 6 -92 -26 -78 -22 -143 15 -192 l31 -42 -17 -43
c-26 -65 -21 -142 11 -189 27 -38 27 -40 15 -102 -16 -82 -7 -130 37 -178 31
-35 34 -42 26 -76 -4 -20 -8 -62 -8 -93 -1 -53 2 -59 42 -103 38 -41 43 -51
35 -74 -4 -15 -8 -55 -8 -89 0 -60 1 -63 43 -101 l42 -39 -6 -76 c-8 -85 0
-105 61 -159 34 -29 34 -29 32 -114 -2 -84 -1 -86 28 -110 90 -73 85 -65 85
-149 0 -84 -9 -69 92 -159 25 -22 27 -29 22 -68 -7 -53 20 -116 62 -145 62
-43 74 -60 74 -110 0 -60 24 -101 81 -140 44 -29 54 -46 64 -114 7 -49 42 -98
85 -121 49 -27 68 -52 76 -104 8 -56 33 -88 94 -119 46 -23 60 -43 74 -105 12
-52 46 -91 101 -115 49 -22 55 -29 65 -67 17 -60 63 -123 102 -137 86 -33 80
-27 92 -84 10 -42 56 -87 127 -121 52 -25 66 -37 73 -63 13 -46 72 -99 131
-115 46 -12 52 -18 81 -71 35 -66 54 -83 109 -97 77 -21 92 -31 116 -77 28
-54 65 -80 128 -89 46 -7 61 -18 124 -98 19 -23 42 -39 68 -46 21 -5 57 -15
78 -20 28 -7 51 -24 81 -60 42 -50 82 -70 142 -70 18 0 44 -16 80 -48 69 -64
92 -75 156 -77 49 -2 58 -6 100 -48 54 -53 85 -67 147 -67 57 0 91 -14 124
-49 32 -34 85 -51 159 -51 47 0 58 -4 82 -30 37 -40 68 -50 155 -50 72 0 75
-1 122 -41 l47 -42 77 6 c74 6 79 5 124 -25 53 -35 125 -47 176 -29 29 10 40
7 103 -24 79 -39 101 -42 171 -20 49 14 49 14 94 -16 43 -28 51 -30 111 -25
36 3 80 8 98 12 25 5 46 1 79 -16 37 -19 55 -21 100 -16 30 4 63 11 73 16 28
15 62 12 105 -10 50 -25 96 -25 169 0 55 20 61 20 111 5 73 -21 103 -19 158
11 44 23 53 24 98 15 83 -18 132 -14 173 14 40 27 69 31 113 14 65 -25 146 -7
186 41 16 19 24 21 55 14 21 -4 65 -8 99 -8 57 -1 65 2 97 33 33 32 37 34 91
28 70 -7 134 11 180 51 33 30 38 31 118 29 90 -2 134 15 145 55 7 27 43 39 96
32 60 -9 112 11 157 60 36 39 40 41 102 42 74 1 128 28 152 74 18 34 58 49
116 43 55 -5 104 23 125 72 17 42 34 51 112 64 77 12 98 24 118 64 28 56 43
66 106 73 70 8 118 37 131 79 16 50 43 72 95 77 59 6 130 50 138 87 11 52 24
70 51 76 111 23 163 59 163 113 0 35 23 57 70 67 80 17 140 73 140 130 0 39
12 50 63 59 51 9 127 81 127 120 0 42 17 64 60 77 68 21 130 98 130 164 0 21
8 29 38 41 91 35 132 79 132 141 0 49 14 70 64 92 58 25 99 86 106 155 4 40
10 53 28 62 61 30 122 124 122 188 0 31 5 38 39 55 56 29 85 81 87 161 2 64 3
65 41 86 55 30 96 112 88 175 -6 46 -6 47 36 76 54 35 82 101 80 185 -1 49 3
59 20 69 34 18 73 115 74 185 1 50 5 66 27 92 41 48 62 123 54 192 -6 52 -5
59 13 65 43 13 71 162 46 247 -6 24 -4 28 19 34 44 11 70 129 44 201 -10 29
-9 35 9 55 46 51 63 131 43 213 -11 45 -10 55 3 76 25 38 35 120 24 184 -8 42
-8 65 2 88 22 56 25 167 7 211 -21 51 -20 79 4 118 28 46 26 102 -6 156 l-27
45 17 71 c21 93 21 102 -14 165 -30 53 -30 54 -14 103 24 70 15 138 -25 193
l-31 43 15 67 c17 72 10 120 -21 146 -36 29 -43 62 -32 136 13 85 5 112 -52
168 l-38 37 15 61 c18 79 13 98 -44 158 -45 49 -46 50 -35 88 7 21 12 52 12
69 0 32 -18 82 -30 82 -3 0 -23 15 -43 34 -36 33 -37 35 -37 108 0 82 -11 105
-82 167 -38 33 -38 34 -38 108 0 72 -1 76 -33 107 -19 17 -46 39 -61 50 -23
15 -27 24 -23 50 3 17 1 52 -5 78 -9 47 -30 71 -101 120 -20 14 -25 27 -29 77
-6 84 -40 133 -108 156 l-50 17 0 47 c0 56 -46 134 -94 160 -49 27 -63 46 -70
100 -8 61 -39 100 -106 134 -40 20 -47 28 -64 80 -21 67 -52 99 -127 136 -52
25 -54 28 -67 83 -17 68 -58 111 -118 123 -52 9 -60 18 -79 80 -18 63 -44 85
-128 110 -61 18 -71 29 -82 88 -9 44 -53 84 -106 93 -65 11 -88 25 -99 59 -22
67 -94 125 -155 125 -39 0 -60 15 -89 64 -38 66 -69 86 -130 86 -63 0 -71 5
-99 60 -30 59 -67 84 -125 86 -26 0 -54 2 -64 2 -9 1 -30 27 -47 57 -38 66
-70 85 -150 85 -59 0 -60 1 -97 46 -50 61 -79 74 -163 74 l-70 0 -31 45 c-44
64 -78 79 -161 71 l-67 -6 -42 50 c-48 58 -80 68 -162 51 -66 -14 -76 -11
-111 39 -37 52 -88 68 -146 44 -56 -22 -106 -12 -126 25 -25 49 -105 68 -162
38 -49 -26 -74 -21 -114 22 -46 51 -79 59 -138 36 -59 -23 -111 -31 -111 -16
0 6 -19 24 -42 41 -51 37 -103 40 -143 8 -39 -30 -77 -27 -120 10 -30 27 -43
32 -89 32 -40 0 -62 -6 -90 -25 -48 -33 -62 -32 -120 10 -27 19 -57 35 -66 35
-8 0 -40 -16 -70 -35z m111 -69 c21 -4 42 -13 49 -21 14 -17 51 -20 66 -5 5 5
31 14 57 19 56 10 122 -3 153 -30 25 -23 42 -24 84 -2 64 31 142 17 211 -38
25 -20 28 -20 57 -5 48 25 148 8 207 -35 35 -25 48 -30 57 -21 17 17 99 15
152 -3 25 -9 58 -29 74 -45 21 -20 36 -27 51 -23 11 3 21 8 21 12 0 11 78 5
93 -7 6 -5 23 -13 37 -17 14 -4 42 -23 63 -42 32 -28 41 -32 58 -22 12 6 32 8
47 3 15 -4 32 -6 38 -5 23 3 114 -50 138 -82 l25 -32 47 17 c45 16 74 15 74
-2 0 -5 16 -14 35 -20 24 -8 41 -24 58 -53 23 -42 23 -42 73 -39 67 4 116 -14
192 -72 56 -43 67 -47 98 -42 31 6 39 2 92 -46 61 -56 72 -69 72 -80 0 -18
-45 -5 -123 36 -46 24 -126 62 -178 86 -301 135 -279 126 -279 112 0 -5 26
-19 58 -31 82 -34 415 -196 492 -241 36 -20 85 -49 110 -62 88 -49 269 -165
420 -270 253 -175 585 -478 854 -778 156 -174 379 -480 550 -756 52 -83 276
-524 276 -543 0 -6 9 -15 21 -21 15 -8 19 -18 15 -33 -6 -25 46 -151 58 -140
4 4 4 0 1 -8 -7 -19 29 -102 40 -91 4 4 5 -1 2 -11 -4 -10 10 -68 34 -135 52
-152 131 -430 159 -563 13 -57 25 -106 27 -109 6 -5 -5 72 -14 105 -3 13 -2
16 4 10 14 -14 43 -126 36 -138 -3 -5 -9 -3 -14 4 -13 21 -11 0 16 -141 14
-75 23 -109 24 -85 0 22 -6 72 -13 112 -7 40 -10 70 -6 68 4 -3 11 -26 15 -52
3 -27 13 -74 21 -107 16 -62 12 -103 -7 -76 -11 16 -10 5 17 -230 24 -203 29
-726 10 -967 -75 -918 -388 -1791 -910 -2536 -42 -60 -76 -111 -76 -113 0 -3
6 -2 13 2 7 4 9 3 4 -2 -5 -5 -13 -9 -17 -9 -14 0 -150 -173 -148 -187 2 -7
-2 -12 -8 -13 -6 0 -48 -43 -94 -95 -231 -265 -587 -593 -840 -773 -262 -187
-440 -295 -700 -426 -583 -295 -1210 -474 -1855 -532 -188 -16 -565 -25 -745
-17 -952 43 -1954 383 -2707 918 -223 159 -261 187 -376 283 -114 95 -433 405
-523 507 -205 233 -332 391 -460 570 -59 82 -167 244 -190 285 -6 11 -35 61
-64 110 -95 161 -272 530 -304 633 -4 12 -12 20 -17 17 -5 -3 -7 0 -4 7 7 19
-90 270 -100 261 -4 -5 -6 -1 -2 8 3 9 -13 77 -35 150 -40 132 -46 159 -106
414 -33 142 -83 451 -104 640 -9 79 -13 252 -12 505 0 336 3 408 22 565 13 99
27 196 31 215 5 19 12 58 16 85 17 134 125 549 181 700 14 39 38 108 54 155
16 47 41 108 55 135 13 28 25 56 25 63 0 7 21 57 46 110 25 53 59 129 75 168
16 39 43 92 60 118 16 26 46 80 66 119 19 40 52 97 71 127 20 30 47 75 60 100
13 25 38 65 55 90 16 25 52 79 80 120 27 41 57 85 66 97 98 131 169 220 213
269 29 33 71 82 93 109 62 79 332 345 350 345 9 0 14 4 10 9 -7 13 74 93 86
85 5 -3 8 -1 7 4 -4 14 93 96 271 232 105 79 147 106 153 97 6 -8 8 -6 6 6 -2
13 11 26 42 44 25 14 56 35 70 47 40 37 118 86 153 98 17 6 37 16 42 23 6 7
53 39 103 70 65 39 99 54 113 50 13 -4 19 -2 17 7 -2 8 52 40 137 83 78 38
154 81 170 93 17 13 53 38 81 55 27 18 68 46 90 63 92 72 162 107 218 109 43
1 62 8 91 30 49 37 144 66 182 56 32 -8 63 -4 63 10 0 32 140 73 217 64 45 -5
53 -4 62 13 22 42 149 65 218 40 29 -11 35 -10 56 10 13 12 30 22 38 22 8 0
23 7 33 15 27 20 115 19 144 -1 22 -15 25 -14 61 10 52 37 154 47 211 21 40
-18 41 -18 72 5 42 31 143 34 205 6 41 -18 43 -18 70 0 28 19 85 33 113 28 8
-1 31 -5 51 -8z"/>
<path d="M4940 10336 c0 -19 -11 -21 -29 -3 -11 10 -13 10 -7 0 4 -8 1 -13 -8
-13 -9 0 -16 5 -16 12 0 6 -6 3 -14 -8 -12 -15 -17 -17 -27 -6 -7 6 -20 12
-28 11 -11 0 -10 -3 4 -9 15 -6 6 -9 -32 -9 -31 -1 -53 3 -53 10 0 5 -5 7 -10
4 -6 -4 -8 -10 -5 -14 7 -13 -67 -22 -81 -10 -8 7 -13 6 -16 -3 -4 -10 -8 -10
-21 1 -16 12 -21 9 -18 -11 0 -5 -6 -8 -15 -8 -8 0 -13 4 -10 9 3 5 -15 7 -41
6 -25 -2 -49 -9 -53 -15 -6 -9 -13 -9 -31 1 -23 12 -23 11 -9 -6 14 -17 13
-18 -4 -12 -10 4 -24 3 -30 -1 -6 -5 -23 -12 -38 -16 -14 -3 -34 -9 -45 -13
-15 -6 -16 -5 -5 9 8 10 9 18 3 22 -6 4 -15 -3 -21 -14 -9 -16 -15 -18 -30
-10 -16 9 -20 7 -20 -5 0 -17 -25 -21 -35 -5 -3 6 -11 10 -16 10 -6 0 -8 -4
-5 -9 3 -4 -6 -6 -21 -3 -21 4 -25 2 -20 -12 5 -14 3 -15 -13 -6 -12 7 -21 7
-25 0 -3 -5 -15 -10 -26 -10 -10 0 -19 -5 -19 -10 0 -6 -12 -8 -27 -4 -22 4
-25 3 -13 -5 8 -6 11 -11 5 -12 -5 0 -20 -2 -32 -3 -13 -2 -23 1 -23 6 0 4 -5
8 -11 8 -6 0 -8 -7 -5 -16 5 -13 2 -15 -14 -11 -11 3 -18 1 -14 -4 3 -5 1 -9
-5 -9 -5 0 -13 5 -16 10 -4 6 -11 7 -17 4 -6 -4 -5 -10 3 -15 11 -7 11 -9 1
-9 -7 0 -15 7 -18 15 -5 12 -10 13 -20 5 -9 -8 -19 -8 -36 1 -19 9 -21 9 -10
-2 16 -18 15 -29 -4 -29 -8 0 -13 -4 -10 -9 3 -5 -3 -11 -14 -14 -11 -3 -20
-1 -20 4 0 5 -5 9 -11 9 -5 0 -8 -4 -4 -9 3 -5 1 -12 -5 -16 -5 -3 -10 2 -10
12 0 14 -2 15 -9 4 -5 -7 -13 -11 -19 -7 -5 3 -27 -6 -48 -21 -22 -14 -52 -25
-69 -25 -19 0 -25 -2 -16 -7 20 -13 -5 -24 -26 -13 -10 6 -27 6 -45 0 -30 -11
-36 -23 -15 -31 8 -4 7 -6 -3 -6 -9 -1 -22 5 -29 12 -11 10 -13 10 -7 0 4 -7
2 -13 -4 -13 -6 0 -9 -4 -6 -9 4 -5 -3 -7 -14 -4 -12 3 -20 0 -20 -7 0 -8 -9
-11 -25 -8 -22 5 -23 3 -13 -10 11 -13 10 -15 -10 -10 -12 4 -20 2 -16 -3 5
-9 -8 -13 -40 -9 -10 1 -15 -3 -12 -9 4 -6 -3 -7 -22 -2 -21 7 -29 5 -29 -5 0
-7 4 -11 9 -8 4 3 8 1 8 -4 0 -4 -16 -16 -36 -25 -19 -10 -33 -13 -29 -7 3 5
-1 10 -9 10 -9 0 -16 -4 -16 -9 0 -4 -15 -13 -32 -19 -23 -7 -27 -10 -13 -11
15 -1 12 -5 -14 -16 -45 -20 -54 -19 -48 5 3 12 1 18 -5 14 -5 -3 -7 -18 -3
-31 5 -22 3 -25 -14 -20 -11 3 -22 -1 -25 -8 -2 -7 -28 -25 -56 -39 -28 -14
-48 -21 -44 -15 3 6 -6 3 -22 -7 -16 -10 -32 -24 -37 -31 -4 -7 -15 -9 -24 -6
-12 5 -14 3 -8 -7 6 -10 4 -12 -8 -7 -11 4 -20 -1 -28 -14 -8 -15 -14 -18 -23
-10 -10 8 -17 7 -26 -4 -10 -12 -10 -15 1 -15 8 0 1 -9 -16 -20 -28 -18 -30
-18 -37 -2 -5 13 -7 14 -8 2 -2 -8 -2 -18 -1 -22 1 -8 -15 -12 -38 -8 -8 1
-12 -4 -8 -13 7 -18 -36 -40 -50 -26 -7 7 -12 5 -16 -5 -4 -9 -1 -16 6 -16 7
0 4 -5 -6 -11 -9 -5 -22 -7 -27 -4 -6 3 -10 -1 -10 -9 0 -9 -9 -16 -21 -16
-11 0 -18 -4 -15 -9 7 -11 -22 -23 -37 -14 -7 4 -8 0 -4 -11 5 -13 -3 -22 -39
-37 -25 -12 -43 -23 -40 -26 5 -5 -37 -43 -48 -43 -3 0 -3 8 1 18 3 9 3 14 -1
10 -4 -3 -8 -13 -10 -21 -3 -21 -26 -47 -41 -47 -7 0 -15 -7 -19 -15 -3 -9
-12 -12 -23 -9 -12 4 -14 3 -5 -3 14 -11 -10 -36 -99 -102 -55 -40 -76 -51
-64 -31 3 6 1 10 -5 10 -7 0 -9 -8 -4 -22 3 -13 3 -20 -1 -16 -4 4 -16 -3 -27
-15 -11 -12 -16 -16 -12 -8 5 10 3 12 -5 7 -7 -5 -17 -19 -22 -33 -6 -17 -14
-23 -25 -19 -8 3 -13 2 -10 -3 7 -11 -39 -53 -48 -44 -4 5 -6 1 -4 -7 2 -8 -3
-14 -9 -12 -7 1 -13 -4 -13 -12 0 -19 -49 -58 -63 -49 -5 3 -7 1 -4 -5 4 -5
-27 -45 -68 -87 -41 -43 -75 -81 -75 -86 0 -5 -9 -9 -21 -9 -11 0 -18 -4 -15
-9 8 -12 -43 -73 -55 -66 -5 4 -7 0 -4 -7 3 -7 -22 -42 -55 -77 -33 -35 -60
-66 -60 -69 0 -3 -24 -35 -53 -71 -330 -415 -622 -964 -791 -1491 -118 -366
-186 -695 -226 -1090 -21 -209 -24 -639 -6 -845 41 -462 106 -789 236 -1191
23 -71 46 -133 50 -139 4 -5 10 -23 14 -40 14 -57 119 -300 206 -475 448 -900
1113 -1615 1993 -2144 132 -80 395 -215 558 -287 200 -88 571 -218 644 -225
16 -1 45 -7 65 -13 71 -21 441 -84 555 -94 l50 -5 -45 13 c-25 7 -97 23 -160
34 -222 41 -473 108 -701 186 -171 58 -241 95 -112 58 32 -9 70 -16 85 -16 15
0 29 -6 32 -13 3 -8 10 -14 16 -14 6 0 8 5 4 12 -5 8 -2 9 10 5 10 -4 22 -7
27 -7 6 0 7 -5 3 -12 -4 -6 -3 -8 4 -4 6 3 71 -9 144 -29 444 -116 824 -171
1253 -182 592 -14 1135 71 1725 271 196 67 262 94 623 255 224 100 289 122
237 81 -41 -32 -11 -23 44 13 108 71 154 95 164 85 6 -6 12 -6 16 1 4 6 2 11
-4 11 -6 0 -8 5 -5 10 3 6 19 10 35 10 21 0 28 4 24 14 -5 14 39 31 56 21 5
-3 10 5 12 17 2 16 9 22 21 20 9 -2 17 2 17 8 0 5 5 10 10 10 22 0 239 172
406 322 476 426 895 995 1177 1598 230 491 360 944 433 1515 23 175 27 864 6
1005 -6 47 -14 112 -17 145 -7 77 -40 281 -66 415 -125 634 -377 1255 -720
1773 -33 49 -59 93 -59 98 0 5 -4 9 -10 9 -5 0 -10 6 -10 14 0 8 -4 16 -8 18
-4 2 -41 48 -82 103 -154 210 -289 363 -522 591 -335 330 -603 540 -999 782
-95 58 -507 272 -524 272 -2 0 -28 11 -58 24 -29 14 -79 34 -110 46 -32 12
-55 25 -52 30 3 4 -5 6 -17 2 -14 -3 -19 -1 -14 6 4 8 2 10 -7 6 -8 -3 -43 6
-77 20 -35 14 -70 26 -77 26 -8 0 -12 3 -9 8 2 4 -3 16 -11 27 -15 20 -15 20
-9 -2 6 -20 5 -21 -21 -13 -50 15 -63 22 -63 36 0 8 -5 14 -11 14 -5 0 -7 -4
-4 -10 9 -15 -20 -12 -62 5 -19 8 -46 15 -59 15 -13 0 -28 8 -33 18 -6 9 -11
11 -11 5 0 -9 -7 -10 -26 -3 -14 6 -36 10 -49 10 -13 0 -30 6 -37 13 -7 6 -22
12 -33 13 -27 1 -86 12 -137 24 -24 6 -54 12 -68 14 -14 2 -65 10 -115 19
-138 25 -190 32 -235 36 -20 1 -22 3 -10 11 9 6 10 10 3 10 -6 0 -15 -5 -18
-10 -4 -6 -14 -8 -23 -6 -10 3 -33 7 -52 8 -19 1 -38 7 -42 13 -5 6 -8 6 -8 0
0 -6 -19 -9 -45 -7 -37 3 -44 7 -35 17 9 11 7 12 -9 8 -12 -3 -19 -8 -16 -12
2 -4 -12 -7 -30 -7 -19 1 -35 3 -35 6 0 3 -83 4 -185 3 -114 -1 -183 2 -180 8
4 5 2 9 -4 9 -5 0 -12 -4 -15 -9 -3 -4 -29 -9 -57 -10 -29 0 -61 -3 -71 -7
-10 -3 -18 -1 -18 4 0 5 -6 9 -12 10 -7 1 -25 4 -40 8 -22 5 -28 3 -28 -10z
m696 -66 c1041 -82 2008 -477 2814 -1149 153 -128 349 -319 356 -347 10 -40
-16 -165 -50 -238 -18 -39 -81 -144 -139 -232 -129 -195 -206 -342 -321 -614
-85 -200 -146 -323 -167 -335 -5 -4 -16 -1 -24 5 -8 6 -18 9 -23 6 -5 -3 -29
4 -53 16 -24 11 -82 26 -129 32 -47 7 -97 20 -111 30 -40 25 -219 86 -256 86
-23 0 -33 5 -33 15 0 8 5 15 10 15 6 0 8 10 5 23 -3 12 0 38 8 57 8 19 18 62
22 94 4 32 29 125 56 205 88 257 112 413 86 538 -19 90 -55 151 -115 200 -80
65 -89 69 -37 15 54 -57 53 -68 -4 -23 -20 16 -83 52 -141 80 -58 28 -116 57
-130 64 -28 14 -43 54 -16 44 19 -7 19 -4 2 43 -11 30 -11 39 2 61 14 24 13
32 -11 95 -16 43 -30 108 -37 174 -18 178 -32 258 -46 277 -13 17 -14 16 -10
-7 3 -14 8 -88 11 -165 3 -77 8 -160 11 -185 2 -25 6 -113 8 -196 2 -83 7
-157 11 -164 4 -7 3 -15 -3 -19 -7 -4 -8 -19 -2 -46 5 -24 5 -46 -1 -57 -6
-10 -7 -22 -4 -27 3 -5 7 -56 10 -113 3 -56 10 -116 17 -132 10 -25 9 -31 -7
-42 -13 -10 -15 -17 -8 -26 10 -13 18 -103 17 -210 0 -32 2 -58 5 -58 3 0 12
-4 20 -9 12 -8 11 -13 -6 -35 -19 -24 -20 -37 -16 -183 2 -87 8 -250 14 -363
6 -113 12 -257 14 -320 1 -63 6 -142 10 -175 l8 -60 -22 19 c-11 11 -27 31
-34 45 -7 14 -20 36 -28 49 -12 19 -12 24 0 31 12 8 13 48 7 243 -4 128 -9
249 -11 268 -3 19 -8 109 -11 200 -7 175 -22 237 -66 277 -24 20 -23 17 13
-52 29 -55 37 -133 44 -435 2 -85 7 -231 10 -325 7 -164 5 -180 -19 -134 -14
28 -32 21 -28 -11 5 -39 142 -271 182 -310 43 -40 100 -149 100 -190 0 -16 7
-30 15 -34 8 -3 15 -15 15 -26 0 -11 7 -20 15 -20 8 0 15 -7 15 -16 0 -22 106
-128 119 -119 6 3 11 2 11 -3 0 -6 11 -13 25 -16 14 -4 25 -13 25 -22 0 -8 5
-12 10 -9 6 4 23 -5 37 -19 22 -23 48 -32 76 -27 15 2 20 -31 6 -40 -11 -7 -9
-9 8 -9 12 0 23 6 26 13 3 9 7 9 20 -2 9 -7 14 -18 10 -24 -4 -6 -1 -7 6 -3 8
6 11 2 9 -10 -2 -14 2 -18 15 -16 15 3 17 -1 12 -20 -6 -19 -5 -21 6 -10 21
20 29 14 19 -13 -7 -20 -6 -25 5 -25 8 0 12 -6 9 -15 -4 -9 3 -16 20 -21 16
-4 26 -13 26 -24 0 -11 4 -21 9 -24 5 -3 12 -27 16 -53 l8 -48 10 30 c22 65
-27 341 -65 367 -30 20 -48 28 -109 48 -108 37 -191 81 -247 132 -30 26 -58
48 -63 48 -12 0 -39 55 -39 80 0 11 -9 37 -20 57 -24 46 -25 66 -3 84 15 12
16 12 11 -3 -4 -9 -1 -19 7 -22 10 -3 12 -15 8 -40 -4 -24 -2 -36 6 -36 11 0
12 3 15 85 2 28 6 58 10 68 7 14 5 16 -10 10 -11 -3 -31 -15 -46 -25 -35 -24
-43 -23 -57 8 -10 22 -8 33 9 70 30 61 245 274 314 309 24 13 40 6 41 -17 0
-3 4 -10 9 -15 5 -4 6 8 2 31 -6 33 -5 38 9 32 9 -3 21 -6 26 -6 5 0 9 -5 9
-11 0 -6 -7 -9 -15 -5 -22 8 -19 1 16 -36 l30 -33 -6 28 c-9 33 0 35 26 5 22
-28 24 -44 5 -51 -15 -6 -18 -60 -5 -82 4 -5 9 -21 12 -35 7 -30 67 -100 85
-100 21 0 13 21 -17 49 -17 16 -33 40 -37 55 -3 14 -10 29 -15 32 -14 8 -10
57 6 78 8 11 15 28 15 39 0 10 5 15 10 12 16 -10 12 -55 -5 -55 -19 0 -19 -9
2 -32 9 -10 16 -31 15 -48 -1 -30 12 -41 21 -17 3 6 6 1 7 -13 0 -14 7 -33 14
-43 12 -15 14 -13 20 25 5 31 3 45 -7 53 -19 14 -30 85 -13 85 7 0 13 -12 13
-29 0 -17 12 -48 26 -70 28 -42 38 -81 12 -47 -19 25 -33 12 -17 -14 15 -25
15 -25 -3 -44 -14 -13 -12 -18 14 -45 17 -17 33 -31 36 -31 12 0 4 31 -10 36
-8 4 -15 13 -15 22 0 12 5 10 25 -8 13 -12 23 -30 22 -40 -1 -9 26 -40 66 -74
37 -32 74 -71 83 -88 25 -48 85 -220 79 -226 -3 -3 -5 -1 -5 5 0 17 -130 206
-173 253 -21 22 -55 51 -76 65 -25 15 -44 38 -55 64 -20 51 -38 55 -25 6 12
-41 5 -57 -19 -48 -15 6 -15 4 2 -15 10 -12 23 -19 28 -16 11 7 48 -29 48 -46
0 -6 5 -8 10 -5 6 3 14 -2 18 -12 4 -10 25 -44 47 -77 22 -32 45 -67 51 -77 6
-10 18 -27 28 -38 9 -10 19 -28 21 -41 2 -12 12 -28 21 -34 9 -7 23 -30 30
-52 20 -54 75 -254 79 -284 2 -14 6 -41 10 -61 5 -25 3 -39 -6 -44 -7 -5 -10
-4 -6 2 3 5 0 20 -6 34 -7 13 -19 40 -27 59 -27 70 -193 397 -241 476 -39 63
-65 92 -119 132 -37 28 -86 58 -108 65 -82 28 -198 -13 -283 -99 -24 -24 -38
-44 -32 -44 7 0 18 8 25 18 7 9 27 26 43 36 17 11 35 25 40 32 16 19 99 26
121 9 23 -17 54 -19 54 -4 0 6 6 9 13 6 6 -2 11 -14 9 -25 -2 -13 3 -25 12
-28 9 -3 16 -10 16 -15 0 -6 18 -29 41 -52 22 -23 52 -54 66 -69 15 -15 23
-33 20 -41 -6 -17 22 -47 44 -47 23 0 47 -59 41 -102 -3 -32 -1 -38 15 -38 24
0 45 -80 32 -125 -10 -33 -12 -112 -4 -103 3 3 8 18 11 34 9 55 14 61 30 40
14 -19 14 -19 14 1 0 26 26 78 33 66 3 -5 2 -15 -3 -23 -5 -8 -7 -33 -3 -55 6
-36 5 -39 -10 -26 -14 11 -17 11 -17 -1 0 -7 7 -24 16 -36 15 -21 15 -25 -2
-43 -16 -18 -16 -20 -1 -37 19 -21 22 -32 7 -32 -5 0 -10 7 -10 16 0 8 -5 12
-11 9 -6 -4 -8 -14 -5 -22 4 -8 1 -34 -5 -56 -8 -30 -8 -42 0 -45 6 -2 11 -28
11 -58 0 -30 7 -71 15 -92 14 -31 14 -47 4 -107 -6 -38 -18 -79 -26 -91 -15
-23 -16 -46 -13 -219 2 -60 7 -115 12 -122 5 -7 7 -17 4 -22 -4 -5 -2 -12 4
-16 13 -8 13 -35 0 -35 -5 0 -10 7 -10 15 0 8 -4 15 -10 15 -12 0 -13 -5 -1
-28 5 -9 13 -26 17 -37 6 -18 8 -18 11 -2 3 9 9 17 15 17 12 0 1 -59 -15 -78
-8 -10 -7 -16 4 -22 11 -8 12 -13 1 -30 -15 -24 -16 -33 -2 -25 5 3 11 3 11
-2 3 -16 9 -148 9 -175 0 -15 4 -29 10 -33 10 -6 14 6 11 37 -1 9 3 19 9 23
16 10 12 -56 -4 -69 -17 -14 -30 -66 -17 -66 6 0 9 -23 7 -54 -3 -43 0 -56 15
-70 14 -11 18 -23 13 -41 -3 -14 -2 -25 4 -25 18 0 23 -67 8 -111 -8 -23 -12
-55 -9 -71 3 -17 1 -28 -6 -28 -6 0 -11 -7 -11 -16 0 -10 6 -14 15 -10 8 3 14
2 14 -2 -1 -4 -1 -11 0 -17 1 -5 2 -46 3 -90 0 -47 5 -83 11 -87 8 -5 6 -13
-6 -25 -14 -17 -15 -22 -3 -39 15 -20 15 -71 1 -93 -4 -8 -2 -16 5 -21 8 -5 9
-13 2 -26 -13 -25 -10 -63 5 -72 7 -4 13 -31 14 -60 2 -33 7 -52 14 -52 16 0
27 -57 26 -137 0 -55 9 -78 22 -55 2 4 2 2 1 -5 -13 -55 -14 -82 -5 -87 6 -4
11 -16 11 -27 0 -10 4 -19 9 -19 6 0 7 -16 4 -35 -4 -23 -2 -35 6 -35 6 0 11
-10 11 -23 0 -31 10 -40 27 -25 12 10 13 7 8 -15 -4 -15 -4 -48 0 -74 6 -41 8
-45 18 -28 6 11 12 23 12 28 0 4 3 7 8 7 17 0 0 -97 -18 -104 -8 -3 -15 -10
-15 -16 0 -16 40 14 54 41 10 19 26 28 26 14 0 -3 0 -15 0 -27 0 -13 -14 -38
-30 -57 -25 -28 -32 -31 -45 -21 -19 16 -100 186 -119 252 -25 84 -46 178 -46
203 0 12 -6 38 -14 56 -14 35 -28 110 -46 259 -6 47 -17 119 -25 160 -8 41
-19 118 -25 170 -30 252 -31 272 -19 286 8 10 7 29 -5 76 -15 62 -17 118 -4
128 3 3 2 43 -3 90 -6 47 -8 106 -5 131 4 25 3 49 -1 53 -5 4 -9 40 -9 79 -1
40 -9 115 -17 167 -9 52 -12 99 -8 105 4 5 4 48 -1 95 -13 132 -19 239 -23
440 -3 102 -10 230 -17 285 l-12 100 -8 -105 c-4 -58 -13 -115 -19 -127 -10
-18 -10 -58 -1 -175 17 -216 40 -454 57 -583 8 -60 19 -202 25 -315 25 -508
31 -594 51 -730 11 -80 24 -192 29 -250 5 -58 21 -157 35 -220 109 -465 142
-553 263 -700 107 -130 193 -207 300 -271 34 -20 46 -57 13 -39 -13 7 -21 7
-21 1 0 -6 -6 -8 -14 -5 -18 7 -31 -15 -18 -28 8 -8 16 -7 27 2 21 17 32 4 17
-20 -7 -11 -8 -20 -3 -20 6 0 13 5 16 10 9 14 25 3 36 -27 7 -18 5 -34 -6 -56
-17 -35 -18 -40 -6 -32 6 3 9 -3 9 -12 -1 -23 18 -133 27 -154 3 -9 -1 -22
-10 -29 -13 -11 -19 -10 -34 4 -11 10 -22 28 -25 42 -4 13 -11 24 -16 24 -13
0 -13 -33 1 -47 6 -6 14 -27 19 -46 7 -32 5 -36 -14 -40 -20 -3 -20 -4 4 -14
l25 -10 -30 -6 c-62 -12 -504 -20 -1265 -23 -1208 -4 -1352 -4 -1361 2 -5 3
-9 12 -9 20 0 12 56 14 383 14 210 0 405 3 434 6 47 6 52 9 55 33 2 21 9 27
40 32 72 11 288 134 288 164 0 7 -7 21 -16 30 -12 12 -16 35 -16 96 0 44 -4
94 -9 112 -8 25 -16 147 -19 278 -1 8 -12 1 -25 -16 -22 -27 -25 -39 -24 -120
0 -87 13 -285 20 -315 3 -11 -6 -16 -28 -18 -28 -3 -34 1 -47 32 -9 22 -27 40
-50 51 -65 31 -111 103 -160 253 -29 86 -71 143 -128 172 -33 16 -36 30 -8 30
11 0 20 3 21 8 0 4 3 18 5 32 2 14 4 30 4 35 0 40 -11 240 -15 285 -4 30 -8
74 -10 98 -1 23 -6 54 -9 67 -4 14 -11 69 -17 123 -15 149 -19 175 -30 188 -5
6 -7 18 -3 27 7 18 -12 57 -27 57 -7 0 -9 -10 -5 -25 5 -18 3 -23 -8 -19 -22
9 -30 -16 -10 -31 16 -12 17 -17 6 -35 -7 -11 -9 -26 -5 -33 4 -7 8 -25 9 -42
2 -16 5 -46 8 -65 6 -35 13 -102 18 -192 2 -27 5 -48 8 -48 3 0 5 -47 5 -105
0 -58 4 -105 9 -105 5 0 1 -9 -9 -20 -10 -11 -15 -23 -10 -28 4 -4 10 -1 12 6
3 6 9 9 14 6 6 -4 6 -10 -1 -18 -5 -7 -13 -48 -16 -90 -7 -71 -9 -77 -33 -83
-15 -4 -44 1 -71 11 -25 10 -54 20 -65 22 -19 5 -20 15 -23 147 -1 78 -4 158
-7 177 -7 57 -25 259 -30 340 -6 94 -6 91 -15 175 -5 39 -11 124 -14 190 -4
66 -9 131 -12 145 -3 14 -8 50 -10 80 -3 30 -9 71 -13 90 -5 19 -9 42 -9 50 0
8 -5 38 -11 65 -7 28 -13 61 -14 75 -2 26 -13 40 -35 40 -10 0 -12 -16 -8 -72
4 -40 9 -109 12 -153 3 -44 8 -82 12 -85 4 -3 8 -27 8 -55 3 -84 15 -239 19
-244 3 -2 1 -9 -4 -15 -5 -6 -2 -39 5 -76 8 -36 12 -70 10 -77 -3 -6 0 -14 7
-16 9 -3 8 -8 -2 -21 -12 -14 -12 -21 -3 -37 7 -11 10 -30 6 -44 -3 -13 -2
-30 2 -37 5 -7 10 -44 11 -83 2 -64 9 -153 14 -165 1 -3 0 -13 -1 -24 -1 -10
2 -16 7 -13 4 3 9 -41 10 -96 1 -56 3 -123 4 -149 2 -71 -17 -101 -71 -112
-39 -7 -54 -4 -110 19 -46 20 -85 29 -133 30 -37 2 -70 5 -72 7 -5 5 -10 60
-20 243 -4 55 -8 106 -11 114 -3 8 -7 58 -10 110 -6 111 -11 158 -19 171 -3 5
-1 11 5 15 6 4 8 10 6 13 -6 9 -14 201 -21 476 -7 239 -9 270 -25 421 -5 55
-13 143 -16 195 -3 52 -9 127 -14 165 -11 87 -19 219 -25 440 -7 252 -12 366
-29 615 -9 124 -19 324 -22 445 -3 121 -10 236 -15 255 -12 51 0 -485 17 -740
26 -401 35 -585 32 -679 l-3 -94 -128 -39 -128 -38 -60 27 c-57 27 -60 30 -75
83 -9 30 -23 62 -33 71 -21 21 -131 82 -137 76 -6 -6 80 -57 95 -57 6 0 11 -4
11 -10 0 -12 -33 -13 -46 -1 -12 11 -62 26 -51 16 4 -5 -1 -18 -10 -29 -18
-20 -18 -20 10 -3 29 19 47 15 47 -8 0 -9 6 -12 16 -8 9 3 20 0 25 -8 12 -19
11 -76 -1 -84 -14 -8 -13 -26 1 -22 6 1 18 -22 27 -50 15 -56 29 -68 34 -31 2
18 10 23 36 24 39 2 62 -25 62 -73 0 -19 5 -34 13 -35 6 0 17 -2 24 -2 22 -2
93 -67 93 -86 0 -23 -20 -70 -30 -70 -5 0 -34 -27 -65 -59 -54 -56 -125 -98
-145 -86 -5 3 -11 1 -15 -5 -8 -13 -91 -13 -116 1 -16 8 -19 7 -17 -3 4 -20
-40 -86 -63 -93 -11 -4 -34 -22 -51 -41 -17 -19 -37 -34 -45 -34 -20 0 -16 34
7 55 11 10 18 21 15 23 -8 8 -55 -40 -55 -56 0 -52 -69 -187 -86 -169 -9 9 6
97 17 97 5 0 9 5 9 10 0 6 -11 3 -25 -6 -24 -16 -25 -16 -25 10 0 15 6 29 14
32 8 3 17 21 21 40 3 20 15 50 26 67 20 35 26 72 8 62 -6 -4 -8 -13 -5 -21 3
-8 -10 -29 -29 -49 -19 -19 -35 -38 -35 -42 0 -4 -7 -21 -16 -38 -9 -19 -12
-39 -8 -55 4 -14 7 -28 6 -31 -1 -4 7 -29 17 -55 10 -27 16 -55 13 -62 -5 -17
-37 -15 -52 3 -6 8 -22 17 -33 21 -12 4 -40 22 -61 40 -24 21 -50 34 -67 34
-18 0 -32 7 -39 19 -13 26 -13 100 2 154 8 31 8 51 0 72 -9 25 -11 26 -11 8
-1 -14 -22 -36 -68 -69 -199 -141 -464 -358 -629 -516 -50 -49 -95 -88 -98
-88 -4 0 -25 38 -47 85 -21 47 -46 88 -54 92 -16 6 -55 -23 -55 -41 0 -6 5 -5
12 2 16 16 28 15 28 -2 0 -7 9 -25 20 -38 10 -14 24 -47 30 -73 6 -26 20 -59
30 -73 11 -13 20 -29 20 -35 0 -6 7 -18 16 -28 9 -10 14 -26 10 -35 -9 -24
-32 -1 -40 40 -10 51 -47 86 -93 86 -59 0 -100 -31 -116 -87 -10 -36 -19 -49
-35 -51 -38 -6 -24 -22 18 -22 40 0 40 0 40 38 0 20 9 52 20 70 17 28 25 32
64 32 27 0 48 -6 57 -16 11 -13 -11 -39 -163 -192 -96 -97 -208 -211 -247
-253 -70 -75 -73 -77 -102 -66 -47 18 -65 1 -61 -62 3 -49 1 -53 -45 -103
-146 -158 -297 -341 -488 -594 -460 -609 -650 -788 -870 -824 l-49 -8 -110
112 c-557 566 -1001 1329 -1225 2103 -241 833 -260 1684 -56 2518 88 361 200
666 375 1020 250 504 572 945 971 1329 815 786 1863 1255 2999 1345 153 12
597 13 746 1z m1652 -1509 c172 -63 306 -188 323 -300 4 -25 10 -61 14 -80 7
-31 6 -33 -14 -27 -71 20 -67 20 -50 0 22 -26 43 -83 35 -92 -4 -4 -14 1 -21
12 -8 10 -18 15 -24 11 -7 -3 -11 2 -11 14 0 11 -4 22 -9 25 -5 3 -9 21 -8 39
1 21 -8 45 -21 62 -19 24 -22 25 -22 8 0 -10 5 -24 10 -29 6 -6 13 -37 16 -70
3 -32 10 -63 15 -68 12 -14 11 -50 -2 -63 -8 -8 -5 -17 10 -32 26 -26 27 -41
2 -34 -19 5 -41 42 -41 68 0 18 -12 19 -28 3 -10 -10 -14 -8 -18 9 -6 23 -30
38 -39 23 -11 -17 14 -58 37 -62 13 -2 23 -10 23 -18 0 -8 14 -24 32 -35 18
-11 32 -27 32 -35 0 -11 -3 -10 -14 4 -15 20 -20 13 -16 -26 1 -9 -7 -22 -18
-27 -28 -15 -31 -14 -31 13 0 13 -7 26 -15 30 -17 6 -21 46 -4 46 6 0 13 -9
16 -20 6 -23 23 -27 23 -6 0 25 -12 46 -26 46 -8 0 -14 5 -14 10 0 6 -4 10
-10 10 -5 0 -10 -7 -10 -15 0 -8 -7 -15 -15 -15 -10 0 -15 10 -15 31 0 26 -2
29 -14 20 -12 -10 -15 -5 -21 29 -6 33 -3 45 11 62 18 19 18 20 -4 38 -23 19
-30 50 -12 50 6 0 20 -16 31 -35 12 -19 26 -35 31 -35 6 0 5 7 -2 15 -7 9 -14
39 -16 67 -1 29 -9 57 -18 66 -24 24 -29 9 -9 -26 20 -34 12 -52 -13 -32 -12
11 -17 11 -23 2 -5 -8 -16 -3 -36 18 -16 16 -34 30 -40 30 -13 0 -28 117 -18
133 3 5 12 -1 20 -13 10 -13 23 -20 41 -18 20 2 27 -2 32 -21 3 -16 17 -28 35
-34 16 -6 36 -17 44 -24 11 -12 15 -12 22 -2 6 10 9 10 15 -4 3 -9 10 -14 15
-12 10 7 -25 77 -51 100 -25 23 -39 11 -17 -13 10 -10 17 -24 17 -30 0 -18
-48 7 -55 28 -3 10 -14 25 -25 35 -18 16 -20 16 -26 1 -5 -13 -12 -10 -40 21
-31 33 -32 37 -16 49 14 11 15 16 5 33 -7 12 -13 23 -13 26 0 11 73 -6 126
-30 31 -14 59 -24 61 -21 9 9 -92 60 -151 76 -48 13 -62 21 -64 38 -4 28 16
28 86 3z m-9 -372 c17 -17 31 -36 31 -42 0 -7 7 -20 15 -31 12 -16 12 -21 0
-40 -23 -35 0 -99 53 -148 12 -12 22 -27 22 -34 0 -7 4 -14 9 -16 4 -1 11 -24
15 -50 6 -39 4 -48 -8 -48 -22 0 -30 19 -14 37 10 13 10 17 1 20 -7 3 -13 16
-13 29 0 13 -4 24 -10 24 -5 0 -10 -14 -10 -32 0 -17 -8 -40 -17 -50 -16 -18
-16 -18 0 -12 9 3 17 2 17 -3 0 -5 9 -19 20 -30 16 -17 20 -39 23 -105 2 -59
8 -91 20 -108 18 -26 22 -50 9 -50 -5 0 -15 11 -22 24 -7 14 -20 28 -28 31
-12 4 -12 2 2 -17 37 -52 36 -60 -2 -18 -46 51 -48 56 -27 96 8 16 15 36 15
46 0 22 -42 99 -58 105 -24 10 -23 -4 3 -42 38 -57 34 -93 -17 -145 -39 -39
-38 -42 6 -24 20 8 40 -51 42 -126 1 -36 3 -66 3 -67 1 -2 0 -5 -1 -6 -2 -2 4
-12 12 -22 13 -15 12 -19 -3 -30 -24 -17 -23 -60 1 -50 43 17 44 14 7 -19 -22
-20 -43 -36 -47 -36 -5 0 -8 -5 -8 -10 0 -6 20 1 45 14 25 14 46 25 46 23 1
-1 3 -15 5 -30 2 -22 -2 -30 -20 -37 -13 -5 -26 -16 -29 -24 -7 -18 8 -22 18
-6 4 6 11 8 16 5 5 -4 9 -2 9 4 0 6 14 17 30 26 17 9 30 23 30 32 0 13 -3 14
-12 5 -19 -19 -25 -14 -26 18 -1 37 10 38 37 4 12 -16 27 -24 36 -21 37 15
104 -35 73 -54 -21 -13 -2 -21 59 -23 l58 -2 -3 -35 c-4 -35 -36 -79 -59 -79
-7 0 -13 -8 -13 -19 0 -18 -28 -50 -38 -42 -4 3 -103 -92 -156 -149 -20 -22
-56 -92 -56 -110 -1 -24 -38 30 -46 65 -3 17 -12 37 -20 45 -16 19 -23 108
-29 345 -4 178 -9 280 -21 403 -6 62 -5 62 20 62 14 0 26 5 26 10 0 6 -4 10
-10 10 -5 0 -10 9 -10 20 0 11 -6 20 -14 20 -24 0 -25 89 -1 127 20 32 35 42
35 23 0 -5 6 -10 14 -10 10 0 17 16 22 45 4 28 11 45 20 45 19 0 18 5 -12 37
l-27 28 6 -32 c4 -18 2 -35 -2 -38 -5 -3 -7 -15 -4 -26 4 -16 2 -20 -8 -17 -8
3 -15 15 -15 27 -2 29 -11 36 -27 23 -16 -14 -27 -6 -27 20 0 17 5 19 33 13
l32 -6 -33 28 c-26 23 -32 35 -32 67 0 30 3 37 15 32 8 -3 15 -1 15 5 0 5 -6
12 -14 15 -23 9 -30 56 -11 70 12 9 13 17 5 38 -17 47 -13 47 29 5z m-1593
-4974 c149 -114 90 -335 -89 -335 -159 0 -242 180 -139 302 59 70 160 85 228
33z m-839 -12 c50 -38 83 -106 83 -169 0 -50 -3 -57 -42 -98 -109 -112 -283
-67 -317 82 -17 77 21 153 99 197 38 21 53 24 95 19 30 -4 63 -16 82 -31z
m-433 17 c28 -10 56 -57 56 -93 0 -33 -51 -87 -83 -87 -39 0 -50 -23 -44 -90
4 -44 1 -62 -9 -71 -20 -17 -22 -5 -27 184 l-4 167 43 0 c23 0 54 -4 68 -10z
m-990 -47 c15 -106 32 -109 113 -18 32 36 61 65 66 65 18 0 3 -22 -48 -71 -62
-59 -68 -83 -29 -120 28 -26 114 -134 114 -143 0 -21 -27 4 -77 72 -44 58 -65
78 -86 80 -39 5 -54 -32 -40 -101 12 -58 10 -67 -15 -67 -15 0 -17 17 -17 175
-1 173 6 219 19 128z m1871 37 c3 -5 6 -80 7 -167 1 -188 -4 -195 -74 -95 -26
37 -61 86 -77 108 -36 50 -89 82 -98 58 -6 -15 1 -196 8 -223 2 -8 -4 -17 -14
-19 -16 -3 -17 9 -16 167 0 99 4 171 10 171 5 0 9 -6 9 -13 0 -7 15 -27 33
-43 17 -16 59 -64 91 -106 96 -125 110 -118 105 51 -4 111 0 137 16 111z
m-1385 -37 c0 -7 7 -16 15 -19 8 -4 22 -31 31 -62 9 -30 31 -84 50 -120 37
-71 42 -92 20 -92 -9 0 -21 21 -30 55 -20 66 -44 85 -111 85 -48 0 -53 -3 -82
-41 -18 -23 -35 -54 -38 -70 -4 -16 -13 -29 -21 -29 -12 0 -12 4 0 33 125 286
133 302 152 287 8 -7 14 -19 14 -27z m4682 -510 c0 -16 0 -38 -1 -50 -1 -12 3
-24 9 -28 6 -3 10 3 10 15 0 11 8 24 18 27 9 4 22 13 28 21 7 9 16 12 24 7 10
-6 10 -10 -2 -19 -8 -6 -19 -22 -23 -36 -4 -14 -4 -22 0 -18 11 10 38 -29 30
-42 -3 -6 -2 -10 4 -10 5 0 9 19 8 43 -2 36 1 42 18 42 15 0 20 -7 20 -25 0
-33 27 -90 42 -90 7 0 13 7 13 17 0 9 3 14 6 11 3 -3 0 -24 -6 -47 -11 -42
-29 -51 -60 -31 -13 9 -13 11 0 21 12 8 11 9 -6 5 -23 -7 -83 19 -91 40 -3 8
-11 14 -17 14 -7 0 -33 24 -59 54 l-47 55 33 25 c41 33 47 32 49 -1z m576 -6
c41 -33 27 -98 -28 -130 -30 -18 -80 -19 -80 -3 0 11 21 124 26 144 4 15 59 8
82 -11z m-4604 -947 c29 -11 75 -54 94 -87 6 -13 12 -45 12 -72 0 -41 -6 -56
-38 -96 -21 -26 -80 -79 -132 -119 -133 -100 -130 -111 30 -137 90 -15 100
-21 91 -57 -6 -21 -14 -27 -37 -29 -39 -3 -359 79 -358 92 0 6 27 28 59 50 90
62 247 197 283 245 44 57 41 95 -8 128 -25 17 -43 22 -65 18 -30 -7 -75 -42
-75 -60 0 -6 -4 -18 -10 -26 -7 -12 -12 -12 -29 4 -25 23 -26 37 -5 82 28 60
119 91 188 64z m1615 -14 c13 -6 38 -28 55 -49 29 -36 31 -45 31 -118 0 -77 1
-80 32 -104 64 -50 78 -147 33 -220 -46 -74 -175 -101 -250 -51 -68 45 -87
112 -60 213 11 42 11 55 1 67 -8 9 -19 16 -26 16 -18 0 -45 62 -45 104 0 124
116 195 229 142z m-1029 -86 c138 -99 147 -393 15 -509 -64 -56 -119 -65 -192
-32 -87 40 -130 142 -120 285 6 98 30 166 77 219 60 68 154 84 220 37z m492
18 c80 -24 151 -143 168 -280 21 -178 -87 -320 -224 -294 -94 18 -172 129
-183 263 -6 79 9 175 34 212 10 14 16 29 15 34 -1 4 1 6 6 5 4 0 16 3 26 7 19
8 19 9 0 15 -17 6 -15 10 16 29 39 24 84 27 142 9z m-2692 -88 c27 -21 21 -27
-11 -10 -11 6 -19 7 -19 1 0 -11 24 -21 51 -21 28 0 76 -47 63 -60 -8 -8 -19
-8 -38 0 -37 14 -39 13 -70 -15 l-28 -26 27 -34 c31 -41 26 -59 -12 -44 -22 8
-32 6 -52 -9 -41 -30 -39 -57 8 -88 42 -27 49 -38 31 -49 -13 -8 -160 76 -160
91 0 6 9 19 19 28 26 24 129 186 142 225 13 36 16 37 49 11z m4814 -26 c8 -29
80 -145 129 -206 29 -37 30 -38 12 -58 -25 -28 -32 -26 -56 23 -17 34 -80 107
-94 107 -1 0 -8 -23 -15 -51 -14 -56 -26 -65 -67 -52 -16 5 -38 7 -50 5 -21
-3 -21 -4 -6 -40 8 -20 29 -56 45 -80 30 -44 30 -44 11 -64 -20 -19 -20 -19
-99 99 -49 73 -89 123 -106 131 -37 17 -35 25 6 40 29 11 45 10 109 -9 95 -28
103 -23 112 74 5 57 12 76 28 89 29 23 34 22 41 -8z m-4381 -232 c-1 -5 9 -13
23 -16 31 -8 82 -61 90 -93 16 -61 -21 -97 -95 -94 -52 2 -84 -22 -102 -76
-10 -31 -14 -34 -38 -28 -38 9 -47 22 -29 42 17 19 108 216 108 234 0 20 21
50 33 46 7 -3 11 -9 10 -15z m3957 -3 c0 -20 51 -137 90 -208 l38 -71 -21 -15
c-12 -8 -27 -15 -34 -15 -8 0 -30 -11 -51 -24 -20 -14 -53 -28 -72 -31 -50 -9
-82 20 -132 119 -22 44 -50 94 -61 110 l-20 29 22 18 c32 27 61 25 61 -3 0
-29 63 -174 86 -199 9 -10 30 -19 45 -19 30 0 89 44 89 66 0 15 -69 149 -102
195 -14 21 -15 29 -5 37 27 21 67 28 67 11z m-3605 -140 c7 -7 0 -8 -20 -4
l-30 7 24 -20 25 -20 -20 -43 c-10 -24 -19 -46 -20 -49 0 -3 -13 -31 -27 -63
-15 -32 -27 -61 -27 -66 0 -15 35 -39 68 -46 35 -7 35 -7 26 -29 -8 -21 -31
-20 -101 6 -77 28 -81 32 -60 68 25 42 97 236 97 261 0 18 4 20 28 14 15 -3
32 -11 37 -16z m3225 -89 c7 -30 17 -62 21 -70 4 -8 20 -50 35 -94 22 -65 24
-80 13 -87 -26 -16 -45 -9 -118 41 -40 28 -82 50 -93 50 -17 0 -19 -5 -14 -39
3 -22 12 -56 20 -75 14 -34 14 -37 -6 -50 -25 -18 -38 -12 -38 15 0 11 -18 67
-41 125 -30 77 -48 110 -72 128 -36 29 -35 32 14 41 31 6 40 2 85 -35 65 -55
164 -106 164 -85 0 8 4 15 9 15 11 0 -22 103 -44 137 -21 31 -19 40 13 51 32
11 35 8 52 -68z m-2950 -12 c10 -6 4 -8 -20 -4 l-35 5 28 -15 c20 -11 27 -20
22 -32 -24 -63 -55 -172 -55 -198 0 -17 6 -36 13 -41 23 -19 70 -24 98 -12 32
13 36 23 65 167 10 50 23 92 29 92 5 -1 24 -7 40 -16 l30 -14 -35 4 c-31 4
-32 4 -12 -6 12 -6 22 -15 22 -21 0 -5 -13 -53 -29 -106 -16 -53 -35 -116 -41
-140 -10 -37 -14 -42 -33 -38 -12 4 -52 13 -89 22 -80 20 -112 49 -112 103 0
29 31 190 50 260 4 14 34 9 64 -10z m2520 -98 c0 -20 14 -90 30 -155 31 -123
30 -134 -11 -135 -9 0 -44 -9 -78 -20 -55 -17 -67 -18 -94 -6 -39 16 -48 33
-88 161 -42 138 -42 139 4 143 37 3 37 3 37 -35 0 -43 30 -166 49 -202 11 -21
18 -23 58 -18 27 3 54 13 66 26 l21 20 -24 83 c-13 46 -31 102 -41 126 l-18
42 24 0 c13 0 26 4 30 10 13 21 35 -3 35 -40z m-2093 -26 c51 -17 100 -63 110
-102 4 -16 -1 -32 -16 -50 -59 -75 -58 -69 -24 -133 16 -32 28 -61 25 -63 -10
-11 -42 16 -63 54 -27 47 -54 60 -74 33 -8 -10 -15 -26 -15 -35 0 -14 -9 -18
-36 -18 -33 0 -36 2 -30 23 13 44 46 231 46 262 0 50 6 53 77 29z m357 -64
c23 -8 24 -12 15 -42 -12 -42 -32 -181 -33 -233 -1 -38 -3 -40 -35 -43 l-34
-3 7 43 c16 97 25 186 26 236 0 56 6 61 54 42z m1114 -12 c3 -13 -3 -18 -20
-18 -38 0 -70 -28 -66 -58 2 -19 16 -33 52 -54 81 -48 102 -79 85 -127 -12
-34 -34 -50 -88 -62 -39 -9 -61 3 -61 32 0 16 8 19 45 19 49 0 67 18 48 48
-10 17 -16 21 -85 52 -56 26 -74 62 -58 121 14 51 43 70 100 67 33 -2 46 -7
48 -20z m-796 -17 c38 -14 62 -54 54 -91 -3 -16 -9 -43 -12 -59 -3 -16 0 -40
8 -57 21 -41 9 -76 -32 -96 -35 -18 -96 -23 -138 -11 -20 5 -23 10 -18 37 5
24 16 232 16 289 0 9 90 1 122 -12z m287 -116 c1 -119 10 -152 46 -161 28 -7
73 2 92 18 15 12 16 92 3 193 -5 38 -7 71 -5 73 1 2 18 0 36 -3 l34 -6 3 -158
3 -158 -91 -6 c-145 -11 -163 7 -175 170 -4 49 -10 102 -15 120 -7 29 -6 32
18 35 46 6 51 -6 51 -117z"/>
<path d="M5438 10010 c-12 -8 -15 -19 -11 -43 3 -18 -5 -79 -17 -135 -12 -57
-20 -105 -18 -108 5 -4 46 192 50 241 3 28 6 30 52 33 37 2 47 0 44 -10 -3 -7
-11 -31 -18 -53 -7 -22 -16 -49 -21 -60 -4 -11 -7 -27 -7 -35 0 -8 -9 -49 -20
-90 -17 -66 -33 -140 -33 -155 0 -3 -6 -26 -14 -52 -8 -27 -15 -58 -15 -69 0
-12 -7 -27 -15 -34 -17 -14 -11 -30 10 -30 23 0 31 24 101 296 36 143 70 267
75 276 7 13 4 20 -10 28 -25 13 -110 13 -133 0z"/>
<path d="M4842 10000 l-23 -10 24 -47 c13 -27 43 -110 67 -185 24 -76 45 -136
48 -134 6 6 -76 262 -99 310 -10 21 -16 43 -13 47 6 11 104 12 105 2 1 -5 3
-21 5 -38 3 -30 40 -168 74 -280 28 -90 25 -26 -5 123 -14 68 -25 143 -25 166
0 31 -5 46 -16 50 -23 9 -116 6 -142 -4z"/>
<path d="M5998 9938 c-20 -17 -81 -99 -205 -278 -55 -80 -119 -167 -142 -195
-51 -62 -54 -79 -3 -24 35 39 77 97 203 279 86 124 150 210 158 210 6 0 71
-195 123 -370 11 -36 33 -105 50 -154 25 -72 28 -90 17 -97 -10 -6 -6 -9 14
-9 36 0 42 19 24 72 -9 24 -31 95 -50 158 -131 429 -139 448 -189 408z"/>
<path d="M4392 9927 c-6 -7 -29 -75 -52 -152 -23 -77 -64 -210 -92 -295 -27
-85 -52 -162 -54 -170 -3 -8 5 3 17 25 12 22 55 150 94 285 82 275 90 300 104
300 6 0 50 -57 98 -126 157 -224 225 -318 249 -345 13 -14 24 -30 24 -36 0 -7
-26 -17 -57 -24 -76 -16 -51 -23 33 -10 93 14 97 22 42 79 -25 26 -87 106
-139 177 -227 318 -237 329 -267 292z"/>
<path d="M3851 9806 c-36 -12 -67 -28 -69 -34 -2 -6 5 -24 16 -39 10 -16 27
-49 37 -76 10 -26 20 -46 22 -44 5 6 -36 109 -48 122 -19 19 -9 43 22 54 48
16 56 14 57 -18 0 -15 8 -46 17 -67 9 -22 30 -79 46 -129 44 -139 62 -186 92
-242 34 -65 34 -71 0 -84 -16 -6 -39 -15 -52 -20 -13 -5 -21 -12 -18 -15 6 -6
118 25 134 38 14 11 15 6 -43 155 -46 119 -88 255 -104 342 -9 51 -25 82 -39
80 -3 0 -35 -11 -70 -23z"/>
<path d="M6487 9823 c-4 -3 -7 -27 -7 -53 0 -58 -82 -368 -115 -434 -14 -27
-23 -51 -21 -54 9 -8 54 96 76 173 44 161 68 261 75 309 l8 48 39 -5 c22 -3
42 -8 46 -11 3 -3 -6 -41 -21 -84 -38 -110 -92 -334 -103 -424 -4 -36 -10 -48
-22 -48 -11 0 -13 -3 -5 -11 6 -6 21 -9 34 -7 19 2 25 10 27 38 6 64 102 445
123 484 17 32 18 41 7 51 -28 26 -124 45 -141 28z"/>
<path d="M3515 9704 c-66 -24 -71 -35 -42 -85 28 -49 120 -332 142 -437 l14
-67 -4 55 c-5 57 -103 377 -136 442 -25 49 -24 55 11 73 47 24 55 20 66 -42
14 -71 47 -144 73 -160 16 -10 37 -7 118 19 101 31 113 39 112 73 l-1 20 -5
-20 c-3 -11 -8 -23 -12 -27 -9 -10 -170 -58 -193 -58 -19 0 -41 63 -53 150
-13 89 -16 91 -90 64z"/>
<path d="M6846 9694 c-3 -9 -6 -26 -6 -39 0 -25 -86 -273 -126 -363 -13 -29
-32 -66 -44 -82 -11 -15 -20 -34 -20 -41 0 -24 49 54 79 125 47 114 119 318
126 359 7 37 9 39 39 33 59 -12 63 -27 29 -98 -17 -35 -40 -90 -51 -123 -12
-33 -35 -98 -52 -145 -16 -46 -33 -107 -36 -135 -4 -27 -11 -56 -16 -62 -7 -9
-5 -15 5 -19 20 -7 37 3 37 21 0 24 110 344 151 440 43 100 43 101 -29 129
-53 20 -78 20 -86 0z"/>
<path d="M3775 9438 c-44 -16 -88 -30 -98 -29 -39 0 -31 -46 30 -178 28 -60
23 -83 -17 -89 -22 -4 -57 -29 -49 -36 10 -7 131 38 136 50 3 8 -11 55 -32
104 -50 124 -47 137 35 162 36 11 74 26 85 34 30 22 0 16 -90 -18z"/>
<path d="M4821 9174 c-93 -47 -133 -144 -97 -239 27 -69 79 -109 156 -117 44
-5 37 -42 -26 -134 -31 -47 -55 -87 -52 -90 11 -10 128 171 128 198 0 22 -22
38 -52 38 -76 0 -130 50 -148 135 -13 63 2 110 53 163 54 56 166 71 228 29
104 -69 89 -184 -61 -468 -5 -9 -12 -33 -15 -53 -5 -23 -13 -36 -24 -37 -39
-1 -71 -8 -88 -19 -14 -8 -3 -9 47 -5 93 9 97 11 109 59 6 23 37 94 69 157 61
119 88 215 76 266 -30 121 -179 179 -303 117z"/>
<path d="M5446 9104 c-11 -10 -16 -34 -16 -74 0 -64 13 -86 58 -96 116 -25
162 -84 147 -188 -7 -44 -50 -106 -74 -106 -7 0 -20 -9 -29 -20 -30 -37 -200
-24 -234 17 -8 10 -6 22 8 48 21 40 26 42 45 18 37 -44 140 -57 178 -22 56 52
52 124 -11 169 -36 26 -49 30 -102 29 l-61 -2 60 -7 c79 -10 111 -26 130 -67
30 -62 -10 -123 -82 -123 -36 0 -50 6 -84 37 l-41 37 -24 -27 c-38 -45 -42
-76 -11 -103 27 -23 104 -44 161 -44 152 0 268 170 196 288 -22 36 -65 58
-145 77 l-50 11 -3 66 c-2 50 1 70 13 82 14 14 14 16 1 16 -8 0 -22 -7 -30
-16z"/>
<path d="M6004 9087 c-103 -49 -141 -193 -76 -283 28 -39 33 -27 6 14 -23 33
-25 44 -21 100 8 111 88 179 196 169 139 -13 200 -120 139 -244 -12 -26 -60
-85 -106 -132 -77 -80 -142 -163 -142 -183 0 -4 -26 -6 -57 -3 l-58 5 63 -16
c72 -18 88 -15 102 21 5 14 57 75 114 136 126 132 161 194 154 270 -6 63 -30
96 -97 133 -75 40 -150 45 -217 13z"/>
<path d="M4265 9043 c-26 -32 -50 -66 -56 -75 -19 -35 0 -17 47 43 47 59 48
60 60 37 6 -13 30 -99 54 -193 23 -93 53 -201 66 -239 13 -38 24 -75 24 -81 0
-13 -87 -42 -96 -32 -3 3 -7 33 -9 67 -3 35 -11 86 -19 114 -8 28 -22 87 -31
131 -18 82 -37 125 -57 125 -6 0 -3 -8 6 -19 20 -22 85 -303 86 -367 0 -22 6
-48 13 -58 12 -17 17 -17 72 -2 86 22 91 31 61 97 -14 30 -49 149 -77 264 -28
116 -55 218 -60 228 -16 29 -37 19 -84 -40z"/>
<path d="M6044 9009 c-33 -9 -68 -64 -60 -91 2 -7 7 -26 10 -41 12 -51 104
-85 157 -57 24 13 49 61 49 95 0 40 -35 83 -78 95 -20 5 -39 10 -42 9 -3 0
-19 -5 -36 -10z m119 -40 c34 -37 34 -69 1 -108 -21 -25 -34 -31 -64 -31 -53
0 -80 29 -80 87 0 90 80 119 143 52z"/>
<path d="M7131 8925 c-2 -85 -3 -85 -100 -85 -112 0 -190 -13 -256 -44 -108
-49 -190 -154 -197 -250 -4 -58 -8 -55 144 -63 l98 -4 97 100 c54 56 103 101
109 101 6 0 16 -10 22 -22 l11 -23 0 22 c1 12 5 25 11 28 5 3 14 23 19 43 6
20 24 52 40 69 16 18 26 35 21 38 -5 3 -7 20 -4 38 3 17 0 46 -5 62 l-9 30 -1
-40z m-283 -156 c20 -7 42 -7 65 -1 20 6 40 6 50 1 9 -6 35 -5 63 1 26 6 48 9
50 7 2 -1 -8 -15 -22 -30 -17 -18 -32 -26 -44 -22 -13 4 -35 -12 -79 -56 l-62
-62 -28 27 c-15 14 -30 26 -34 26 -13 0 16 -48 34 -56 17 -8 16 -11 -10 -43
-24 -29 -38 -35 -101 -47 -65 -13 -76 -12 -97 2 -20 13 -23 21 -18 47 4 18 14
37 22 44 9 7 12 17 7 24 -5 9 -2 10 12 5 10 -5 28 -10 39 -13 15 -3 13 0 -7
14 -16 10 -28 23 -28 29 0 19 38 46 68 48 15 1 40 9 55 19 14 9 32 17 38 17 8
0 8 4 -1 15 -15 18 -12 18 28 4z"/>
<path d="M6847 8423 c-3 -16 -35 -77 -71 -136 -50 -83 -66 -118 -66 -146 0
-21 -7 -61 -15 -89 -15 -48 -14 -55 1 -80 15 -27 15 -32 -11 -106 l-27 -77 25
-25 c26 -26 37 -80 37 -185 0 -33 5 -61 13 -67 7 -6 44 -18 82 -26 81 -19 145
-45 145 -59 0 -6 3 -8 6 -5 3 3 -1 16 -8 27 -16 26 -3 50 38 71 22 11 25 15
12 18 -9 2 -25 -1 -36 -7 -23 -12 -182 -3 -201 12 -10 8 -12 26 -7 64 5 40 3
53 -7 53 -19 0 -16 82 3 97 13 10 11 12 -12 18 -48 12 -53 28 -27 90 25 60 39
70 39 27 0 -23 6 -29 40 -40 40 -12 84 -8 108 11 19 15 14 29 -7 17 -29 -15
-77 -12 -96 6 -9 9 -19 30 -22 46 -5 25 -8 27 -15 14 -17 -30 -31 -18 -25 24
5 40 -6 63 -17 34 -3 -8 -10 -12 -16 -9 -11 7 20 60 48 83 14 11 14 12 -1 12
-27 0 -19 19 11 26 44 10 49 12 20 13 -33 1 -58 10 -58 22 0 5 7 9 15 9 8 0
15 6 15 14 0 8 15 26 33 40 27 22 29 26 12 26 -18 1 -17 3 8 21 15 11 27 27
27 34 0 7 7 16 16 19 9 4 14 13 10 21 -3 8 0 15 7 15 7 0 21 8 32 16 19 15 18
16 -14 9 -29 -6 -33 -5 -27 10 17 45 18 65 3 65 -8 0 -17 -12 -20 -27z"/>
<path d="M4151 7656 c-15 -18 -4 -41 35 -76 27 -25 27 -24 -4 19 -32 45 -34
68 -4 52 29 -16 63 -52 57 -61 -3 -4 11 -22 30 -39 40 -35 41 -39 18 -58 -17
-13 -17 -14 0 -5 19 9 87 -14 87 -30 0 -4 7 -8 15 -8 8 0 15 -4 15 -8 0 -4 31
-41 70 -81 38 -40 67 -77 64 -82 -3 -5 2 -6 10 -3 9 3 16 2 16 -3 0 -14 120
-70 165 -77 96 -15 211 -25 342 -31 45 -1 86 -5 91 -9 5 -3 42 -7 83 -10 55
-3 91 -13 139 -35 63 -30 110 -40 110 -23 0 9 54 34 110 51 47 14 168 23 174
12 5 -8 104 -6 159 4 15 2 27 1 27 -4 0 -5 11 -8 25 -8 14 0 35 -9 45 -18 25
-23 25 -9 0 32 -28 47 -60 65 -96 54 -16 -5 -84 -12 -151 -15 -90 -4 -142 -12
-200 -31 -97 -31 -100 -31 -203 0 -83 25 -138 32 -485 60 -115 9 -198 21 -229
32 -59 22 -135 87 -170 146 -25 44 -76 84 -133 107 -34 13 -75 59 -88 98 -4
15 -23 31 -48 43 -51 23 -61 23 -76 5z"/>
<path d="M4047 7614 c-4 -4 -7 -20 -7 -36 0 -37 -22 -45 -66 -24 -19 9 -47 16
-62 16 -17 -1 0 -10 50 -27 45 -16 79 -33 81 -42 3 -9 5 7 6 36 0 28 5 54 10
57 5 3 18 -21 30 -53 23 -65 32 -71 85 -66 20 2 36 1 36 -1 0 -2 -13 -28 -30
-57 -36 -65 -39 -83 -5 -42 13 17 24 26 25 20 0 -15 -38 -75 -49 -75 -16 0
-33 58 -27 92 l7 33 -16 -27 c-9 -16 -20 -28 -25 -28 -5 0 -12 12 -16 28 -10
46 -16 59 -21 45 -7 -19 -28 -16 -49 8 -19 21 -77 50 -98 48 -6 0 -1 -4 12 -9
53 -22 114 -75 150 -129 21 -32 69 -86 107 -120 62 -54 81 -65 165 -90 52 -16
117 -32 143 -36 27 -4 91 -28 145 -55 238 -119 433 -196 619 -242 113 -28 147
-32 283 -34 115 -1 178 -7 245 -22 49 -12 91 -19 93 -17 11 11 -10 35 -30 35
-13 0 -45 7 -73 16 -96 30 -110 33 -167 29 -33 -3 -58 -1 -58 5 0 6 -10 6 -27
-1 -15 -5 -37 -8 -49 -5 -25 7 -70 12 -157 21 -32 3 -67 10 -77 15 -10 6 -28
10 -40 10 -25 0 -231 68 -245 81 -5 5 -15 9 -22 9 -28 0 -364 163 -385 187
-13 14 -32 20 -71 21 -29 1 -82 8 -117 16 -77 18 -170 78 -170 110 0 40 57
112 75 94 3 -3 -4 -23 -15 -46 -29 -60 -26 -107 5 -66 9 13 16 14 33 5 25 -13
126 -15 118 -2 -4 5 -24 12 -45 16 -52 9 -70 29 -47 53 23 27 20 68 -6 87 -21
14 -24 14 -34 0 -18 -24 -22 -18 -17 25 5 33 3 40 -11 40 -9 0 -16 6 -16 13
-1 7 -6 5 -14 -5 -7 -10 -27 -21 -43 -24 -30 -6 -30 -5 -35 41 -3 26 -10 51
-14 55 -13 13 -59 22 -67 14z"/>
<path d="M6896 7364 c-68 -38 -145 -56 -274 -65 -86 -6 -146 -6 -168 0 -26 7
-50 6 -92 -6 -59 -16 -154 -20 -279 -12 -57 3 -75 1 -88 -12 -16 -15 -15 -18
5 -40 11 -13 32 -37 45 -54 32 -39 32 -18 0 28 -26 39 -19 56 15 35 24 -15
100 -112 100 -127 0 -15 139 -150 182 -177 20 -13 49 -26 65 -30 27 -7 27 -6
-14 34 -24 23 -58 75 -82 124 -22 45 -54 106 -71 134 l-30 51 77 6 c43 3 95 9
115 13 35 6 41 3 75 -33 21 -22 62 -69 90 -106 56 -71 137 -127 184 -127 24 0
39 -16 39 -40 0 -5 -13 -11 -30 -15 -16 -4 -33 -11 -36 -17 -11 -17 65 -2 86
17 18 16 18 18 -1 49 -14 24 -30 35 -66 44 -26 7 -66 29 -89 47 -48 40 -149
163 -141 172 14 13 147 16 162 3 12 -10 15 -10 15 4 0 19 11 21 28 4 8 -8 15
-8 25 0 7 6 32 9 56 7 36 -3 41 -2 31 10 -10 12 -8 16 6 21 11 3 27 10 37 15
11 6 21 9 23 6 5 -5 -25 -65 -37 -72 -5 -4 -9 -46 -9 -95 0 -49 -4 -92 -10
-95 -15 -9 -12 -25 5 -25 8 0 15 -7 15 -15 0 -17 16 -20 25 -5 3 6 11 10 17
10 6 0 -5 -19 -24 -42 -35 -44 -88 -130 -88 -144 0 -4 9 1 20 11 11 10 20 23
20 30 0 6 10 22 23 35 12 13 27 33 33 45 6 13 18 19 33 17 20 -2 22 0 11 13
-10 13 -5 23 36 66 27 29 57 59 67 68 66 58 87 82 87 99 0 15 -27 -7 -101 -79
-56 -54 -104 -99 -109 -99 -39 0 -40 150 -1 213 20 32 36 118 22 117 -3 -1
-19 -8 -35 -16z"/>
<path d="M7083 7035 c4 -27 9 -61 12 -75 5 -20 1 -27 -17 -35 -21 -9 -23 -16
-24 -95 -1 -47 -7 -104 -14 -127 -11 -38 -11 -45 10 -89 24 -49 146 -182 157
-170 3 3 -11 20 -31 38 -35 30 -81 94 -115 160 -12 23 -12 30 1 50 8 13 18 40
22 60 4 20 12 38 19 41 9 3 9 10 -1 31 -33 74 5 67 47 -9 15 -26 37 -55 51
-64 l25 -16 -29 50 c-16 28 -41 67 -57 87 -34 43 -38 59 -9 33 25 -23 25 -21
-7 78 -32 101 -48 121 -40 52z"/>
<path d="M2826 6864 c-9 -8 -21 -25 -27 -37 -9 -19 -7 -18 10 3 27 33 53 18
64 -39 5 -23 14 -41 21 -41 9 0 12 -9 8 -26 -3 -19 0 -26 15 -30 10 -3 25 -20
32 -37 18 -40 72 -117 83 -117 13 0 9 27 -7 40 -8 7 -15 19 -15 27 0 13 3 13
15 3 9 -8 29 -10 49 -7 32 5 34 4 39 -31 3 -20 9 -47 12 -58 8 -26 -17 -39
-45 -24 -13 7 -19 6 -24 -5 -4 -10 2 -15 17 -16 21 -1 21 -1 -2 -8 -14 -4 -26
-12 -29 -19 -5 -16 78 -16 112 0 36 16 39 36 15 98 -11 30 -23 63 -26 73 -5
15 -12 17 -43 12 -32 -5 -40 -3 -54 17 -9 12 -16 33 -16 46 0 12 -11 33 -25
46 -14 13 -36 43 -48 67 -15 28 -36 50 -58 61 -43 21 -54 22 -73 2z"/>
<path d="M6961 6789 c-1 -14 5 -34 13 -45 13 -16 13 -22 1 -40 -12 -19 -11
-27 12 -70 14 -27 34 -60 43 -74 22 -31 16 -85 -8 -75 -12 4 -14 -4 -10 -49
l4 -54 -38 0 c-53 -1 -63 -10 -36 -32 19 -16 25 -17 34 -5 6 8 19 13 29 11 23
-3 58 -61 52 -85 -3 -11 -8 -6 -17 17 -13 35 -50 64 -50 39 0 -7 5 -18 11 -24
6 -6 13 -26 16 -44 5 -37 13 -52 13 -26 0 10 5 17 10 17 6 0 10 -5 10 -11 0
-6 6 -9 13 -6 6 2 22 -12 34 -32 33 -51 28 -23 -12 85 -38 100 -44 168 -20
200 20 27 19 39 -11 84 -37 56 -54 111 -42 133 7 14 5 24 -11 40 -11 12 -24
33 -30 47 l-10 25 0 -26z"/>
<path d="M6452 6711 c4 -52 15 -89 43 -150 36 -76 37 -84 31 -148 -4 -37 -11
-72 -15 -78 -19 -23 -40 -106 -51 -205 -6 -58 -13 -121 -16 -140 -6 -52 -24
-251 -24 -278 0 -15 -7 -26 -19 -29 -25 -6 -32 -25 -25 -63 8 -39 34 -62 34
-31 0 12 -5 31 -10 42 -16 29 2 23 31 -10 l26 -30 12 25 c6 14 11 36 11 50 0
31 26 94 39 94 5 0 16 2 23 5 12 5 17 -21 27 -130 6 -75 9 -140 6 -144 -27
-44 -45 -285 -30 -396 2 -16 5 -58 6 -92 1 -40 5 -61 11 -56 7 4 8 39 3 102
-11 138 -7 265 13 351 18 81 20 151 10 300 -8 105 -12 110 -71 91 -31 -11 -35
-17 -52 -86 -11 -41 -22 -75 -26 -75 -14 0 -21 42 -10 53 6 6 11 37 11 70 0
32 5 67 11 78 5 11 11 38 11 61 0 42 29 88 54 88 7 0 16 4 19 10 3 5 -12 3
-35 -5 -46 -16 -48 -13 -30 60 6 22 12 66 14 97 5 69 45 159 78 175 45 22 87
32 93 22 9 -13 55 -11 55 2 0 8 18 10 55 7 38 -3 56 -1 59 8 10 26 64 -7 64
-39 0 -5 3 -12 7 -15 4 -4 6 7 4 23 -2 17 0 35 4 42 9 14 -181 8 -248 -7 -22
-5 -56 -10 -75 -10 l-35 0 0 93 c0 76 -4 103 -26 157 -15 36 -34 91 -43 123
-10 31 -20 57 -23 57 -3 0 -3 -31 -1 -69z"/>
<path d="M2688 6756 c-91 -16 -97 -24 -68 -80 22 -40 26 -43 45 -33 20 11 20
11 0 15 -23 5 -44 30 -45 53 0 11 11 19 31 23 42 8 69 8 67 -1 -4 -20 16 -83
27 -83 12 0 47 -168 38 -184 -7 -10 -53 42 -53 61 0 7 -5 13 -10 13 -6 0 -19
15 -30 33 -11 17 -20 28 -20 23 0 -22 87 -147 107 -152 30 -8 66 13 60 36 -3
11 1 27 9 37 20 27 17 48 -11 74 -13 13 -25 29 -25 35 0 15 -19 51 -47 90 -17
23 -19 34 -11 42 7 7 10 12 8 11 -3 0 -35 -6 -72 -13z"/>
<path d="M3755 6424 c-26 -24 -34 -26 -84 -21 -36 4 -49 3 -36 -3 34 -15 111
-12 125 5 14 16 40 20 40 6 0 -5 18 -12 40 -16 30 -5 40 -11 40 -26 0 -12 -7
-19 -19 -19 -20 0 -48 -27 -38 -36 3 -3 12 -2 19 2 7 5 21 9 32 9 14 0 20 9
22 34 3 19 6 36 8 39 2 2 26 0 53 -4 26 -4 42 -9 36 -11 -7 -3 -13 -16 -13
-29 0 -13 -4 -24 -10 -24 -5 0 -7 -7 -4 -15 13 -32 -80 -46 -130 -20 -15 8
-37 15 -47 15 -10 0 -20 4 -23 8 -6 11 -67 3 -83 -10 -6 -5 -24 -13 -40 -18
l-28 -8 27 -1 c15 -1 43 6 62 16 33 15 38 15 103 -5 116 -37 186 -25 231 41
47 70 23 86 -119 82 -80 -2 -97 1 -115 17 -20 18 -21 18 -49 -8z"/>
<path d="M7198 6401 c14 -12 22 -30 21 -48 0 -15 2 -77 5 -138 3 -60 8 -171
11 -245 4 -74 8 -137 10 -140 2 -3 6 -57 9 -120 4 -63 11 -187 16 -275 5 -88
12 -239 15 -335 7 -230 14 -399 20 -485 6 -79 21 -319 31 -470 3 -55 7 -116 9
-135 2 -19 9 -159 15 -310 12 -300 15 -359 30 -650 5 -107 13 -289 16 -405 3
-115 7 -213 10 -216 2 -4 5 -59 6 -124 2 -87 -1 -120 -10 -123 -6 -2 -12 3
-12 12 0 8 -4 17 -9 20 -5 4 -7 -3 -4 -14 5 -17 1 -18 -30 -13 -39 6 -99 -11
-118 -33 -10 -12 -7 -14 17 -14 16 0 53 -3 82 -8 29 -5 54 -6 57 -4 13 13 2
21 -32 25 -21 2 -14 3 16 1 30 -1 59 -8 64 -13 6 -6 18 -11 26 -10 9 0 11 3 5
5 -21 9 16 92 51 116 7 5 6 8 -1 8 -6 0 -23 -9 -37 -20 -14 -11 -28 -20 -30
-20 -3 0 -6 89 -7 198 0 108 -4 234 -10 279 -5 45 -10 166 -11 270 -1 103 -6
229 -11 278 -10 92 -2 275 11 275 8 0 27 -54 41 -117 5 -21 4 -34 -4 -37 -6
-2 -3 -5 7 -5 18 -1 20 -14 17 -85 -1 -23 4 -42 11 -47 8 -5 14 -29 15 -61 1
-73 14 -161 26 -175 5 -6 8 -29 7 -50 -2 -25 5 -55 19 -82 12 -23 22 -55 22
-71 0 -16 6 -35 14 -43 8 -7 16 -25 18 -38 1 -13 13 -28 26 -34 18 -8 21 -15
17 -36 -4 -19 -1 -28 9 -32 10 -4 16 -1 16 9 0 22 17 8 46 -38 19 -30 23 -43
14 -52 -14 -14 -31 10 -22 32 4 10 1 13 -7 8 -22 -14 -34 -60 -32 -119 2 -54
-15 -127 -30 -127 -4 0 -9 -6 -12 -14 -8 -21 16 -27 46 -11 14 7 28 11 31 8 3
-3 17 9 32 27 26 31 28 31 35 11 5 -11 10 -50 13 -86 4 -59 3 -66 -20 -84 -13
-10 -24 -23 -24 -29 0 -6 -6 -13 -12 -16 -7 -3 -3 -3 9 -1 12 3 24 2 27 -4 9
-13 647 -3 664 12 7 6 11 20 8 31 -3 12 2 29 13 41 16 17 18 28 11 70 -5 28
-9 66 -9 85 l1 35 13 -35 c13 -34 13 -33 14 45 l1 80 -20 -25 c-11 -14 -20
-36 -20 -50 -1 -14 -2 -54 -3 -90 -2 -43 -9 -74 -20 -90 -9 -13 -17 -37 -17
-52 l0 -28 -225 -2 c-124 -1 -246 -2 -272 -3 l-48 0 0 80 c-1 44 -5 97 -9 117
-7 32 -6 37 10 37 174 -2 329 34 409 94 93 72 105 87 105 137 0 33 -6 52 -19
64 -18 16 -20 16 -29 0 -6 -11 -11 -13 -16 -5 -4 6 -2 11 3 11 6 0 11 7 11 15
0 29 -16 15 -35 -31 -25 -61 -137 -165 -223 -206 -43 -20 -94 -35 -147 -41
-44 -6 -83 -15 -87 -21 -6 -7 -11 -6 -18 4 -13 21 -12 44 2 58 9 9 10 15 2 20
-6 4 -15 23 -19 42 -4 19 -28 82 -52 140 -25 58 -58 143 -74 190 -46 132 -54
173 -94 479 -15 114 -36 178 -65 192 -8 5 -32 16 -53 25 -34 15 -62 51 -51 63
4 5 79 -45 109 -72 11 -10 61 -51 110 -91 50 -40 141 -129 204 -197 128 -139
371 -378 385 -379 5 0 -16 26 -46 57 -30 32 -68 72 -84 90 -95 103 -167 185
-207 233 -49 59 -117 125 -184 179 -24 19 -43 43 -43 53 0 12 -7 18 -21 18
-12 0 -23 8 -26 20 -3 11 -11 20 -19 20 -19 0 -84 32 -84 42 0 4 -6 8 -12 8
-7 0 -26 11 -42 25 -16 14 -35 25 -41 25 -23 0 -27 33 -35 270 -8 232 -6 249
23 250 4 0 10 -14 14 -30 3 -17 10 -33 14 -36 5 -3 9 -14 9 -25 0 -10 7 -19
15 -19 9 0 15 -9 15 -23 0 -16 9 -28 26 -36 19 -8 25 -17 21 -31 -4 -14 0 -20
11 -20 15 0 15 -2 2 -10 -13 -8 -13 -11 3 -27 10 -11 17 -13 17 -5 0 7 4 12 9
12 17 0 19 -41 4 -93 -8 -28 -15 -60 -15 -69 1 -10 -5 -18 -11 -18 -7 0 1 -11
18 -24 16 -13 34 -21 40 -18 5 3 4 -1 -3 -10 -14 -17 -3 -31 15 -20 14 9 43
79 35 86 -3 3 0 6 6 6 7 0 12 -9 12 -20 0 -11 4 -20 9 -20 8 0 18 -19 26 -50
2 -6 14 -36 29 -72 6 -16 14 -28 19 -28 4 0 12 -11 17 -25 5 -14 14 -25 20
-25 14 0 15 -3 -41 137 -114 286 -301 839 -355 1051 -53 210 -70 342 -84 672
-18 422 -17 645 3 720 9 36 18 88 21 116 2 29 6 57 10 62 3 6 2 13 -3 16 -16
11 -30 -19 -32 -72 -3 -62 -19 -70 -20 -9 -1 23 -2 51 -3 62 -1 11 -3 37 -4
57 -2 45 -35 84 -77 92 l-30 6 23 -19z"/>
<path d="M4097 6232 c-3 -4 9 -7 26 -7 28 0 33 -5 45 -40 10 -29 10 -45 3 -57
-6 -10 -11 -29 -11 -43 0 -14 -6 -25 -13 -25 -30 0 -79 84 -71 121 5 19 4 21
-5 9 -37 -52 47 -181 117 -180 9 0 26 7 36 15 19 15 19 15 -2 15 -27 0 -27 5
-3 38 34 50 32 77 -9 122 -30 32 -44 40 -73 40 -20 0 -38 -3 -40 -8z"/>
<path d="M7393 6125 c-1 -61 -6 -111 -12 -119 -7 -8 -11 -62 -10 -142 1 -71
-2 -158 -6 -194 -4 -36 -6 -69 -6 -75 2 -22 13 -233 14 -292 1 -37 5 -56 10
-47 21 38 38 -7 17 -46 -6 -12 -6 -21 -1 -25 5 -3 7 -21 4 -40 -4 -27 -2 -35
10 -35 12 0 15 -14 15 -71 0 -39 5 -76 11 -82 8 -8 11 -7 11 2 0 28 19 -2 25
-40 5 -30 3 -44 -6 -50 -11 -6 -10 -16 6 -49 l20 -40 11 35 c9 29 9 33 -3 24
-7 -7 -17 -9 -20 -5 -4 4 -1 11 7 16 16 10 17 44 3 151 -5 37 -6 75 -2 85 4
11 1 29 -8 42 -17 27 -19 48 -30 317 -8 212 -11 544 -4 658 3 56 0 73 -16 95
-35 46 -40 38 -40 -73z"/>
<path d="M4350 6199 l-25 -21 30 7 c56 11 59 10 65 -15 3 -14 14 -46 25 -71
18 -43 22 -47 53 -47 19 0 38 -6 43 -13 15 -24 23 1 11 33 -6 18 -11 32 -9 33
1 1 23 0 49 -3 36 -3 49 -9 54 -24 9 -29 -2 -33 -41 -15 -37 18 -50 6 -14 -13
16 -9 19 -17 14 -40 -3 -16 -2 -31 4 -35 16 -9 13 -25 -3 -25 -7 0 -21 -11
-30 -25 -13 -20 -21 -23 -34 -16 -12 6 -38 2 -86 -15 -38 -13 -71 -24 -73 -24
-2 0 8 11 22 25 14 14 25 30 25 34 0 15 75 61 99 61 16 0 21 5 19 18 -2 12
-11 16 -28 14 -14 -2 -36 -4 -49 -4 -32 0 -113 -81 -111 -111 4 -39 0 -47 -19
-47 -22 0 -51 68 -51 118 0 18 -4 32 -8 32 -9 0 1 -84 16 -134 15 -53 101 -57
177 -8 29 19 51 25 86 23 28 -1 53 4 61 12 7 7 29 23 50 35 53 33 64 73 36
128 -22 45 -22 45 -98 49 -54 3 -80 16 -80 41 0 18 -10 28 -46 44 -59 25 -102
25 -134 -1z"/>
<path d="M3760 6162 c-35 -11 -37 -39 -5 -72 16 -17 31 -49 39 -81 l11 -54 58
-3 c56 -3 60 -2 98 36 47 48 51 80 12 117 -50 47 -153 74 -213 57z m64 -23
c-2 -4 14 -18 35 -32 32 -22 39 -32 39 -59 0 -27 -7 -39 -32 -56 -18 -12 -37
-22 -43 -22 -6 0 -13 23 -17 51 -5 39 -14 58 -36 77 -37 32 -29 51 20 49 21
-1 37 -4 34 -8z"/>
<path d="M7085 6146 c-16 -12 -17 -18 -7 -59 7 -25 12 -49 12 -53 0 -3 -21 -3
-47 1 -42 6 -46 5 -34 -9 7 -8 10 -24 6 -35 -3 -10 -2 -22 4 -25 5 -3 12 5 15
19 7 29 15 31 42 9 10 -8 13 -13 7 -9 -9 4 -13 -4 -13 -29 0 -20 5 -36 11 -36
5 0 8 4 5 9 -8 13 4 42 15 35 13 -8 11 -38 -5 -69 -20 -37 -72 -42 -79 -7 -4
18 -1 21 15 16 17 -5 18 -4 6 15 -7 12 -19 21 -26 21 -7 0 -10 -4 -7 -10 3 -5
3 -16 -2 -22 -4 -7 -8 -20 -8 -28 0 -8 -7 -14 -17 -12 -29 5 -29 -15 0 -21 25
-5 27 -9 30 -64 2 -32 4 -69 5 -83 1 -14 -1 -37 -5 -52 -3 -16 -3 -28 2 -28 6
0 5 -11 0 -26 -13 -33 -12 -44 1 -21 12 21 29 22 29 2 0 -8 4 -15 9 -15 12 0
23 87 24 191 0 76 2 81 25 90 13 5 27 7 32 4 4 -2 11 -42 15 -87 5 -46 9 -87
10 -93 1 -5 3 -18 3 -28 1 -10 7 -15 13 -11 7 4 8 26 4 63 -5 47 -12 170 -19
353 -1 33 -16 69 -16 39 0 -7 -6 -19 -14 -26 -12 -12 -16 -12 -28 2 -11 15
-11 16 4 10 23 -8 35 45 15 73 -12 17 -16 18 -32 6z"/>
<path d="M7176 6090 c2 -30 7 -111 9 -180 2 -69 8 -195 14 -280 14 -211 30
-487 36 -650 3 -74 10 -205 15 -290 25 -391 42 -729 38 -775 -4 -55 -2 -56
-44 43 -9 24 -21 45 -25 48 -5 3 9 -38 31 -89 35 -86 40 -109 55 -258 9 -91
18 -315 21 -504 3 -187 9 -360 14 -385 4 -25 11 -111 15 -192 6 -131 5 -149
-9 -154 -21 -8 -20 -22 1 -20 15 1 19 -11 25 -78 13 -141 21 -95 14 84 -10
284 -16 391 -26 466 -5 38 -12 182 -15 320 -8 302 -21 606 -34 774 -29 356
-39 509 -46 695 -3 88 -8 194 -10 235 -2 41 -6 131 -10 200 -9 196 -15 309
-30 540 -8 118 -17 271 -21 340 -4 69 -11 134 -15 145 -6 13 -7 -1 -3 -35z"/>
<path d="M7510 6107 c0 -1 5 -18 11 -37 6 -19 10 -89 9 -155 -1 -116 20 -298
42 -355 10 -25 20 -142 19 -209 -1 -19 4 -50 10 -68 6 -19 8 -41 4 -51 -9 -25
-12 -193 -3 -198 14 -9 9 -64 -7 -70 -17 -7 -19 -33 -4 -54 9 -13 10 -13 6 1
-3 9 -1 22 4 30 6 10 9 2 9 -24 0 -23 -4 -36 -10 -32 -6 4 -7 -5 -4 -23 3 -17
1 -32 -5 -36 -6 -4 -7 -15 -2 -29 4 -12 6 -28 3 -36 -2 -7 0 -16 6 -20 9 -5
33 -116 33 -151 -1 -32 -8 -54 -19 -58 -7 -2 -12 -13 -12 -25 1 -21 1 -21 15
-3 17 22 39 11 32 -16 -3 -11 0 -21 8 -24 9 -4 14 -22 13 -55 0 -27 4 -55 9
-62 6 -7 11 -34 12 -62 1 -34 7 -54 19 -63 16 -12 15 -15 -8 -33 l-25 -20 25
7 c14 4 28 12 32 18 4 6 10 7 15 3 4 -5 3 -11 -3 -15 -13 -8 -36 -73 -29 -80
2 -3 11 1 20 8 9 7 19 10 22 6 4 -4 3 -10 -3 -14 -12 -8 -29 -52 -20 -52 14 0
46 42 40 52 -4 7 -3 8 5 4 14 -9 5 -46 -16 -63 -12 -10 -12 -15 0 -46 16 -38
37 -57 37 -33 0 8 -4 18 -10 21 -5 3 -10 16 -9 28 l0 22 16 -23 c9 -13 17 -40
18 -60 2 -57 16 -103 28 -99 7 2 13 10 13 18 1 8 2 19 3 26 1 14 50 73 61 73
4 0 -1 -28 -11 -62 -13 -42 -16 -65 -9 -72 5 -5 10 -27 10 -48 0 -47 12 -49
26 -3 9 27 8 37 -4 49 -10 9 -12 21 -7 33 5 10 7 26 6 37 -2 10 2 15 7 12 5
-3 16 2 23 11 12 15 12 16 -5 10 -16 -6 -18 -4 -13 22 7 33 -10 52 -24 30 -6
-9 -7 -1 -3 21 4 19 11 39 15 44 5 6 9 18 9 27 0 9 6 19 14 22 15 6 36 -10 36
-27 0 -6 5 -28 11 -49 10 -38 29 -42 29 -6 0 12 5 19 13 16 7 -2 11 -17 9 -35
-2 -17 4 -42 13 -56 9 -14 15 -33 14 -43 -1 -10 1 -30 5 -45 11 -37 -16 -148
-56 -238 -56 -124 -74 -209 -53 -250 17 -33 12 -70 -10 -70 -21 0 -45 40 -45
74 0 16 -7 37 -15 46 -34 37 -169 351 -234 541 -38 112 -87 254 -109 314 -55
149 -147 467 -191 665 l-10 45 4 -52 c7 -91 133 -554 181 -669 9 -21 52 -142
96 -269 83 -240 169 -450 225 -547 18 -31 33 -66 33 -78 0 -29 26 -77 49 -90
21 -10 51 -4 63 14 11 16 10 74 -2 95 -9 19 1 76 22 118 10 21 11 21 31 2 16
-15 18 -22 9 -31 -16 -16 -15 -39 2 -32 7 3 16 -2 19 -10 4 -9 2 -16 -3 -16
-6 0 -10 -12 -10 -26 0 -21 3 -24 13 -15 17 13 28 4 20 -17 -5 -11 -2 -14 10
-9 14 5 16 3 9 -11 -13 -26 -14 -82 -2 -82 6 0 9 -4 6 -9 -3 -5 1 -11 9 -15 8
-3 15 -14 15 -24 0 -10 11 -32 25 -48 14 -16 25 -32 25 -36 0 -5 9 -8 21 -8
16 0 19 -4 14 -20 -4 -11 -2 -20 4 -20 5 0 17 -16 26 -35 10 -19 25 -37 36
-40 10 -4 19 -11 19 -16 0 -13 41 -52 47 -45 4 3 -1 14 -9 23 -15 19 -30 49
-71 148 -25 59 -57 181 -97 363 -11 51 -32 115 -46 142 -23 45 -25 57 -23 162
2 78 -6 172 -24 303 -27 199 -33 286 -43 600 -5 180 -12 264 -48 555 -8 69
-20 163 -25 210 -11 88 -21 156 -39 250 -23 119 -44 160 -93 185 -16 9 -38 22
-47 30 -28 23 -154 105 -161 105 -11 0 -5 -44 11 -75 8 -16 18 -52 22 -79 3
-28 11 -53 17 -56 6 -4 15 -39 22 -79 6 -42 15 -70 21 -68 6 2 11 14 10 26 0
11 3 21 8 21 11 0 10 -28 -4 -66 -10 -27 -9 -39 6 -73 10 -22 24 -42 31 -45 8
-3 11 -15 7 -32 -3 -18 0 -29 12 -36 10 -5 16 -22 16 -41 0 -18 5 -38 10 -43
6 -6 7 -27 2 -56 -7 -33 -5 -50 5 -63 7 -11 13 -29 13 -41 0 -11 10 -36 23
-55 20 -30 50 -131 46 -155 -2 -16 13 -54 22 -54 5 0 9 -7 9 -15 0 -8 10 -31
21 -52 22 -39 27 -86 30 -278 0 -65 -3 -81 -17 -92 -17 -13 -17 -14 0 -31 17
-15 18 -15 13 0 -3 9 1 22 10 30 14 11 15 9 9 -17 -6 -28 -9 -122 -5 -155 4
-31 -1 -60 -11 -60 -5 0 -10 9 -10 21 0 11 -4 18 -10 14 -5 -3 -6 -13 -3 -23
4 -13 2 -13 -10 3 -20 26 -27 11 -31 -76 -2 -35 -10 -77 -19 -94 -9 -16 -17
-37 -18 -45 0 -8 -5 -3 -11 13 -8 22 -6 34 11 63 17 28 19 39 10 50 -17 21 -1
96 25 119 14 12 26 36 29 60 4 33 4 36 -5 18 -16 -34 -28 -28 -21 11 4 28 2
34 -17 39 -19 5 -20 8 -8 26 7 11 9 24 5 28 -5 4 -12 1 -16 -6 -11 -18 -21 0
-15 27 4 12 12 18 19 16 17 -7 21 14 17 88 -4 59 -4 59 -24 41 -21 -18 -21
-18 -9 5 10 18 9 29 -3 54 -20 39 -20 41 2 36 17 -5 17 -2 4 41 -23 76 -24 79
-29 58 -3 -10 1 -25 8 -33 10 -12 10 -17 -1 -27 -10 -9 -11 -9 -6 1 4 7 2 19
-4 27 -7 9 -9 26 -6 41 8 30 -12 91 -31 98 -10 4 -11 1 -3 -14 13 -24 13 -50
0 -50 -5 0 -10 13 -10 28 0 16 -3 32 -7 36 -4 4 -6 22 -5 41 2 18 -1 36 -7 39
-5 4 -13 28 -17 54 -3 26 -10 52 -14 57 -5 6 -16 39 -25 75 -9 36 -33 110 -52
165 -19 55 -50 165 -69 245 -29 122 -35 166 -37 278 l-2 132 -30 25 c-26 21
-45 31 -45 22z"/>
<path d="M6852 5821 c-15 -9 -8 -59 33 -235 27 -119 30 -146 15 -146 -7 0 -7
-6 0 -19 12 -24 13 -121 1 -141 -6 -8 -7 -19 -3 -24 8 -14 2 -168 -9 -230 -5
-28 -18 -105 -29 -172 -10 -66 -27 -135 -37 -153 l-18 -32 -135 -4 c-74 -3
-151 -7 -171 -10 -33 -5 -37 -3 -43 21 -4 14 -6 219 -6 456 1 236 -1 432 -3
435 -8 8 -26 -92 -21 -114 9 -33 -14 -37 -41 -6 -14 15 -23 21 -20 13 2 -8 7
-78 9 -155 2 -77 12 -185 21 -240 23 -145 35 -259 35 -347 0 -75 1 -79 35
-115 24 -25 36 -50 41 -80 7 -49 43 -148 44 -121 0 9 -5 29 -11 45 -6 15 -14
46 -19 68 -4 22 -11 47 -14 56 -5 12 4 22 36 39 37 21 59 24 166 26 115 2 124
0 155 -22 17 -13 40 -27 50 -30 9 -4 17 -10 17 -15 0 -5 8 -9 18 -9 14 0 15
-2 2 -10 -12 -7 -12 -12 -2 -22 6 -6 12 -20 12 -30 0 -10 9 -27 20 -38 11 -11
22 -32 26 -47 3 -16 14 -50 24 -78 9 -27 15 -55 13 -62 -2 -7 1 -21 7 -33 15
-28 20 -56 21 -110 1 -74 -12 -214 -20 -225 -10 -14 -13 -65 -3 -65 16 0 54
62 59 96 4 24 1 38 -9 47 -13 11 -13 14 3 30 18 16 20 16 38 -2 32 -32 51
-153 31 -192 -15 -27 -12 -145 6 -257 8 -50 24 -66 25 -25 1 15 2 35 3 43 2 8
3 27 4 43 1 16 8 27 16 27 8 0 18 9 21 20 3 11 11 20 16 20 21 0 2 127 -33
215 -11 28 -29 68 -39 90 -44 95 -92 254 -134 445 -65 291 -64 289 -82 316 -8
13 -22 24 -30 24 -8 0 -11 5 -8 10 3 6 1 10 -4 10 -16 0 -13 64 6 166 12 66
16 149 17 319 0 223 -1 232 -26 306 -14 42 -29 103 -33 135 -4 32 -9 66 -11
74 -1 8 -3 18 -3 23 -1 9 -13 9 -29 -2z"/>
<path d="M5128 5424 c3 -16 7 -21 12 -14 15 24 120 -34 120 -66 0 -17 5 -18
30 -2 14 9 23 9 30 2 8 -8 1 -21 -25 -47 -21 -21 -41 -37 -46 -37 -13 0 -11
-14 4 -29 10 -10 8 -11 -8 -5 -17 6 -16 3 6 -21 18 -18 39 -28 65 -30 22 -2
50 -6 64 -10 24 -6 24 -6 6 9 -11 9 -26 16 -34 16 -7 0 -12 6 -9 13 2 6 10 11
16 9 7 -1 10 2 6 8 -3 6 -10 8 -15 5 -4 -3 -6 4 -3 15 6 23 -15 28 -35 8 -9
-9 -12 -6 -12 15 0 15 4 27 8 27 4 0 23 11 41 24 l33 25 -43 20 c-23 12 -49
21 -56 21 -7 0 -13 6 -13 14 0 13 -41 26 -82 27 -9 0 -22 7 -29 15 -19 23 -37
17 -31 -12z"/>
<path d="M6297 5428 c-4 -13 0 -29 9 -39 17 -19 8 -53 -12 -45 -17 7 -18 -6
-2 -22 9 -9 10 -15 2 -20 -6 -4 -9 -20 -7 -37 10 -93 15 -121 23 -130 12 -14
5 -68 -9 -73 -6 -2 -11 -8 -11 -13 0 -4 6 -6 14 -3 9 4 14 -2 15 -18 0 -13 1
-47 2 -75 1 -29 6 -53 10 -53 5 0 8 -12 8 -27 -3 -50 0 -65 13 -57 8 5 9 2 5
-10 -4 -10 -3 -15 3 -11 6 3 8 19 5 36 -3 16 0 37 7 48 9 15 8 53 -6 178 -10
87 -20 187 -22 223 -8 130 -15 170 -29 170 -7 0 -15 -10 -18 -22z"/>
<path d="M6112 5079 c10 -17 10 -23 1 -26 -7 -2 -9 -11 -6 -19 3 -7 0 -27 -5
-43 -9 -25 -8 -29 4 -24 18 7 18 -7 0 -21 -12 -9 -13 -21 -6 -56 5 -25 10 -64
12 -86 2 -21 7 -45 12 -52 4 -6 3 -12 -2 -12 -16 0 -23 -30 -11 -52 8 -15 8
-19 0 -14 -16 10 -13 -10 3 -27 10 -9 11 -18 5 -24 -6 -6 -5 -14 5 -22 8 -7
12 -19 9 -27 -3 -8 0 -21 7 -29 7 -9 10 -19 6 -22 -4 -4 -11 -1 -16 7 -8 12
-10 10 -10 -7 0 -16 4 -21 15 -17 13 5 15 -3 12 -47 -2 -30 -2 -48 0 -41 9 25
19 10 21 -33 1 -28 -3 -45 -10 -45 -6 0 -4 -8 6 -19 10 -11 14 -25 10 -36 -4
-10 -1 -21 7 -27 10 -7 11 -11 3 -14 -7 -3 -10 -14 -7 -24 3 -11 9 -18 13 -15
4 2 5 -11 3 -30 -2 -19 1 -35 6 -35 6 0 8 6 5 14 -3 9 3 17 15 21 25 8 26 18
5 51 -16 23 -16 24 2 17 15 -5 17 -4 9 8 -6 8 -10 37 -10 66 1 28 -2 50 -7 47
-10 -7 -10 -1 2 30 6 16 6 27 0 31 -6 3 -15 15 -20 25 -8 15 -7 18 3 14 12 -4
12 5 2 59 -7 35 -15 69 -19 75 -3 6 0 12 6 15 10 3 10 7 0 20 -8 9 -11 20 -8
26 3 5 0 12 -6 14 -9 4 -10 8 -2 14 17 13 12 52 -6 45 -11 -4 -10 0 4 16 14
17 16 25 7 35 -6 8 -9 16 -6 19 3 3 -2 49 -10 104 -8 54 -17 117 -21 139 -5
36 -17 54 -37 55 -4 0 -2 -10 5 -21z"/>
<path d="M817 4953 c-2 -5 -1 -66 3 -138 7 -145 20 -184 70 -210 16 -8 46 -14
67 -14 l38 2 -40 6 c-94 16 -117 56 -125 214 -3 75 -1 117 5 117 6 0 11 -38
13 -88 4 -156 28 -212 97 -227 l30 -7 -32 27 c-42 34 -53 76 -53 201 0 64 -4
104 -12 112 -13 13 -55 16 -61 5z"/>
<path d="M1047 4953 c-13 -12 -7 -21 11 -17 14 4 17 -2 17 -46 0 -58 -12 -67
-18 -12 -2 20 -4 6 -4 -33 -1 -52 1 -64 8 -45 7 21 8 19 4 -12 -2 -25 0 -38 8
-38 7 0 6 -4 -3 -10 -10 -6 -11 -10 -2 -10 6 0 12 -12 12 -26 0 -17 -4 -24
-13 -21 -7 2 -18 -6 -24 -19 -13 -28 -6 -32 13 -7 14 20 21 17 26 -12 2 -15
-4 -21 -26 -25 l-30 -5 26 -12 c14 -6 35 -9 47 -6 20 5 21 11 21 174 0 156 -1
169 -19 179 -23 12 -45 13 -54 3z"/>
<path d="M1768 4953 c-2 -5 -1 -51 3 -103 l7 -95 -2 98 c0 53 2 97 7 97 4 0 7
-4 7 -10 0 -5 6 -7 14 -4 7 3 20 -6 30 -20 21 -32 20 -36 -3 -36 -26 0 -35
-61 -29 -181 3 -49 2 -92 -3 -94 -12 -8 -27 25 -23 49 3 13 0 10 -7 -7 -6 -15
-8 -34 -5 -42 7 -18 62 -20 73 -2 4 6 6 63 4 124 -2 96 0 114 13 119 9 3 13
10 10 15 -11 18 9 8 28 -13 10 -12 16 -27 14 -34 -3 -8 1 -11 10 -7 7 3 14 0
14 -6 0 -6 7 -11 16 -11 8 0 12 -5 8 -11 -4 -8 -9 -8 -17 0 -20 20 -31 11 -12
-9 27 -30 41 -25 92 30 36 39 49 48 59 39 11 -9 14 -8 14 4 0 27 -24 25 -62
-5 -46 -36 -56 -32 -142 58 -46 47 -68 64 -88 64 -15 0 -28 -3 -30 -7z"/>
<path d="M2604 4946 c-3 -8 -4 -29 -1 -48 l4 -33 1 37 c2 34 21 65 23 36 0 -7
2 -20 4 -29 1 -9 5 -60 8 -113 5 -85 9 -102 32 -132 24 -32 25 -34 6 -34 -11
0 -27 10 -35 22 -9 12 -16 18 -16 12 0 -43 81 -77 144 -61 38 10 39 11 16 18
-14 4 -20 8 -15 9 6 1 -6 7 -24 14 -61 22 -71 47 -75 178 -3 64 -7 122 -11
127 -9 16 -55 13 -61 -3z"/>
<path d="M2830 4950 c0 -5 7 -7 15 -4 13 5 15 -6 14 -72 -1 -61 -3 -71 -9 -44
-7 34 -7 34 -9 -12 -1 -34 3 -47 12 -45 9 1 12 -20 13 -80 1 -79 0 -82 -18
-72 -30 16 -32 4 -3 -15 15 -10 34 -16 43 -14 15 3 17 20 13 178 -2 96 -5 178
-8 183 -6 11 -63 9 -63 -3z"/>
<path d="M1340 4935 c-7 -8 -10 -18 -7 -22 4 -3 9 2 13 11 8 21 20 21 27 -1 2
-10 8 -26 12 -36 6 -15 4 -17 -18 -12 -30 8 -52 -18 -68 -80 -6 -22 -19 -49
-29 -60 -26 -29 -40 -60 -40 -89 0 -28 -18 -45 -30 -26 -5 9 -9 8 -13 -3 -7
-19 1 -27 28 -27 28 0 40 15 49 59 11 62 31 81 82 81 34 0 51 -6 69 -25 14
-13 25 -20 25 -15 0 16 -53 50 -79 50 -31 0 -58 15 -43 24 6 3 18 3 29 0 17
-5 17 -5 1 9 -21 17 -23 36 -6 72 12 27 23 32 33 15 4 -6 10 -8 15 -5 11 7 34
-61 25 -75 -3 -5 -1 -10 4 -10 6 0 21 -21 34 -47 26 -52 41 -113 29 -113 -5 0
-16 15 -25 33 l-17 32 6 -30 c9 -45 26 -58 63 -50 17 4 31 9 31 12 0 3 -17 42
-39 87 -21 44 -41 97 -45 116 -7 43 -65 134 -87 138 -9 1 -22 -4 -29 -13z"/>
<path d="M2066 4928 c-10 -13 -28 -34 -40 -48 -11 -13 0 -6 26 18 26 23 49 42
52 42 3 0 5 -52 10 -260 1 -75 -16 -96 -25 -30 l-7 45 2 -50 c1 -44 4 -50 24
-53 35 -5 55 16 48 52 -8 46 -9 268 -1 289 12 28 -65 24 -89 -5z"/>
<path d="M2367 4933 c-29 -33 -157 -307 -157 -336 0 -5 14 -7 31 -5 28 3 34 9
50 54 27 73 47 88 100 77 44 -9 53 -21 83 -115 7 -22 64 -25 72 -4 3 7 -13 54
-35 104 -23 49 -41 94 -41 99 0 24 -61 143 -74 143 -7 0 -20 -8 -29 -17z m46
-68 c15 -30 27 -60 27 -66 0 -6 16 -47 36 -91 25 -56 33 -83 26 -90 -8 -8 -18
6 -36 45 -27 63 -41 73 -109 79 -47 5 -48 5 -72 -37 -14 -23 -25 -48 -25 -56
0 -21 -27 -56 -36 -47 -8 9 142 318 154 318 4 0 19 -25 35 -55z"/>
<path d="M6530 4589 c0 -8 110 -333 119 -354 5 -11 28 -65 51 -120 23 -55 69
-152 101 -215 32 -64 59 -121 59 -126 0 -6 18 -39 40 -73 22 -34 40 -64 40
-66 0 -3 13 -26 29 -52 16 -27 55 -113 86 -192 31 -80 69 -170 84 -200 110
-221 165 -324 168 -315 2 6 -15 47 -37 91 -22 44 -40 86 -40 92 0 6 -4 19 -9
29 -31 57 -140 316 -161 382 -11 36 -35 88 -54 115 -41 64 -49 84 -36 100 8 9
2 16 -20 25 -22 9 -38 28 -55 65 -14 28 -25 56 -25 61 0 5 -15 32 -33 60 -19
28 -53 91 -76 140 -23 49 -53 112 -66 139 -23 47 -49 119 -111 305 -19 60 -54
130 -54 109z"/>
<path d="M3040 4196 c14 -8 41 -34 60 -57 31 -39 35 -51 38 -114 2 -57 -1 -76
-17 -103 -36 -56 -118 -92 -176 -78 -36 9 -31 26 8 27 l32 1 -32 9 c-17 5 -48
28 -67 51 -31 35 -36 49 -36 90 0 99 41 148 124 148 44 0 53 -4 87 -40 44 -46
57 -95 41 -155 -9 -35 -9 -38 4 -21 22 31 17 103 -11 151 -37 63 -66 78 -140
73 -94 -8 -135 -45 -143 -129 -7 -70 4 -97 56 -146 51 -46 46 -57 -9 -20 -43
29 -79 92 -79 137 0 48 31 110 69 143 39 32 31 36 -11 5 -37 -26 -67 -90 -68
-141 0 -42 22 -101 48 -130 46 -51 159 -80 226 -57 45 14 101 62 122 101 22
43 18 134 -7 179 -21 37 -99 91 -130 90 -8 -1 -3 -7 11 -14z"/>
<path d="M1493 4190 c-17 -7 -23 -17 -22 -37 l1 -28 7 25 c4 14 15 26 24 28
18 4 23 -13 7 -23 -14 -9 -12 -70 4 -109 8 -20 10 -39 5 -47 -10 -16 -12 -90
-3 -113 4 -11 19 -16 48 -16 46 0 76 -13 56 -25 -6 -4 -35 -4 -64 0 -41 5 -56
11 -64 28 -8 17 -11 18 -11 5 -2 -43 8 -48 99 -48 71 0 89 3 94 16 14 38 8 43
-56 41 l-63 -2 -3 44 c-2 30 2 49 14 62 16 17 16 19 1 19 -10 0 -17 5 -17 10
0 19 42 10 47 -9 7 -26 29 -33 43 -16 18 21 4 33 -45 41 -40 6 -45 9 -51 39
-9 52 -2 78 26 86 l25 7 -27 1 c-18 1 -28 7 -28 16 0 17 -14 18 -47 5z"/>
<path d="M1953 4193 c-9 -3 -12 -24 -11 -61 l2 -57 3 53 c4 49 6 52 31 52 20
0 23 -3 14 -12 -22 -22 -12 -140 12 -137 25 3 46 -2 46 -10 0 -6 -15 -11 -32
-13 -28 -2 -34 -8 -38 -33 -3 -16 -3 -46 0 -65 l5 -35 63 -3 c44 -2 62 -7 59
-15 -5 -15 -116 -21 -137 -7 -9 6 -17 33 -21 72 l-6 63 -1 -67 c-3 -93 7 -101
111 -95 80 5 100 15 94 47 -2 12 -15 14 -64 12 l-62 -4 -7 37 c-9 51 9 89 39
80 42 -12 52 -10 55 12 3 17 -3 24 -25 29 -58 13 -62 15 -69 49 -9 51 2 75 37
75 16 0 29 5 29 11 0 5 5 7 10 4 6 -4 8 -10 5 -15 -11 -17 17 -22 33 -6 16 16
16 18 -2 32 -19 14 -144 19 -173 7z"/>
<path d="M3407 4193 c-7 -13 5 -143 12 -138 4 2 4 29 1 59 -3 31 -3 61 1 67
11 18 21 -8 28 -70 6 -54 7 -56 36 -56 22 0 30 -4 29 -17 -1 -9 20 -35 47 -58
27 -23 49 -48 49 -56 0 -8 7 -14 15 -14 8 0 15 -5 15 -12 0 -6 7 -20 17 -30
14 -16 14 -18 0 -18 -8 0 -34 21 -58 48 -48 53 -43 38 9 -25 26 -33 41 -43 64
-43 47 0 46 26 -4 78 -71 75 -118 131 -118 141 0 6 25 37 56 71 31 33 55 62
53 64 -2 2 -16 6 -31 10 -20 4 -32 1 -43 -11 -8 -10 -31 -37 -51 -61 -20 -23
-39 -40 -42 -37 -3 3 -7 26 -8 50 -2 25 -6 50 -9 55 -7 12 -62 13 -68 3z"/>
<path d="M1275 4150 c-14 -23 -23 -45 -19 -51 3 -6 -4 -22 -17 -35 -20 -21
-21 -28 -11 -44 11 -18 9 -20 -18 -20 -38 0 -53 -33 -48 -103 2 -28 -1 -46 -7
-44 -6 2 -10 40 -10 86 1 45 -2 74 -6 64 -4 -10 -8 -50 -8 -89 -1 -76 11 -99
46 -92 15 3 19 15 21 73 4 85 12 98 51 79 24 -12 93 -85 116 -123 16 -27 -24
4 -50 39 -32 44 -33 26 0 -21 23 -34 55 -51 83 -41 23 7 11 30 -58 110 -38 44
-70 89 -70 99 0 10 22 45 49 78 51 61 51 75 4 75 -16 0 -31 -13 -48 -40z"/>
<path d="M2361 4164 c-27 -35 -161 -298 -161 -317 0 -20 25 -28 54 -18 16 7
27 23 36 54 19 69 39 86 97 80 60 -7 79 -23 96 -82 12 -44 15 -46 51 -49 21
-2 42 0 47 5 4 4 -17 58 -47 118 -29 61 -54 115 -54 122 0 24 -63 113 -81 113
-10 0 -27 -12 -38 -26z m89 -120 c6 -27 19 -60 29 -74 19 -27 61 -105 61 -115
0 -3 -7 -5 -15 -5 -8 0 -27 26 -42 57 -25 52 -32 59 -68 66 -93 19 -148 -10
-161 -86 -6 -36 -27 -58 -41 -43 -8 7 111 249 144 294 l25 33 29 -39 c15 -21
33 -61 39 -88z"/>
<path d="M1914 3416 c-3 -8 -4 -27 -1 -43 4 -27 4 -27 6 5 1 37 18 43 26 10 2
-13 6 -77 9 -143 2 -66 5 -124 6 -130 4 -19 0 -35 -9 -35 -6 0 -12 15 -14 33
-3 27 -4 26 -5 -11 l-2 -43 38 3 c33 3 37 6 34 28 -2 14 -6 92 -9 173 -5 146
-6 148 -30 158 -33 12 -43 11 -49 -5z"/>
<path d="M2126 3403 c0 -15 7 -29 15 -32 20 -6 57 -46 114 -123 28 -37 65 -75
83 -83 25 -13 32 -22 32 -45 0 -17 -3 -30 -7 -30 -4 0 -25 17 -47 38 -41 39
-40 29 3 -25 20 -25 34 -33 59 -33 17 0 32 3 32 8 1 4 2 83 3 175 2 167 2 168
-20 174 -42 10 -53 -2 -51 -54 l1 -48 6 45 c9 71 24 44 28 -52 4 -77 2 -89
-16 -107 -32 -32 -31 -33 -96 78 -20 35 -117 141 -129 141 -6 0 -11 -12 -10
-27z"/>
<path d="M3046 3415 c-3 -8 -1 -15 3 -15 5 0 11 6 14 13 12 35 21 -17 23 -131
0 -70 4 -146 8 -169 7 -39 6 -43 -13 -43 -11 0 -25 8 -30 18 -11 19 -15 3 -5
-22 4 -11 19 -16 50 -16 52 0 64 17 43 58 -9 18 -14 74 -16 166 -1 101 -5 141
-15 147 -21 14 -55 10 -62 -6z"/>
<path d="M2613 3398 c-26 -28 -153 -294 -153 -320 0 -16 6 -19 37 -16 35 3 38
6 44 38 3 19 13 50 22 68 16 30 21 32 71 32 62 0 69 -6 95 -81 17 -53 19 -54
59 -57 32 -2 42 0 42 12 0 8 -22 61 -50 118 -27 56 -50 109 -50 117 0 22 -72
111 -89 111 -4 0 -17 -10 -28 -22z m83 -108 c4 -19 26 -72 50 -117 24 -45 44
-85 44 -88 0 -3 -9 -5 -19 -5 -13 0 -21 9 -26 30 -10 46 -34 88 -53 94 -57 16
-102 16 -131 1 -17 -8 -31 -12 -31 -9 0 20 55 143 77 172 l25 33 29 -38 c15
-21 31 -54 35 -73z"/>
<path d="M1682 3403 c-7 -3 -19 -19 -28 -36 l-15 -32 23 26 24 25 20 -40 c10
-22 19 -43 19 -47 0 -4 3 -11 8 -15 4 -4 7 -16 7 -27 0 -10 9 -31 19 -46 18
-25 71 -120 71 -127 0 -2 -7 -4 -15 -4 -9 0 -20 19 -28 47 -17 58 -45 79 -115
88 -49 7 -54 5 -81 -24 -17 -18 -32 -48 -36 -72 -5 -30 -11 -39 -23 -37 -10 2
-16 12 -14 23 2 18 1 18 -8 3 -5 -9 -7 -23 -4 -32 10 -27 74 -17 74 11 0 23
41 111 54 116 21 8 108 -10 117 -24 5 -8 14 -32 21 -54 6 -22 16 -46 21 -52
11 -15 63 -17 72 -4 4 8 -73 190 -123 289 -18 36 -39 52 -60 45z"/>
<path d="M8581 2397 c-1 -77 -30 -179 -52 -184 -10 -3 -15 -11 -12 -19 3 -8
-2 -23 -11 -33 -16 -17 -15 -19 15 -25 43 -8 57 -8 43 2 -19 13 -25 58 -9 78
15 19 15 19 30 0 18 -23 19 -42 4 -52 -8 -4 -7 -9 2 -15 11 -7 12 -11 1 -17
-7 -5 19 -8 60 -6 88 2 85 1 71 15 -6 6 -9 17 -7 24 3 7 -4 30 -15 51 -12 21
-21 45 -21 53 0 12 -3 12 -12 3 -9 -9 -8 -21 2 -53 12 -34 12 -43 2 -47 -9 -3
-8 -8 5 -18 17 -13 16 -14 -12 -12 -17 2 -29 8 -28 15 2 6 -8 36 -21 65 -17
41 -22 66 -19 109 3 31 0 71 -5 90 -10 32 -10 31 -11 -24z"/>
<path d="M5533 3413 c-34 -6 -81 -70 -92 -124 -15 -68 10 -134 59 -159 62 -32
102 -34 151 -10 24 12 54 34 66 49 30 35 39 98 20 142 -37 86 -106 121 -204
102z"/>
<path d="M4692 3399 c-90 -45 -122 -130 -82 -214 37 -77 117 -102 210 -67 53
21 90 69 90 119 0 63 -63 152 -120 168 -14 3 -32 8 -40 11 -8 2 -35 -6 -58
-17z"/>
<path d="M6063 1828 c-29 -14 -49 -66 -44 -115 2 -24 41 -49 79 -51 97 -6 148
94 80 158 -24 22 -78 26 -115 8z"/>
<path d="M6145 1589 c-39 -12 -65 -49 -67 -95 -1 -29 5 -42 27 -62 24 -20 36
-23 78 -19 57 5 93 35 103 83 12 62 -69 115 -141 93z"/>
<path d="M5030 1753 c-65 -24 -105 -117 -105 -243 1 -134 44 -187 138 -169 79
14 118 87 119 224 0 136 -66 219 -152 188z"/>
<path d="M5531 1735 c-40 -34 -54 -82 -54 -181 0 -66 5 -92 26 -137 26 -57 44
-73 87 -77 50 -4 69 1 99 25 78 66 56 302 -35 374 -37 29 -85 27 -123 -4z"/>
</g>
</svg>
